<svg width="79" height="80" viewBox="0 0 79 80" fill="none" xmlns="http://www.w3.org/2000/svg">
<path d="M42.327 9.81978V28.7169C42.327 30.3895 40.9586 31.7579 39.286 31.7579C37.6134 31.7579 36.245 30.3895 36.245 28.7169V9.81978C36.245 8.14722 37.6134 6.77881 39.286 6.77881C40.9586 6.77881 42.327 8.14722 42.327 9.81978V9.81978ZM56.4069 25.633C57.5943 26.8205 59.5197 26.8206 60.7071 25.6331L68.4701 17.8702C69.6576 16.6827 69.6576 14.7572 68.4701 13.5697C67.2826 12.3823 65.3571 12.3823 64.1697 13.5697L56.4067 21.3327C55.2194 22.5202 55.2195 24.4457 56.4069 25.633V25.633ZM22.1662 25.6331C23.3537 24.4457 23.3539 22.5203 22.1664 21.3329L14.4034 13.5699C13.216 12.3824 11.2905 12.3824 10.103 13.5699C8.91553 14.7574 8.91553 16.6829 10.103 17.8703L17.866 25.6333C19.0535 26.8206 20.9788 26.8206 22.1662 25.6331V25.6331ZM61.9101 74.8288C63.0927 73.6462 63.0927 71.7109 61.9101 70.5283L48.5478 57.1661C47.3653 55.9835 45.43 55.9835 44.2474 57.1661C43.0648 58.3486 43.0648 60.2839 44.2474 61.4665L57.6097 74.8288C58.7922 76.0113 60.7275 76.0113 61.9101 74.8288ZM20.9623 74.8288L34.3246 61.4665C35.5072 60.2839 35.5072 58.3486 34.3246 57.1661C33.1421 55.9835 31.2068 55.9835 30.0242 57.1661L16.6619 70.5283C15.4794 71.7109 15.4794 73.6462 16.6619 74.8288C17.8445 76.0113 19.7798 76.0113 20.9623 74.8288Z" fill="#6B8DA1"/>
<path d="M54.3741 7.77748C59.9171 3.02419 68.2716 3.26819 73.5211 8.51762C78.7759 13.7724 79.015 22.1388 74.2465 27.6816C74.0359 27.83 73.7871 27.9147 73.5297 27.9257C73.2724 27.9367 73.0172 27.8736 72.7947 27.7438L54.2984 9.24748C54.1667 9.02165 54.1037 8.7623 54.1171 8.5012C54.1306 8.2401 54.2199 7.98859 54.3741 7.77748ZM5.78079 27.7413L24.2771 9.24502C24.4069 9.02253 24.4701 8.76741 24.4591 8.51003C24.4481 8.25266 24.3633 8.00387 24.2149 7.79328C18.6719 3.0248 10.3057 3.26389 5.05093 8.51869C-0.198346 13.7681 -0.442348 22.1227 4.31094 27.6657C4.52201 27.8199 4.7735 27.9093 5.03458 27.9227C5.29567 27.9361 5.555 27.8731 5.78079 27.7413V27.7413Z" fill="#FFB636"/>
<path d="M73.2793 17.4214C72.6024 17.4214 71.9924 16.9524 71.8403 16.2641C71.5125 14.7805 70.7799 13.413 69.7215 12.3091C68.6657 11.2079 67.3338 10.4188 65.8699 10.027C65.083 9.81647 64.6157 9.00758 64.8262 8.22063C65.0369 7.43369 65.8457 6.9664 66.6326 7.17695C68.6175 7.70807 70.422 8.77677 71.851 10.2672C73.2841 11.7617 74.2765 13.6154 74.7211 15.6277C74.8968 16.4233 74.3943 17.2105 73.5988 17.3864C73.4939 17.4096 73.3868 17.4213 73.2793 17.4214V17.4214ZM6.56045 16.17C6.95224 14.7062 7.74133 13.3743 8.84256 12.3185C9.94641 11.2601 11.314 10.5275 12.7976 10.1997C13.5931 10.0239 14.0955 9.23654 13.9198 8.441C13.7441 7.64546 12.9567 7.14303 12.1612 7.31874C10.149 7.76332 8.29532 8.75575 6.80062 10.1888C5.31005 11.6179 4.24151 13.4223 3.71038 15.4072C3.65182 15.6258 3.64436 15.855 3.68857 16.077C3.73279 16.299 3.82749 16.5078 3.96535 16.6874C4.10321 16.8669 4.28053 17.0123 4.48359 17.1123C4.68664 17.2123 4.90999 17.2642 5.13634 17.2641C5.78778 17.2642 6.38397 16.8293 6.56045 16.17V16.17Z" fill="#FFD469"/>
<path d="M39.2861 10.6477C21.3295 10.6477 6.77344 25.2038 6.77344 43.1603C6.77344 61.1169 21.3295 75.6743 39.2861 75.6743C57.2427 75.6743 71.7987 61.1169 71.7987 43.1603C71.7987 25.2038 57.2427 10.6477 39.2861 10.6477Z" fill="#FF6E83"/>
<path d="M12.8545 43.1607C12.8545 57.7353 24.7119 69.5926 39.2864 69.5926C53.8609 69.5926 65.7169 57.7351 65.7169 43.1607C65.7169 28.5862 53.8609 16.7288 39.2864 16.7288C24.7119 16.7288 12.8545 28.5862 12.8545 43.1607Z" fill="#F9F9F8"/>
<path d="M39.2858 45.1849H58.1878C59.1255 45.1849 59.8868 44.4237 59.8868 43.4847C59.8868 42.5471 59.1255 41.7859 58.1878 41.7859H39.2858C38.3468 41.7859 37.5854 42.5472 37.5854 43.4847C37.5854 44.4236 38.3468 45.1849 39.2858 45.1849Z" fill="#6B8DA1"/>
<path d="M39.2858 45.1849C40.2248 45.1849 40.9861 44.4238 40.9861 43.4847V24.9884C40.9861 24.0494 40.2248 23.2881 39.2858 23.2881C38.3468 23.2881 37.5854 24.0494 37.5854 24.9884V43.4846C37.5854 44.4236 38.3468 45.1849 39.2858 45.1849" fill="#6B8DA1"/>
</svg>
