<svg width="78" height="79" viewBox="0 0 78 79" fill="none" xmlns="http://www.w3.org/2000/svg">
<g filter="url(#filter0_d_110_922)">
<circle cx="34.9028" cy="34.3167" r="26.3167" fill="url(#paint0_linear_110_922)"/>
</g>
<path d="M37.6618 20.1726H32.4607C26.3848 20.1726 21.4592 25.0981 21.4592 31.1741V35.8519C21.4592 41.9279 26.3848 46.8534 32.4607 46.8534H37.6618C43.7377 46.8534 48.6633 41.9279 48.6633 35.8519V31.1741C48.6633 25.0981 43.7377 20.1726 37.6618 20.1726Z" fill="white"/>
<path fill-rule="evenodd" clip-rule="evenodd" d="M36.2888 20.1726H37.6618C43.7376 20.1726 48.6632 25.0982 48.6632 31.1741V35.8521C48.6632 36.0048 48.6601 36.157 48.6539 36.3085C47.615 36.6523 46.5063 36.8381 45.3546 36.8381C39.4668 36.8381 34.6936 31.979 34.6936 25.985C34.6936 23.8885 35.2775 21.8879 36.2888 20.1726Z" fill="#FFD374"/>
<path d="M31.6319 19.3148C29.8112 17.1317 19.7173 21.0108 20.3582 23.8488C20.9991 26.6868 24.8922 32.6717 27.9557 30.8336C31.0192 28.9955 33.4527 21.4979 31.6319 19.3148Z" fill="#F8B930"/>
<path d="M38.0376 19.3148C39.8584 17.1317 49.9523 21.0108 49.3114 23.8488C48.6705 26.6868 44.7774 32.6717 41.7139 30.8336C38.6503 28.9955 36.2168 21.4979 38.0376 19.3148Z" fill="#F8B930"/>
<path d="M41.0182 34.7274C40.0445 34.7274 39.2551 33.9381 39.2551 32.9643C39.2551 31.9906 40.0445 31.2012 41.0182 31.2012C41.992 31.2012 42.7814 31.9906 42.7814 32.9643C42.7814 33.9381 41.992 34.7274 41.0182 34.7274Z" fill="#3A211F"/>
<path d="M41.7027 32.9653C41.4863 32.9653 41.3109 32.7898 41.3109 32.5734C41.3109 32.3571 41.4863 32.1816 41.7027 32.1816C41.9191 32.1816 42.0945 32.3571 42.0945 32.5734C42.0945 32.7898 41.9191 32.9653 41.7027 32.9653Z" fill="white"/>
<path d="M31.0174 33.8972C31.0174 33.6397 30.9667 33.3847 30.8681 33.1469C30.7696 32.909 30.6252 32.6928 30.4431 32.5108C30.261 32.3287 30.0449 32.1843 29.807 32.0858C29.5692 31.9872 29.3142 31.9365 29.0567 31.9365C28.7992 31.9365 28.5443 31.9872 28.3064 32.0858C28.0685 32.1843 27.8524 32.3287 27.6703 32.5108C27.4883 32.6928 27.3438 32.909 27.2453 33.1469C27.1468 33.3847 27.0961 33.6397 27.0961 33.8972" stroke="#3A211F" stroke-width="0.612703" stroke-linecap="round" stroke-linejoin="round"/>
<path d="M34.9297 44.1905C38.9853 44.1905 42.2731 42.0508 42.2731 39.4114C42.2731 36.772 38.9853 34.6323 34.9297 34.6323C30.874 34.6323 27.5862 36.772 27.5862 39.4114C27.5862 42.0508 30.874 44.1905 34.9297 44.1905Z" fill="#F2F2F2"/>
<path d="M35.0612 36.9636V38.9324C35.0612 39.5755 35.5823 40.0967 36.2253 40.0967H36.3879C36.9411 40.0967 37.3894 39.6482 37.3894 39.0951" stroke="#3A211F" stroke-width="0.612703" stroke-linecap="round" stroke-linejoin="round"/>
<path d="M35.0612 36.9636V38.9324C35.0612 39.5755 34.54 40.0967 33.897 40.0967H33.7344C33.1813 40.0967 32.7329 39.6482 32.7329 39.0951" stroke="#3A211F" stroke-width="0.612703" stroke-linecap="round" stroke-linejoin="round"/>
<path d="M36.7438 36.6655C36.7438 36.2194 35.9905 35.8577 35.0612 35.8577C34.132 35.8577 33.3787 36.2194 33.3787 36.6655C33.3787 37.1115 34.132 38.1712 35.0612 38.1712C35.9905 38.1712 36.7438 37.1115 36.7438 36.6655Z" fill="#3A211F"/>
<path d="M34.1149 36.9095C34.2892 36.9095 34.4304 36.7683 34.4304 36.594C34.4304 36.4198 34.2892 36.2786 34.1149 36.2786C33.9407 36.2786 33.7994 36.4198 33.7994 36.594C33.7994 36.7683 33.9407 36.9095 34.1149 36.9095Z" fill="white"/>
<path d="M27.021 37.8183C28.0623 37.8183 28.9065 37.3245 28.9065 36.7154C28.9065 36.1063 28.0623 35.6125 27.021 35.6125C25.9796 35.6125 25.1354 36.1063 25.1354 36.7154C25.1354 37.3245 25.9796 37.8183 27.021 37.8183Z" fill="#FEB1AA"/>
<path d="M42.5557 37.8183C43.5971 37.8183 44.4413 37.3245 44.4413 36.7154C44.4413 36.1063 43.5971 35.6125 42.5557 35.6125C41.5144 35.6125 40.6702 36.1063 40.6702 36.7154C40.6702 37.3245 41.5144 37.8183 42.5557 37.8183Z" fill="#FEB1AA"/>
<path d="M31.063 49.6518L31.0639 49.6509C31.7564 49.6538 32.35 49.1609 32.4742 48.4801L37.7967 48.4882C37.9457 49.2678 38.6983 49.7812 39.4776 49.6349C40.2567 49.4886 40.7677 48.7377 40.6187 47.9581C40.5626 47.665 40.417 47.3964 40.2018 47.1895C40.4859 46.9214 40.6464 46.5476 40.6454 46.1562C40.6624 45.3632 40.0327 44.7044 39.2397 44.685C38.5241 44.6674 37.9065 45.1793 37.7914 45.8852L32.4698 45.8764C32.3208 45.0965 31.5683 44.5831 30.789 44.7294C30.0098 44.8759 29.4989 45.6266 29.6479 46.4065C29.7039 46.6993 29.8496 46.9679 30.0648 47.175C29.4921 47.7221 29.4729 48.6313 30.022 49.206C30.2938 49.4906 30.6701 49.6516 31.063 49.6518Z" fill="#D3D3D3"/>
<defs>
<filter id="filter0_d_110_922" x="0.0169049" y="0.859037" width="77.3888" height="77.3886" filterUnits="userSpaceOnUse" color-interpolation-filters="sRGB">
<feFlood flood-opacity="0" result="BackgroundImageFix"/>
<feColorMatrix in="SourceAlpha" type="matrix" values="0 0 0 0 0 0 0 0 0 0 0 0 0 0 0 0 0 0 127 0" result="hardAlpha"/>
<feMorphology radius="0.476064" operator="dilate" in="SourceAlpha" result="effect1_dropShadow_110_922"/>
<feOffset dx="3.80851" dy="5.23671"/>
<feGaussianBlur stdDeviation="5.9508"/>
<feComposite in2="hardAlpha" operator="out"/>
<feColorMatrix type="matrix" values="0 0 0 0 0.383333 0 0 0 0 0.383333 0 0 0 0 0.383333 0 0 0 0.13 0"/>
<feBlend mode="normal" in2="BackgroundImageFix" result="effect1_dropShadow_110_922"/>
<feBlend mode="normal" in="SourceGraphic" in2="effect1_dropShadow_110_922" result="shape"/>
</filter>
<linearGradient id="paint0_linear_110_922" x1="34.9028" y1="8" x2="34.9028" y2="60.6334" gradientUnits="userSpaceOnUse">
<stop stop-color="#97B4FF"/>
<stop offset="1" stop-color="#DAE4FF"/>
</linearGradient>
</defs>
</svg>
