<svg width="78" height="79" viewBox="0 0 78 79" fill="none" xmlns="http://www.w3.org/2000/svg">
<g filter="url(#filter0_d_110_923)">
<circle cx="35.1846" cy="34.3167" r="26.3167" fill="url(#paint0_linear_110_923)"/>
</g>
<path d="M41.9913 19.2795C37.6184 24.3363 36.7736 27.3564 35.8451 34.5742" stroke="#5EA985" stroke-width="0.479202" stroke-linecap="round"/>
<path d="M42.4361 17.3392C42.1184 17.6568 41.8883 18.0803 41.7238 18.4958C41.4391 19.2141 42.1132 19.8355 42.813 19.5081C43.2072 19.3237 43.6096 19.0812 43.9203 18.7707C44.2209 18.4705 44.458 18.0847 44.6404 17.7034C44.9793 16.9951 44.3398 16.3156 43.6125 16.6112C43.1869 16.7842 42.7549 17.0208 42.4361 17.3392Z" fill="#5EA985"/>
<path d="M41.3277 20.907C41.011 20.9438 40.6901 21.0529 40.4082 21.1779C40.0002 21.359 40.0605 21.8783 40.4993 21.961C40.8022 22.018 41.1395 22.0506 41.4562 22.0138C41.773 21.9769 42.0941 21.8678 42.3757 21.7428C42.7838 21.5618 42.7234 21.0424 42.2846 20.9598C41.9819 20.9027 41.6444 20.8702 41.3277 20.907Z" fill="#5EA985"/>
<path d="M39.3899 20.4293C39.4334 20.7452 39.5489 21.0638 39.6798 21.3428C39.8693 21.7471 40.3872 21.676 40.4608 21.2357C40.5116 20.9318 40.5373 20.5938 40.4939 20.2779C40.4504 19.9619 40.3349 19.6433 40.204 19.3643C40.0148 18.9601 39.4966 19.0311 39.4229 19.4714C39.3722 19.7753 39.3467 20.1134 39.3899 20.4293Z" fill="#5EA985"/>
<path d="M39.7072 23.405C39.3905 23.4418 39.0696 23.551 38.788 23.676C38.3799 23.857 38.4403 24.3764 38.879 24.459C39.1818 24.516 39.5193 24.5486 39.836 24.5118C40.1528 24.475 40.4737 24.3658 40.7552 24.2409C41.1633 24.0598 41.1029 23.5405 40.6642 23.4578C40.3615 23.4008 40.0239 23.3682 39.7072 23.405Z" fill="#5EA985"/>
<path d="M37.5309 23.2693C37.6489 23.5655 37.8379 23.847 38.0318 24.0864C38.3129 24.4332 38.7986 24.2397 38.7642 23.7946C38.7404 23.4874 38.684 23.1531 38.5661 22.8569C38.4481 22.5607 38.2591 22.2792 38.0651 22.0398C37.7841 21.693 37.2984 21.8865 37.3328 22.3316C37.3565 22.6388 37.4129 22.9731 37.5309 23.2693Z" fill="#5EA985"/>
<path d="M38.2844 26.1473C37.971 26.2059 37.6583 26.3369 37.386 26.481C36.9914 26.6898 37.0874 27.2037 37.5308 27.2559C37.8367 27.2919 38.1756 27.3012 38.4891 27.2426C38.8025 27.1841 39.1152 27.0531 39.3876 26.909C39.7821 26.7002 39.6861 26.1863 39.2428 26.1341C38.9368 26.0981 38.5979 26.0888 38.2844 26.1473Z" fill="#5EA985"/>
<path d="M36.3316 26.172C36.491 26.4482 36.7184 26.6997 36.9447 26.9087C37.2727 27.2116 37.7256 26.9504 37.6276 26.5148C37.56 26.2142 37.4562 25.8915 37.2968 25.6153C37.1375 25.3391 36.9101 25.0877 36.6838 24.8786C36.3558 24.5757 35.9029 24.837 36.0009 25.2725C36.0685 25.5731 36.1723 25.8958 36.3316 26.172Z" fill="#5EA985"/>
<path d="M37.5306 29.0664C37.2232 29.1512 36.9226 29.308 36.6634 29.4744C36.2877 29.7156 36.4266 30.2197 36.8728 30.2344C37.1807 30.2446 37.5192 30.2254 37.8266 30.1407C38.134 30.056 38.4346 29.8992 38.6938 29.7327C39.0695 29.4915 38.9306 28.9875 38.4844 28.9727C38.1765 28.9625 37.838 28.9818 37.5306 29.0664Z" fill="#5EA985"/>
<path d="M35.3284 29.4139C35.5193 29.6694 35.7748 29.8921 36.0242 30.073C36.3857 30.335 36.8046 30.022 36.6558 29.6011C36.5531 29.3106 36.4119 29.0024 36.221 28.747C36.0301 28.4915 35.7746 28.2687 35.5251 28.088C35.1637 27.826 34.7448 28.1389 34.8936 28.5598C34.9963 28.8503 35.1375 29.1585 35.3284 29.4139Z" fill="#5EA985"/>
<path d="M44.4301 22.0625C40.3234 27.3377 39.6353 30.3974 39.0797 37.6534" stroke="#5EA985" stroke-width="0.479202" stroke-linecap="round"/>
<path d="M44.7747 20.1019C44.4736 20.4354 44.2659 20.8701 44.1228 21.2936C43.8755 22.0256 44.5808 22.6114 45.2627 22.2485C45.6468 22.044 46.0364 21.7812 46.3307 21.455C46.6154 21.1398 46.8322 20.7422 46.9949 20.3521C47.2968 19.6272 46.6232 18.9815 45.912 19.3143C45.4958 19.5089 45.0768 19.7675 44.7747 20.1019Z" fill="#5EA985"/>
<path d="M43.8513 23.7218C43.5369 23.7749 43.222 23.9004 42.9472 24.0397C42.549 24.2415 42.6362 24.7571 43.0784 24.817C43.3839 24.8584 43.7225 24.8736 44.0369 24.8205C44.3512 24.7674 44.6661 24.6419 44.941 24.5026C45.3392 24.3007 45.2522 23.7852 44.8098 23.7252C44.5045 23.6839 44.1657 23.6687 43.8513 23.7218Z" fill="#5EA985"/>
<path d="M41.8917 23.3445C41.9513 23.6578 42.0832 23.9701 42.2282 24.2419C42.4382 24.6359 42.952 24.5383 43.0027 24.0947C43.0378 23.7886 43.0459 23.4497 42.9866 23.1365C42.927 22.8232 42.795 22.5109 42.6501 22.2391C42.44 21.8451 41.9263 21.9427 41.8756 22.3862C41.8404 22.6924 41.8324 23.0313 41.8917 23.3445Z" fill="#5EA985"/>
<path d="M42.3622 26.2999C42.0479 26.353 41.7327 26.4785 41.4581 26.6178C41.0597 26.8197 41.1469 27.3352 41.5893 27.3951C41.8946 27.4365 42.2332 27.4517 42.5475 27.3986C42.8622 27.3455 43.1771 27.22 43.4519 27.0807C43.8501 26.8788 43.7629 26.3633 43.3205 26.3033C43.0152 26.262 42.6766 26.2468 42.3622 26.2999Z" fill="#5EA985"/>
<path d="M40.1816 26.2765C40.3148 26.5663 40.5178 26.8377 40.7239 27.0667C41.0225 27.3986 41.4977 27.1804 41.4404 26.7377C41.4009 26.4321 41.3272 26.1011 41.1942 25.8114C41.0612 25.5216 40.858 25.2503 40.6519 25.0212C40.3534 24.6893 39.8781 24.9075 39.9354 25.3503C39.975 25.6558 40.0486 25.9868 40.1816 26.2765Z" fill="#5EA985"/>
<path d="M41.0823 29.1119C40.772 29.1865 40.4665 29.3334 40.2021 29.4914C39.8188 29.7202 39.9411 30.2285 40.3866 30.2578C40.694 30.278 41.0328 30.2698 41.343 30.1952C41.653 30.1206 41.9585 29.9737 42.2229 29.8157C42.6063 29.5869 42.484 29.0786 42.0384 29.0493C41.7311 29.0291 41.3922 29.0373 41.0823 29.1119Z" fill="#5EA985"/>
<path d="M39.1333 29.237C39.3067 29.5047 39.5467 29.7441 39.7835 29.9412C40.1265 30.2268 40.5655 29.9426 40.445 29.5126C40.362 29.2159 40.2418 28.899 40.0685 28.6313C39.8951 28.3637 39.6552 28.1243 39.4184 27.9272C39.0752 27.6416 38.6364 27.9258 38.7566 28.3558C38.8397 28.6525 38.9599 28.9694 39.1333 29.237Z" fill="#5EA985"/>
<path d="M40.4796 32.0657C40.1769 32.1661 39.885 32.3382 39.6346 32.5178C39.2718 32.778 39.4365 33.2742 39.8829 33.266C40.1907 33.2603 40.528 33.2237 40.8304 33.1233C41.1331 33.0228 41.4254 32.8508 41.6757 32.6712C42.0382 32.4109 41.8738 31.9147 41.4274 31.923C41.1193 31.9286 40.7823 31.9653 40.4796 32.0657Z" fill="#5EA985"/>
<path d="M38.2986 32.5262C38.5023 32.7714 38.769 32.9808 39.0274 33.1485C39.4019 33.3915 39.8039 33.0574 39.6337 32.6447C39.5164 32.3599 39.3594 32.0594 39.1556 31.8141C38.9519 31.5689 38.6852 31.3595 38.4267 31.1918C38.0522 30.9488 37.6501 31.2829 37.8204 31.6956C37.9379 31.9804 38.0948 32.2809 38.2986 32.5262Z" fill="#5EA985"/>
<path d="M21.9452 24.2942C20.1777 25.7498 24.1055 35.8813 24.1055 35.8813L32.2557 29.4004C32.2557 29.4004 23.6145 22.9195 21.9452 24.2942Z" fill="#C4C4C4"/>
<path d="M21.9452 24.2942C20.1777 25.7498 24.1055 35.8813 24.1055 35.8813L32.2557 29.4004C32.2557 29.4004 23.6145 22.9195 21.9452 24.2942Z" fill="#EF8F35"/>
<path fill-rule="evenodd" clip-rule="evenodd" d="M22.6727 31.6934C21.7689 28.721 20.9449 25.118 21.9453 24.2942C22.8423 23.5555 25.7521 25.0849 28.2528 26.6582C26.0036 25.7425 23.7457 25.0923 22.9529 25.7452C22.0683 26.4737 22.238 29.0963 22.6727 31.6934Z" fill="#C4C4C4"/>
<path fill-rule="evenodd" clip-rule="evenodd" d="M22.6727 31.6934C21.7689 28.721 20.9449 25.118 21.9453 24.2942C22.8423 23.5555 25.7521 25.0849 28.2528 26.6582C26.0036 25.7425 23.7457 25.0923 22.9529 25.7452C22.0683 26.4737 22.238 29.0963 22.6727 31.6934Z" fill="#542016"/>
<path d="M46.9165 24.2942C48.6842 25.7498 44.7562 35.8813 44.7562 35.8813L36.6061 29.4004C36.6061 29.4004 45.2473 22.9195 46.9165 24.2942Z" fill="#C4C4C4"/>
<path d="M46.9165 24.2942C48.6842 25.7498 44.7562 35.8813 44.7562 35.8813L36.6061 29.4004C36.6061 29.4004 45.2473 22.9195 46.9165 24.2942Z" fill="#EF8F35"/>
<path fill-rule="evenodd" clip-rule="evenodd" d="M46.1891 31.6933C47.093 28.721 47.9169 25.118 46.9165 24.2942C46.0194 23.5555 43.1096 25.0849 40.6089 26.6582C42.8582 25.7425 45.1161 25.0923 45.9088 25.7452C46.7934 26.4737 46.6237 29.0962 46.1891 31.6933Z" fill="#C4C4C4"/>
<path fill-rule="evenodd" clip-rule="evenodd" d="M46.1891 31.6933C47.093 28.721 47.9169 25.118 46.9165 24.2942C46.0194 23.5555 43.1096 25.0849 40.6089 26.6582C42.8582 25.7425 45.1161 25.0923 45.9088 25.7452C46.7934 26.4737 46.6237 29.0962 46.1891 31.6933Z" fill="#542016"/>
<path d="M36.7383 23.1225C37.2581 23.3529 37.5435 23.9947 37.3756 24.5562L36.5446 27.3355C36.3844 27.8712 35.8695 28.1401 35.371 27.9635C35.2518 28.1634 35.0776 28.3279 34.8636 28.4227C34.3438 28.6531 33.7862 28.3846 33.6184 27.8232L32.7874 25.0439C32.6195 24.4825 32.9049 23.8406 33.4247 23.6103C33.9445 23.38 34.502 23.6484 34.6699 24.2098L35.0086 25.3424L35.493 23.7221C35.6609 23.1606 36.2184 22.8922 36.7383 23.1225Z" fill="#EF8F35"/>
<path d="M22.0742 41.8443C22.0614 41.812 22.0368 41.786 22.0056 41.7719C19.7993 40.7799 17.9709 38.6693 17.6514 37.7498C17.6245 37.6725 17.6849 37.5991 17.7652 37.5991C19.1063 37.5984 19.4277 37.5804 20.4927 37.0799C20.5758 37.0409 20.5934 36.928 20.5261 36.8647L19.4887 35.889C19.3992 35.805 19.4639 35.6418 19.5854 35.633C20.0748 35.5981 20.6798 35.4487 21.337 35.2283C21.3817 35.2134 21.4147 35.1741 21.4234 35.127C22.4462 29.5794 27.2197 25.3823 32.9539 25.3823H36.3063C41.9169 25.3823 46.6076 29.4003 47.7654 34.77C47.7746 34.8129 47.8042 34.8488 47.8443 34.8647C48.8718 35.2775 49.8516 35.5814 50.5774 35.633C50.699 35.6418 50.7635 35.805 50.674 35.889L49.6366 36.8647C49.5692 36.928 49.5869 37.0409 49.6699 37.0799C50.7351 37.5804 51.0565 37.5984 52.3976 37.5991C52.4777 37.5991 52.5384 37.6717 52.5116 37.749C52.1441 38.809 49.7673 41.4557 47.1185 42.1415C47.0794 42.1516 47.0472 42.1795 47.0308 42.217C45.2038 46.4051 41.0893 49.3251 36.3063 49.3251H32.9539C28.0303 49.3251 23.815 46.2308 22.0742 41.8443Z" fill="#EF8F35"/>
<path d="M25.1921 40.4244C26.4857 40.4244 27.5343 39.7953 27.5343 39.0191C27.5343 38.243 26.4857 37.6138 25.1921 37.6138C23.8985 37.6138 22.8499 38.243 22.8499 39.0191C22.8499 39.7953 23.8985 40.4244 25.1921 40.4244Z" fill="#FF6E41"/>
<path d="M43.9299 40.4244C45.2235 40.4244 46.2721 39.7953 46.2721 39.0191C46.2721 38.243 45.2235 37.6138 43.9299 37.6138C42.6363 37.6138 41.5876 38.243 41.5876 39.0191C41.5876 39.7953 42.6363 40.4244 43.9299 40.4244Z" fill="#FF6E41"/>
<path fill-rule="evenodd" clip-rule="evenodd" d="M47.0894 42.153C47.0639 42.1668 47.0431 42.1892 47.0311 42.2168C45.2039 46.4049 41.0894 49.3249 36.3065 49.3249H32.9542C28.0323 49.3249 23.8183 46.2329 22.0763 41.8488C24.6337 38.9582 29.6934 37.0933 34.5613 37.0933C39.5979 37.0933 44.7011 39.0896 47.0894 42.153Z" fill="#FFCEB9"/>
<path d="M26.8579 37.8739C25.938 37.8739 25.1923 36.9418 25.1923 35.7919C25.1923 34.6421 25.938 33.71 26.8579 33.71C27.7777 33.71 28.5234 34.6421 28.5234 35.7919C28.5234 36.9418 27.7777 37.8739 26.8579 37.8739Z" fill="#542016"/>
<path d="M27.2742 35.7921C26.9293 35.7921 26.6496 35.4659 26.6496 35.0634C26.6496 34.661 26.9293 34.3347 27.2742 34.3347C27.6192 34.3347 27.8988 34.661 27.8988 35.0634C27.8988 35.4659 27.6192 35.7921 27.2742 35.7921Z" fill="white"/>
<path d="M26.3376 36.4168C26.1651 36.4168 26.0253 36.277 26.0253 36.1045C26.0253 35.9321 26.1651 35.7922 26.3376 35.7922C26.5101 35.7922 26.6499 35.9321 26.6499 36.1045C26.6499 36.277 26.5101 36.4168 26.3376 36.4168Z" fill="white"/>
<path d="M42.9933 37.8739C42.0735 37.8739 41.3278 36.9418 41.3278 35.7919C41.3278 34.6421 42.0735 33.71 42.9933 33.71C43.9132 33.71 44.6589 34.6421 44.6589 35.7919C44.6589 36.9418 43.9132 37.8739 42.9933 37.8739Z" fill="#542016"/>
<path d="M43.4095 35.7921C43.0645 35.7921 42.7849 35.4659 42.7849 35.0634C42.7849 34.661 43.0645 34.3347 43.4095 34.3347C43.7544 34.3347 44.0341 34.661 44.0341 35.0634C44.0341 35.4659 43.7544 35.7921 43.4095 35.7921Z" fill="white"/>
<path d="M42.4731 36.4168C42.3006 36.4168 42.1608 36.277 42.1608 36.1045C42.1608 35.9321 42.3006 35.7922 42.4731 35.7922C42.6456 35.7922 42.7854 35.9321 42.7854 36.1045C42.7854 36.277 42.6456 36.4168 42.4731 36.4168Z" fill="white"/>
<path d="M35.2077 38.0198C35.2077 37.8591 35.0774 37.7288 34.9167 37.7288C34.7559 37.7288 34.6256 37.8591 34.6256 38.0198V39.9525C34.6256 40.1133 34.7559 40.2436 34.9167 40.2436C35.0774 40.2436 35.2077 40.1133 35.2077 39.9525V38.0198Z" fill="#542016"/>
<path d="M34.9045 38.6547C35.9977 38.6547 36.8838 38.0721 36.8838 37.3535C36.8838 36.6348 35.9977 36.0522 34.9045 36.0522C33.8114 36.0522 32.9253 36.6348 32.9253 37.3535C32.9253 38.0721 33.8114 38.6547 34.9045 38.6547Z" fill="#542016"/>
<path d="M33.8917 37.1001C34.0654 37.1001 34.2061 36.9594 34.2061 36.7858C34.2061 36.6122 34.0654 36.4714 33.8917 36.4714C33.7181 36.4714 33.5774 36.6122 33.5774 36.7858C33.5774 36.9594 33.7181 37.1001 33.8917 37.1001Z" fill="white"/>
<path d="M32.7393 39.5608C33.7871 40.5039 36.1156 40.5039 37.1635 39.5608" stroke="#542016" stroke-width="0.582133" stroke-linecap="round"/>
<path d="M41.8095 26.5462C41.8399 26.5207 41.8693 26.4935 41.8974 26.4646C42.3812 25.9713 42.3765 25.1819 41.8865 24.7013C41.3964 24.2208 40.6071 24.231 40.1233 24.7243C40.0765 24.7722 40.034 24.8228 39.9963 24.8757C39.8761 24.407 39.4966 24.0285 38.9997 23.9418C38.3272 23.8245 37.694 24.2857 37.5853 24.9719C37.5273 25.3377 37.6302 25.6936 37.8407 25.964C37.7896 25.9669 37.7381 25.9729 37.6864 25.9821C37.0024 26.1039 36.5535 26.7459 36.6837 27.416C36.8139 28.0861 37.4739 28.5304 38.1579 28.4086C38.1948 28.402 38.2311 28.3939 38.2666 28.3844C38.2577 28.42 38.2503 28.4564 38.2444 28.4934C38.1357 29.1796 38.5927 29.831 39.2653 29.9482C39.9378 30.0655 40.5709 29.6043 40.6795 28.9181C40.6891 28.8572 40.6943 28.7965 40.6953 28.7365C40.9553 28.8975 41.2746 28.9674 41.5994 28.9095C42.2834 28.7876 42.7323 28.1456 42.6022 27.4755C42.5171 27.0378 42.2058 26.6963 41.8095 26.5462Z" fill="#F6D384"/>
<path d="M38.9359 27.251C39.1206 27.7346 39.6623 27.977 40.146 27.7923C40.6296 27.6077 40.872 27.0659 40.6874 26.5823C40.5027 26.0986 39.961 25.8562 39.4773 26.0409C38.9937 26.2255 38.7513 26.7673 38.9359 27.251Z" fill="white" fill-opacity="0.6"/>
<defs>
<filter id="filter0_d_110_923" x="0.298765" y="0.859037" width="77.3888" height="77.3886" filterUnits="userSpaceOnUse" color-interpolation-filters="sRGB">
<feFlood flood-opacity="0" result="BackgroundImageFix"/>
<feColorMatrix in="SourceAlpha" type="matrix" values="0 0 0 0 0 0 0 0 0 0 0 0 0 0 0 0 0 0 127 0" result="hardAlpha"/>
<feMorphology radius="0.476064" operator="dilate" in="SourceAlpha" result="effect1_dropShadow_110_923"/>
<feOffset dx="3.80851" dy="5.23671"/>
<feGaussianBlur stdDeviation="5.9508"/>
<feComposite in2="hardAlpha" operator="out"/>
<feColorMatrix type="matrix" values="0 0 0 0 0.383333 0 0 0 0 0.383333 0 0 0 0 0.383333 0 0 0 0.13 0"/>
<feBlend mode="normal" in2="BackgroundImageFix" result="effect1_dropShadow_110_923"/>
<feBlend mode="normal" in="SourceGraphic" in2="effect1_dropShadow_110_923" result="shape"/>
</filter>
<linearGradient id="paint0_linear_110_923" x1="35.1846" y1="8" x2="35.1846" y2="60.6334" gradientUnits="userSpaceOnUse">
<stop stop-color="#FFAAB6"/>
<stop offset="1" stop-color="#FFE0E5"/>
</linearGradient>
</defs>
</svg>
