<svg width="79" height="79" viewBox="0 0 79 79" fill="none" xmlns="http://www.w3.org/2000/svg">
<g filter="url(#filter0_d_110_925)">
<path d="M9 34.4216C9 19.8293 20.8293 8 35.4216 8C50.0138 8 61.8431 19.8293 61.8431 34.4216C61.8431 49.0138 50.0138 60.8431 35.4216 60.8431C20.8293 60.8431 9 49.0138 9 34.4216Z" fill="url(#paint0_linear_110_925)"/>
<path d="M32.0049 31.5735C32.6672 30.9367 32.9673 30.1421 32.6956 29.0959C31.8121 25.6943 24.8202 21.2226 20.8188 22.5253C16.8175 23.8281 14.6884 27.3409 15.5718 30.7424C15.7706 31.5076 16.125 32.1868 16.6006 32.7651C16.3633 33.6544 16.3788 34.5183 16.6945 35.2792C17.0484 36.1321 17.7341 36.7459 18.6336 37.1068C18.3747 37.8588 18.3484 38.5704 18.6007 39.1786C19.4592 41.2474 23.2187 41.3309 26.9979 39.3653C30.7771 37.3995 33.1447 34.1286 32.2862 32.0597C32.213 31.8832 32.1186 31.7211 32.0049 31.5735Z" fill="#C4C4C4"/>
<path d="M38.9484 31.5735C38.2861 30.9367 37.986 30.1421 38.2577 29.0959C39.1411 25.6943 46.133 21.2226 50.1343 22.5253C54.1357 23.8281 56.2648 27.3409 55.3815 30.7424C55.1826 31.5076 54.8284 32.1868 54.3526 32.7651C54.5899 33.6544 54.5746 34.5183 54.2588 35.2792C53.9048 36.1321 53.2192 36.7459 52.3198 37.1068C52.5787 37.8588 52.6049 38.5704 52.3527 39.1786C51.494 41.2474 47.7345 41.3309 43.9554 39.3653C40.1762 37.3995 37.8085 34.1286 38.667 32.0597C38.7403 31.8832 38.8347 31.7211 38.9484 31.5735Z" fill="#C4C4C4"/>
<path d="M23.5874 37.2973C26.5577 37.2973 28.9657 34.6416 28.9657 31.3657C28.9657 28.0897 26.5577 25.4341 23.5874 25.4341C20.617 25.4341 18.209 28.0897 18.209 31.3657C18.209 34.6416 20.617 37.2973 23.5874 37.2973Z" fill="#EAEAEA"/>
<path d="M47.3276 37.2973C50.298 37.2973 52.706 34.6416 52.706 31.3657C52.706 28.0897 50.298 25.4341 47.3276 25.4341C44.3572 25.4341 41.9492 28.0897 41.9492 31.3657C41.9492 34.6416 44.3572 37.2973 47.3276 37.2973Z" fill="#EAEAEA"/>
<path d="M47.6601 35.304C47.6601 41.1533 47.6632 45.66 35.5513 45.66C23.4394 45.66 23.1407 41.1533 23.1407 35.304C23.1407 29.4546 28.9743 21.9021 35.6635 21.9021C42.3527 21.9021 47.6601 29.4546 47.6601 35.304Z" fill="#C4C4C4"/>
<path d="M30.0539 35.4162C30.6068 35.4162 31.055 34.968 31.055 34.4151C31.055 33.8623 30.6068 33.4141 30.0539 33.4141C29.501 33.4141 29.0529 33.8623 29.0529 34.4151C29.0529 34.968 29.501 35.4162 30.0539 35.4162Z" fill="#606060"/>
<path d="M41.0655 35.4162C41.6184 35.4162 42.0666 34.968 42.0666 34.4151C42.0666 33.8623 41.6184 33.4141 41.0655 33.4141C40.5126 33.4141 40.0645 33.8623 40.0645 34.4151C40.0645 34.968 40.5126 35.4162 41.0655 35.4162Z" fill="#606060"/>
<path d="M35.7811 36.8269V38.5021C35.7811 39.259 36.3948 39.8728 37.1518 39.8728H37.5487C38.0865 39.8728 38.5224 39.4369 38.5224 38.899" stroke="#606060" stroke-width="0.782321" stroke-linecap="round" stroke-linejoin="round"/>
<path d="M35.7812 36.8269V38.5021C35.7812 39.259 35.1676 39.8728 34.4106 39.8728H34.0136C33.4758 39.8728 33.0399 39.4369 33.0399 38.899" stroke="#606060" stroke-width="0.782321" stroke-linecap="round" stroke-linejoin="round"/>
<path d="M38.1842 35.7912C38.1842 37.2042 38.6901 38.3498 35.7812 38.3498C32.8723 38.3498 33.3782 37.2042 33.3782 35.7912C33.3782 34.3782 34.454 32.8672 35.7812 32.8672C37.1083 32.8672 38.1842 34.3782 38.1842 35.7912Z" fill="#606060"/>
<path d="M34.7152 34.9995C34.9675 34.9995 35.1721 34.7949 35.1721 34.5426C35.1721 34.2902 34.9675 34.0857 34.7152 34.0857C34.4629 34.0857 34.2583 34.2902 34.2583 34.5426C34.2583 34.7949 34.4629 34.9995 34.7152 34.9995Z" fill="#FFEEEE"/>
<path d="M26.9482 40.482C28.1257 40.482 29.0803 39.5274 29.0803 38.3499C29.0803 37.1724 28.1257 36.2178 26.9482 36.2178C25.7706 36.2178 24.816 37.1724 24.816 38.3499C24.816 39.5274 25.7706 40.482 26.9482 40.482Z" fill="#FFCEB9"/>
<path d="M44.3097 40.482C45.4873 40.482 46.4419 39.5274 46.4419 38.3499C46.4419 37.1724 45.4873 36.2178 44.3097 36.2178C43.1322 36.2178 42.1776 37.1724 42.1776 38.3499C42.1776 39.5274 43.1322 40.482 44.3097 40.482Z" fill="#FFCEB9"/>
<path d="M24.4937 48.0487C30.7909 45.3963 34.7029 44.5523 41.7838 44.1484" stroke="#56392B" stroke-width="1.66419" stroke-linecap="round"/>
<path d="M42.6448 41.5933C41.4794 42.6761 40.8776 43.8263 41.3223 44.2308C41.767 44.6349 43.1428 44.1567 44.3082 43.0739C45.4735 41.9911 46.1299 40.2696 46.0583 40.2047C45.9867 40.1395 43.8101 40.5108 42.6448 41.5933Z" fill="#34876F"/>
<g style="mix-blend-mode:multiply">
<g style="mix-blend-mode:multiply">
<path fill-rule="evenodd" clip-rule="evenodd" d="M41.2233 44.0955C42.8035 42.6289 44.1857 41.5598 45.9021 40.3237C44.2701 41.5926 43.0465 42.7626 41.5166 44.2255C41.4892 44.252 41.4615 44.2785 41.4337 44.305C41.392 44.2849 41.3545 44.2599 41.3223 44.2307C41.2799 44.192 41.247 44.1469 41.2233 44.0955Z" fill="#34876F" fill-opacity="0.5"/>
</g>
</g>
<path d="M43.3124 46.4297C41.8726 45.7535 40.9491 44.8413 41.2494 44.3208C41.5497 43.8002 43.006 43.8365 44.4458 44.5129C45.8855 45.1891 47.0351 46.6289 46.9866 46.7127C46.9385 46.7964 44.7522 47.1059 43.3124 46.4297Z" fill="#34876F"/>
<g style="mix-blend-mode:multiply">
<g style="mix-blend-mode:multiply">
<path fill-rule="evenodd" clip-rule="evenodd" d="M41.1959 44.4796C43.148 45.3952 44.7901 45.9922 46.8013 46.6467C44.8604 45.9352 43.3384 45.1936 41.4356 44.2664C41.4015 44.2496 41.3671 44.2329 41.3324 44.2158C41.2989 44.2478 41.2709 44.2828 41.2489 44.3206C41.2203 44.3702 41.2029 44.4232 41.1959 44.4796Z" fill="#34876F" fill-opacity="0.5"/>
</g>
</g>
<path d="M35.833 42.3593C34.9052 43.3693 34.4663 44.3988 34.876 44.7159C35.2857 45.0333 36.4357 44.5282 37.3635 43.5185C38.2913 42.5085 38.7381 40.9844 38.6721 40.9332C38.6062 40.8823 36.7608 41.3496 35.833 42.3593Z" fill="#34876F"/>
<g style="mix-blend-mode:multiply">
<g style="mix-blend-mode:multiply">
<path fill-rule="evenodd" clip-rule="evenodd" d="M34.782 44.6062C36.0403 43.238 37.1554 42.2253 38.5462 41.0459C37.2301 42.2475 36.2581 43.3367 35.043 44.6979C35.0211 44.7226 34.9991 44.7473 34.977 44.7719C34.9398 44.7573 34.906 44.7387 34.8763 44.7156C34.8372 44.6854 34.8059 44.6489 34.782 44.6062Z" fill="#34876F" fill-opacity="0.5"/>
</g>
</g>
<path d="M36.4049 46.6556C35.1999 46.001 34.4511 45.1692 34.7359 44.7364C35.0206 44.3035 36.2722 44.4083 37.4772 45.0632C38.6822 45.7178 39.5988 47.015 39.553 47.0848C39.5071 47.1542 37.6099 47.3105 36.4049 46.6556Z" fill="#34876F"/>
<g style="mix-blend-mode:multiply">
<g style="mix-blend-mode:multiply">
<path fill-rule="evenodd" clip-rule="evenodd" d="M34.6825 44.8701C36.3163 45.7567 37.6994 46.3534 39.3973 47.0183C37.7629 46.308 36.4904 45.5929 34.8997 44.6989C34.871 44.6827 34.8422 44.6663 34.8133 44.6501C34.7828 44.676 34.7569 44.7047 34.7362 44.736C34.7091 44.7775 34.6914 44.8222 34.6825 44.8701Z" fill="#34876F" fill-opacity="0.5"/>
</g>
</g>
<path d="M29.6663 43.9734C28.9121 45.1217 28.6444 46.2106 29.1007 46.4579C29.5571 46.7055 30.6125 46.0205 31.3667 44.8722C32.1209 43.7239 32.3165 42.1446 32.243 42.105C32.1696 42.0651 30.4205 42.8251 29.6663 43.9734Z" fill="#34876F"/>
<g style="mix-blend-mode:multiply">
<g style="mix-blend-mode:multiply">
<path fill-rule="evenodd" clip-rule="evenodd" d="M28.9902 46.3652C30.0133 44.8093 30.9523 43.6278 32.1369 42.2371C31.0298 43.6379 30.2447 44.8714 29.2631 46.4136C29.2454 46.4416 29.2277 46.4693 29.2098 46.4973C29.1706 46.4891 29.1343 46.476 29.1011 46.458C29.0577 46.4346 29.0208 46.4032 28.9902 46.3652Z" fill="#34876F" fill-opacity="0.5"/>
</g>
</g>
<path d="M30.8396 48.1919C29.6324 47.5361 28.8822 46.7028 29.1675 46.269C29.4528 45.8353 30.7066 45.9407 31.9138 46.5965C33.1209 47.2523 34.0392 48.5519 33.9933 48.6217C33.9474 48.6914 32.0467 48.8477 30.8396 48.1919Z" fill="#34876F"/>
<g style="mix-blend-mode:multiply">
<g style="mix-blend-mode:multiply">
<path fill-rule="evenodd" clip-rule="evenodd" d="M29.1134 46.4033C30.7501 47.2915 32.1358 47.8894 33.8368 48.5555C32.1993 47.844 30.9246 47.1276 29.331 46.2318C29.3022 46.2157 29.2734 46.1992 29.2444 46.1831C29.2139 46.209 29.188 46.2376 29.1672 46.2693C29.1401 46.3104 29.1223 46.3555 29.1134 46.4033Z" fill="#34876F" fill-opacity="0.5"/>
</g>
</g>
<path d="M38.3053 26.7877C36.567 25.6659 35.535 24.3299 36.0126 23.711C36.4901 23.0921 38.3609 23.392 40.0992 24.5138C41.8374 25.6356 43.0688 27.691 42.9921 27.7906C42.9153 27.8902 40.0436 27.9094 38.3053 26.7877Z" fill="#34876F"/>
<g style="mix-blend-mode:multiply">
<g style="mix-blend-mode:multiply">
<path fill-rule="evenodd" clip-rule="evenodd" d="M35.917 23.9068C38.2739 25.4261 40.2868 26.4809 42.7654 27.6739C40.3875 26.4198 38.5545 25.1994 36.2632 23.6737C36.2219 23.6462 36.1804 23.6185 36.1387 23.5908C36.0899 23.6262 36.0478 23.6663 36.013 23.7113C35.9676 23.7702 35.9358 23.8357 35.917 23.9068Z" fill="#34876F" fill-opacity="0.5"/>
</g>
</g>
<path d="M33.2822 23.1881C34.5793 22.3511 35.3493 21.3542 34.993 20.8924C34.6367 20.4306 33.2408 20.6544 31.9438 21.4914C30.6467 22.3284 29.7278 23.8621 29.7851 23.9364C29.8425 24.0108 31.9852 24.0251 33.2822 23.1881Z" fill="#34876F"/>
<g style="mix-blend-mode:multiply">
<g style="mix-blend-mode:multiply">
<path fill-rule="evenodd" clip-rule="evenodd" d="M35.0647 21.0387C33.3061 22.1723 31.8041 22.9594 29.9547 23.8496C31.7291 22.9139 33.0967 22.0032 34.8064 20.8648C34.8373 20.8443 34.8682 20.8237 34.8993 20.803C34.9357 20.8293 34.9672 20.8593 34.9931 20.8929C35.027 20.9368 35.0507 20.9857 35.0647 21.0387Z" fill="#34876F" fill-opacity="0.5"/>
</g>
</g>
</g>
<defs>
<filter id="filter0_d_110_925" x="0.430845" y="0.859037" width="77.5985" height="77.5984" filterUnits="userSpaceOnUse" color-interpolation-filters="sRGB">
<feFlood flood-opacity="0" result="BackgroundImageFix"/>
<feColorMatrix in="SourceAlpha" type="matrix" values="0 0 0 0 0 0 0 0 0 0 0 0 0 0 0 0 0 0 127 0" result="hardAlpha"/>
<feMorphology radius="0.476064" operator="dilate" in="SourceAlpha" result="effect1_dropShadow_110_925"/>
<feOffset dx="3.80851" dy="5.23671"/>
<feGaussianBlur stdDeviation="5.9508"/>
<feComposite in2="hardAlpha" operator="out"/>
<feColorMatrix type="matrix" values="0 0 0 0 0.383333 0 0 0 0 0.383333 0 0 0 0 0.383333 0 0 0 0.13 0"/>
<feBlend mode="normal" in2="BackgroundImageFix" result="effect1_dropShadow_110_925"/>
<feBlend mode="normal" in="SourceGraphic" in2="effect1_dropShadow_110_925" result="shape"/>
</filter>
<linearGradient id="paint0_linear_110_925" x1="35.4216" y1="8" x2="35.4216" y2="60.8431" gradientUnits="userSpaceOnUse">
<stop stop-color="#FFDB8F"/>
<stop offset="1" stop-color="#FFEFCD"/>
</linearGradient>
</defs>
</svg>
