<svg width="79" height="79" viewBox="0 0 79 79" fill="none" xmlns="http://www.w3.org/2000/svg">
<g filter="url(#filter0_d_110_924)">
<circle cx="35.6833" cy="34.3167" r="26.3167" fill="url(#paint0_linear_110_924)"/>
</g>
<path fill-rule="evenodd" clip-rule="evenodd" d="M20.366 25.3177C20.366 27.4446 21.5506 29.2933 23.2927 30.2332C22.8701 31.4707 22.6407 32.7985 22.6407 34.1802C22.6407 40.8905 28.0512 46.3304 34.7253 46.3304H37.0001C43.6742 46.3304 49.0847 40.8905 49.0847 34.1802C49.0847 32.6925 48.8189 31.2673 48.3321 29.9499C49.8149 28.9494 50.7908 27.2481 50.7908 25.3177C50.7908 22.2388 48.3085 19.7429 45.2461 19.7429C43.1937 19.7429 41.4017 20.864 40.4432 22.5303C39.352 22.2048 38.1963 22.03 37.0001 22.03H34.7253C33.3511 22.03 32.0305 22.2606 30.7996 22.6855C29.8648 20.934 28.0261 19.7429 25.9107 19.7429C22.8484 19.7429 20.366 22.2388 20.366 25.3177Z" fill="#CA926A"/>
<path d="M22.8097 26.4045C21.6955 25.1426 21.7533 23.1979 22.9405 22.0087C24.1442 20.8028 26.065 20.8167 27.2522 22.0397L28.7484 23.5809C28.9212 23.7589 28.8946 24.0546 28.6962 24.2014C27.1728 25.329 26.1178 26.406 24.9424 28.0654C24.7902 28.2803 24.484 28.3007 24.3102 28.1039L22.8097 26.4045Z" fill="#ECC79F"/>
<path d="M48.3471 26.201C49.4614 24.9877 49.4033 23.1177 48.2163 21.9742C47.0125 20.8148 45.0918 20.8281 43.9045 22.004L42.4085 23.486C42.2356 23.6571 42.2621 23.9415 42.4606 24.0827C43.984 25.1669 45.0391 26.2024 46.2144 27.798C46.3665 28.0047 46.6727 28.0242 46.8465 27.835L48.3471 26.201Z" fill="#ECC79F"/>
<path d="M35.8525 43.3153C39.7127 43.3153 42.842 40.9223 42.842 37.9704C42.842 35.0185 39.7127 32.6255 35.8525 32.6255C31.9923 32.6255 28.863 35.0185 28.863 37.9704C28.863 40.9223 31.9923 43.3153 35.8525 43.3153Z" fill="#ECC79F"/>
<path d="M35.9896 36.8398C35.9896 36.6316 35.9282 36.4629 35.8525 36.4629C35.7768 36.4629 35.7155 36.6316 35.7155 36.8398V39.1011C35.7155 39.3092 35.7768 39.478 35.8525 39.478C35.9282 39.478 35.9896 39.3092 35.9896 39.1011V36.8398Z" fill="#3A211F"/>
<path d="M35.9896 37.2856C37.352 37.2856 38.4565 36.6106 38.4565 35.778C38.4565 34.9455 37.352 34.2705 35.9896 34.2705C34.6272 34.2705 33.5227 34.9455 33.5227 35.778C33.5227 36.6106 34.6272 37.2856 35.9896 37.2856Z" fill="#3A211F"/>
<path d="M34.7561 35.6407C34.9832 35.6407 35.1673 35.4566 35.1673 35.2295C35.1673 35.0024 34.9832 34.8184 34.7561 34.8184C34.529 34.8184 34.345 35.0024 34.345 35.2295C34.345 35.4566 34.529 35.6407 34.7561 35.6407Z" fill="white"/>
<path d="M32.9745 38.3818C34.2728 39.4782 37.1581 39.4782 38.4564 38.3818" stroke="#3A211F" stroke-width="0.740063" stroke-linecap="round"/>
<path d="M29.8224 33.9959C30.5036 33.9959 31.0559 33.4437 31.0559 32.7625C31.0559 32.0813 30.5036 31.5291 29.8224 31.5291C29.1412 31.5291 28.589 32.0813 28.589 32.7625C28.589 33.4437 29.1412 33.9959 29.8224 33.9959Z" fill="#3A211F"/>
<path d="M42.4308 33.9959C43.112 33.9959 43.6643 33.4437 43.6643 32.7625C43.6643 32.0813 43.112 31.5291 42.4308 31.5291C41.7496 31.5291 41.1974 32.0813 41.1974 32.7625C41.1974 33.4437 41.7496 33.9959 42.4308 33.9959Z" fill="#3A211F"/>
<path d="M26.9445 38.3815C27.7014 38.3815 28.3149 37.7066 28.3149 36.874C28.3149 36.0414 27.7014 35.3665 26.9445 35.3665C26.1876 35.3665 25.574 36.0414 25.574 36.874C25.574 37.7066 26.1876 38.3815 26.9445 38.3815Z" fill="#FFCEB9"/>
<path d="M45.0348 38.3815C45.7917 38.3815 46.4053 37.7066 46.4053 36.874C46.4053 36.0414 45.7917 35.3665 45.0348 35.3665C44.2779 35.3665 43.6643 36.0414 43.6643 36.874C43.6643 37.7066 44.2779 38.3815 45.0348 38.3815Z" fill="#FFCEB9"/>
<path fill-rule="evenodd" clip-rule="evenodd" d="M32.7042 47.7193C33.4945 47.7193 34.2127 47.4473 34.7839 47.1287C34.6355 47.9336 34.6479 48.657 34.6596 49.3403L34.6621 49.4913C34.6792 50.5767 34.6665 51.5822 34.0467 52.828C33.9392 53.0439 34.0289 53.3055 34.2469 53.412C34.4649 53.5183 34.7287 53.4296 34.8362 53.2136C35.5528 51.7732 35.5597 50.5923 35.5422 49.4774L35.5401 49.3491C35.5253 48.4601 35.5114 47.6164 35.8055 46.6396C36.3463 47.4997 36.597 48.345 36.8486 49.1975L36.8553 49.2201C37.1479 50.2109 37.4517 51.2401 38.2823 52.1634C38.444 52.3431 38.7222 52.3589 38.9037 52.1988C39.0851 52.0384 39.1011 51.763 38.9394 51.583C38.252 50.819 37.9931 49.9674 37.6934 48.9526L37.6859 48.9268C37.542 48.4394 37.389 47.9211 37.1685 47.3841C37.6326 47.5802 38.1612 47.7193 38.7266 47.7193C39.6414 47.7193 40.4913 47.5433 41.1288 47.239C41.7349 46.9499 42.2938 46.4662 42.2938 45.7914C42.2938 45.1167 41.7349 44.6329 41.1288 44.3436C40.4913 44.0395 39.6414 43.8635 38.7266 43.8635C37.4038 43.8635 36.2832 44.625 35.7154 45.0937C35.1476 44.625 34.027 43.8635 32.7042 43.8635C31.7894 43.8635 30.9397 44.0395 30.3021 44.3436C29.6959 44.6329 29.1371 45.1167 29.1371 45.7914C29.1371 46.4662 29.6959 46.9499 30.3021 47.239C30.9397 47.5433 31.7894 47.7193 32.7042 47.7193ZM30.684 45.1294C30.1585 45.3802 30.0173 45.6424 30.0173 45.7914C30.0173 45.9405 30.1585 46.2026 30.684 46.4534C31.1783 46.6892 31.892 46.847 32.7042 46.847C33.7347 46.847 34.665 46.223 35.1653 45.8079L35.1753 45.7829C34.6774 45.368 33.7416 44.7355 32.7042 44.7355C31.892 44.7355 31.1783 44.8936 30.684 45.1294ZM36.3552 45.8807C36.3288 45.843 36.3019 45.8053 36.2745 45.7673C36.7769 45.3522 37.7022 44.7355 38.7266 44.7355C39.5389 44.7355 40.2526 44.8936 40.747 45.1294C41.2724 45.3802 41.4137 45.6424 41.4137 45.7914C41.4137 45.9405 41.2724 46.2026 40.747 46.4534C40.2526 46.6892 39.5389 46.847 38.7266 46.847C37.7548 46.847 36.8722 46.2922 36.3552 45.8807Z" fill="#513831"/>
<defs>
<filter id="filter0_d_110_924" x="0.797422" y="0.859037" width="77.3888" height="77.3886" filterUnits="userSpaceOnUse" color-interpolation-filters="sRGB">
<feFlood flood-opacity="0" result="BackgroundImageFix"/>
<feColorMatrix in="SourceAlpha" type="matrix" values="0 0 0 0 0 0 0 0 0 0 0 0 0 0 0 0 0 0 127 0" result="hardAlpha"/>
<feMorphology radius="0.476064" operator="dilate" in="SourceAlpha" result="effect1_dropShadow_110_924"/>
<feOffset dx="3.80851" dy="5.23671"/>
<feGaussianBlur stdDeviation="5.9508"/>
<feComposite in2="hardAlpha" operator="out"/>
<feColorMatrix type="matrix" values="0 0 0 0 0.383333 0 0 0 0 0.383333 0 0 0 0 0.383333 0 0 0 0.13 0"/>
<feBlend mode="normal" in2="BackgroundImageFix" result="effect1_dropShadow_110_924"/>
<feBlend mode="normal" in="SourceGraphic" in2="effect1_dropShadow_110_924" result="shape"/>
</filter>
<linearGradient id="paint0_linear_110_924" x1="35.6833" y1="8" x2="35.6833" y2="60.6334" gradientUnits="userSpaceOnUse">
<stop stop-color="#D49EFF"/>
<stop offset="1" stop-color="#EAD0FF"/>
</linearGradient>
</defs>
</svg>
