<svg width="154" height="178" viewBox="0 0 154 178" fill="none" xmlns="http://www.w3.org/2000/svg">
<path d="M101.736 139.393C101.681 139.947 101.63 140.492 101.591 141.013C101.549 141.497 101.517 141.964 101.486 142.405C101.457 142.846 101.417 143.268 101.417 143.643C101.414 144.396 101.568 144.966 101.733 145.345C101.897 145.723 102.083 145.906 102.083 145.906C104.676 148.47 108.756 148.066 111.195 145.003C111.874 144.145 112.378 143.136 112.67 142.053C112.67 142.053 112.743 141.775 112.713 141.348C112.683 140.921 112.558 140.34 112.22 139.711C112.053 139.396 111.832 139.07 111.611 138.72C111.389 138.37 111.154 138.002 110.903 137.624C110.638 137.213 110.353 136.791 110.06 136.364C121.122 126.241 135.04 91.7427 135.017 64.1209C135.113 59.1776 134.583 54.2846 133.442 49.5885C126.808 22.2017 101.297 7.32762 76.4626 16.3667C51.628 25.4057 36.8742 54.9348 43.5084 82.3213C44.6434 87.0196 46.3777 91.4743 48.6595 95.5519C60.9384 118.713 87.9597 138.311 101.736 139.393Z" fill="#3E5DFF" fill-opacity="0.1"/>
<path d="M62.8061 156.066C62.757 156.561 62.7109 157.049 62.6763 157.514C62.6389 157.948 62.6095 158.365 62.5822 158.759C62.5563 159.154 62.5205 159.531 62.5205 159.867C62.518 160.539 62.6551 161.05 62.803 161.388C62.9501 161.726 63.1157 161.89 63.1157 161.89C65.4347 164.183 69.0826 163.821 71.2639 161.083C71.8708 160.316 72.3216 159.413 72.5822 158.444C72.5822 158.444 72.6479 158.196 72.6207 157.814C72.5941 157.432 72.4819 156.913 72.1802 156.351C72.0306 156.069 71.8331 155.777 71.6354 155.464C71.4368 155.151 71.2267 154.822 71.0023 154.484C70.766 154.117 70.5104 153.739 70.2488 153.357C80.1403 144.306 92.5845 113.459 92.564 88.7607C92.6503 84.3406 92.1763 79.9655 91.1562 75.7664C85.2237 51.2782 62.4133 37.9783 40.2072 46.0607C18.0011 54.1431 4.80877 80.5468 10.7409 105.035C11.7557 109.236 13.3065 113.219 15.3467 116.865C26.3261 137.575 50.4875 155.098 62.8061 156.066V156.066Z" fill="url(#paint0_linear_151_2967)" fill-opacity="0.1"/>
<defs>
<linearGradient id="paint0_linear_151_2967" x1="40.2074" y1="46.0607" x2="81.1303" y2="158.495" gradientUnits="userSpaceOnUse">
<stop offset="0.0175848" stop-color="#3E5DFF" stop-opacity="0.62"/>
<stop offset="1" stop-color="#3E5DFF" stop-opacity="0"/>
</linearGradient>
</defs>
</svg>
