<svg width="134" height="171" viewBox="0 0 134 171" fill="none" xmlns="http://www.w3.org/2000/svg">
<path d="M44.6794 121.182C44.7272 121.663 44.772 122.137 44.8056 122.589C44.842 123.011 44.8705 123.416 44.8971 123.8C44.9223 124.183 44.9571 124.55 44.9571 124.877C44.9596 125.531 44.8263 126.027 44.6824 126.355C44.5394 126.685 44.3784 126.843 44.3784 126.843C42.1237 129.073 38.577 128.721 36.4563 126.059C35.8663 125.313 35.4279 124.436 35.1746 123.494C35.1746 123.494 35.1107 123.252 35.1371 122.881C35.163 122.509 35.272 122.005 35.5654 121.458C35.7108 121.184 35.9029 120.901 36.0951 120.596C36.2882 120.292 36.4925 119.972 36.7106 119.643C36.9404 119.286 37.1889 118.919 37.4432 118.548C27.8262 109.747 15.7273 79.7566 15.7473 55.7435C15.6633 51.4461 16.1242 47.1924 17.1159 43.1098C22.8838 19.3011 45.0613 6.37027 66.6512 14.2284C88.2412 22.0865 101.067 47.7576 95.3 71.5661C94.3133 75.6505 92.8055 79.5232 90.8219 83.0681C80.1472 103.203 56.6562 120.241 44.6794 121.182Z" fill="#3E5DFF" fill-opacity="0.2"/>
<path d="M71.6794 150.182C71.7272 150.663 71.772 151.137 71.8056 151.589C71.842 152.011 71.8705 152.416 71.8971 152.8C71.9223 153.183 71.9571 153.55 71.9571 153.877C71.9596 154.531 71.8263 155.027 71.6824 155.355C71.5394 155.685 71.3784 155.843 71.3784 155.843C69.1238 158.073 65.577 157.721 63.4563 155.059C62.8663 154.313 62.428 153.436 62.1746 152.494C62.1746 152.494 62.1107 152.252 62.1371 151.881C62.163 151.509 62.2721 151.005 62.5654 150.458C62.7108 150.184 62.9029 149.901 63.0951 149.596C63.2882 149.292 63.4925 148.972 63.7106 148.643C63.9404 148.286 64.1889 147.919 64.4432 147.548C54.8262 138.747 42.7273 108.757 42.7473 84.7435C42.6633 80.4461 43.1242 76.1924 44.1159 72.1098C49.8838 48.3011 72.0613 35.3703 93.6512 43.2284C115.241 51.0865 128.067 76.7576 122.3 100.566C121.313 104.651 119.806 108.523 117.822 112.068C107.147 132.203 83.6562 149.241 71.6794 150.182V150.182Z" fill="url(#paint0_linear_151_2968)" fill-opacity="0.2"/>
<defs>
<linearGradient id="paint0_linear_151_2968" x1="93.6511" y1="43.2283" x2="53.8636" y2="152.543" gradientUnits="userSpaceOnUse">
<stop offset="0.0175848" stop-color="#3E5DFF" stop-opacity="0.62"/>
<stop offset="1" stop-color="#3E5DFF" stop-opacity="0"/>
</linearGradient>
</defs>
</svg>
