<svg width="45" height="45" viewBox="0 0 45 45" fill="none" xmlns="http://www.w3.org/2000/svg">
<circle cx="22.5" cy="22.5" r="22.5" fill="url(#paint0_linear_97_1126)"/>
<g clip-path="url(#clip0_97_1126)">
<path d="M29.8667 40.2667C29.8066 40.2667 29.749 40.2299 29.7065 40.1646C29.664 40.0992 29.6401 40.0105 29.6401 39.918C29.6401 38.753 29.3744 37.8714 28.804 37.1434C28.2705 36.4625 27.5274 35.9784 26.7408 35.4658C25.6954 34.7847 24.6143 34.0804 23.7597 32.7961C22.7749 31.316 22.2961 29.3309 22.2961 26.7273C22.2961 26.6348 22.32 26.5462 22.3625 26.4808C22.405 26.4154 22.4626 26.3787 22.5227 26.3787C22.5827 26.3787 22.6404 26.4154 22.6828 26.4808C22.7253 26.5462 22.7492 26.6348 22.7492 26.7273C22.7492 29.1332 23.1833 30.9551 24.0762 32.2971C24.8696 33.4895 25.9106 34.1677 26.9174 34.8237C28.5506 35.8877 30.0931 36.8928 30.0931 39.918C30.0931 39.9638 30.0873 40.0091 30.0759 40.0514C30.0645 40.0937 30.0479 40.1322 30.0268 40.1646C30.0058 40.1969 29.9808 40.2226 29.9533 40.2401C29.9259 40.2576 29.8964 40.2667 29.8667 40.2667Z" fill="#597B91"/>
<path d="M23.2611 26.111C23.2927 26.1919 23.3234 26.2716 23.3509 26.3485C23.3776 26.4197 23.4019 26.4885 23.4249 26.5537C23.4476 26.619 23.4714 26.6807 23.4866 26.7377C23.5175 26.8516 23.515 26.9465 23.5027 27.013C23.4905 27.0795 23.4669 27.1174 23.4669 27.1174C23.1372 27.6492 22.4388 27.8131 21.907 27.4834C21.7588 27.3907 21.6336 27.2656 21.541 27.1174C21.541 27.1174 21.5175 27.0794 21.5053 27.013C21.4929 26.9465 21.4904 26.8516 21.5214 26.7377C21.5366 26.6807 21.5603 26.619 21.5831 26.5537C21.606 26.4885 21.6304 26.4197 21.657 26.3485C21.6846 26.2716 21.7153 26.1919 21.7469 26.111C19.4876 25.1868 15.7639 20.725 14.6492 16.5364C14.4329 15.7924 14.3233 15.0214 14.3239 14.2465C14.3239 9.72878 17.9862 6.06641 22.504 6.06641C27.0217 6.06641 30.684 9.72878 30.684 14.2465C30.6846 15.0213 30.575 15.7923 30.3587 16.5363C29.2439 20.7249 25.5203 25.1868 23.2611 26.111Z" fill="#4CD1EE"/>
<path d="M19.0129 14.2463C19.0129 15.7122 18.3269 16.9006 17.4807 16.9006C16.6345 16.9006 15.9485 15.7122 15.9485 14.2463C15.9485 12.7804 16.6345 11.592 17.4807 11.592C18.3269 11.5921 19.0129 12.7804 19.0129 14.2463Z" fill="#9DE5F4"/>
</g>
<defs>
<linearGradient id="paint0_linear_97_1126" x1="22.5" y1="-6.51316" x2="22.5" y2="32.5658" gradientUnits="userSpaceOnUse">
<stop stop-color="#F1D3FF"/>
<stop offset="1" stop-color="#D495F1"/>
</linearGradient>
<clipPath id="clip0_97_1126">
<rect width="34" height="34" fill="white" transform="translate(6 6)"/>
</clipPath>
</defs>
</svg>
