<svg width="45" height="45" viewBox="0 0 45 45" fill="none" xmlns="http://www.w3.org/2000/svg">
<circle cx="22.5" cy="22.5" r="22.5" fill="url(#paint0_linear_97_1129)"/>
<path d="M10.373 26.0041C10.373 26.0041 9.87266 26.9284 9.83438 27.5053C9.7961 28.0823 10.1816 32.7799 11.0266 33.819C11.8715 34.858 14.4527 37.5924 22.0734 37.669C29.6941 37.7455 33.5824 34.2811 34.0063 33.5893C34.4301 32.8975 34.9688 29.6627 35.007 27.1225C35.0453 24.5823 21.4965 26.3514 21.4965 26.3514L10.373 26.0041Z" fill="#FBB75A"/>
<path d="M21.9202 32.1619C28.696 32.3533 34.9687 28.197 34.9687 28.197L34.7772 30.2751C34.7772 30.2751 29.6202 34.24 22.0351 34.0486C14.4499 33.8572 10.064 30.2751 10.064 30.2751L9.87256 28.465C9.87256 28.465 15.9948 31.9923 21.9202 32.1619Z" fill="#F2A05B"/>
<path d="M22.7678 15.994C19.8803 16.0076 11.1823 16.6858 10.2963 20.3826C9.41039 24.0795 9.52524 27.544 9.6811 27.8502C9.83422 28.1592 10.1788 27.626 10.9909 27.9268C12.0299 28.3123 11.9534 31.1205 13.8401 31.6209C15.7268 32.1213 15.7651 29.5428 17.9198 29.6959C20.0745 29.849 19.0737 32.7393 21.9229 32.7748C24.8487 32.8131 23.7631 29.9147 25.8112 29.6576C27.8373 29.4006 26.7737 32.5451 29.5846 32.1213C32.3955 31.6975 32.0702 27.6971 33.5084 27.2733C34.5995 26.9533 34.5065 28.0252 35.0233 27.9787C35.4471 27.9404 35.2803 22.0752 34.8948 20.7682C34.5092 19.4612 30.8889 15.9557 22.7678 15.994Z" fill="url(#paint1_radial_97_1129)"/>
<path d="M14.0097 24.2515C11.9617 23.3875 11.3 22.5699 10.9691 22.1543C10.7394 21.8644 10.3922 21.7496 10.198 21.982C10.0066 22.2117 10.1023 22.4633 10.3129 22.7121C10.5234 22.9636 11.4668 24.4047 13.8922 25.1949C16.025 25.8894 17.4332 25.9851 17.9718 26.0043C18.5707 26.0261 18.8195 25.2742 18.0293 25.1758C17.1242 25.0636 16.2437 25.1949 14.0097 24.2515ZM20.1621 25.4519C19.6371 25.4383 19.4429 25.7336 19.4429 25.966C19.4429 26.2476 19.6863 26.4035 20.1101 26.4281C20.534 26.4527 20.7773 26.1711 20.7773 25.9797C20.7801 25.7855 20.6625 25.4629 20.1621 25.4519Z" fill="#FDFFFF"/>
<path d="M11.8739 27.2757C11.6333 27.5108 11.7345 27.7843 11.8493 27.9264C12.038 28.1589 12.377 28.1971 12.552 28.0604C12.7516 27.9073 12.727 27.6229 12.6013 27.4343C12.4399 27.1882 12.1118 27.0405 11.8739 27.2757ZM12.5466 28.2874C12.2157 28.4733 12.3634 28.8862 12.5411 29.2253C12.9212 29.9471 13.0415 30.535 13.479 30.8249C13.922 31.1175 14.4688 30.9151 14.4169 30.6116C14.3348 30.1276 14.0368 30.494 13.7798 29.8815C13.6731 29.6272 13.4544 29.2198 13.2001 28.6702C13.0524 28.3475 12.8802 28.0987 12.5466 28.2874ZM20.252 30.237C19.9266 30.4694 20.1235 31.0573 20.5337 31.5194C20.9438 31.9815 21.5208 32.3534 22.1497 32.1866C22.6364 32.0581 22.5981 31.5194 22.2645 31.3663C21.9309 31.2132 21.5345 31.3034 21.1735 30.8276C20.9985 30.5952 20.7524 29.8788 20.252 30.237ZM27.9794 29.7311C27.6567 29.969 27.9602 30.4639 28.1598 30.8057C28.3595 31.1475 29.0184 31.8038 29.404 31.4155C29.6856 31.1311 29.1552 30.7866 28.9063 30.4147C28.7204 30.1331 28.4087 29.4112 27.9794 29.7311ZM27.4243 28.8397C27.211 28.9956 27.2438 29.2417 27.3204 29.3784C27.4243 29.5589 27.7579 29.6354 27.9493 29.4686C28.1352 29.3073 28.0259 29.0448 27.9247 28.9163C27.8235 28.7878 27.5665 28.7358 27.4243 28.8397Z" fill="#FCE9CA"/>
<path d="M28.625 13.8195C28.625 13.8195 26.5114 16.7344 26.6453 17.3141C26.7493 17.7707 27.2414 18.2602 28.2942 18.3313C29.3469 18.4023 30.0059 17.9129 30.1563 17.448C30.3586 16.8301 29.6996 14.8613 29.4618 14.4703C29.1254 13.9152 28.8219 13.8359 28.625 13.8195ZM32.9946 16.45L30.7223 19.6328C30.7223 19.6328 30.7907 20.3301 31.4743 20.6309C32.1879 20.9426 33.6453 20.9617 34.0637 20.352C34.5395 19.6602 34.3344 18.4707 34.0938 17.7516C33.9078 17.1883 33.5141 16.3898 32.9946 16.45ZM29.1473 20.0457L26.9489 23.4227C26.9489 23.4227 26.9242 24.2594 27.9168 24.4918C28.7043 24.675 30.1508 24.6832 30.6895 24.2211C31.2282 23.759 31.1844 22.8293 30.7196 21.8531C30.211 20.7922 29.4563 19.7941 29.1473 20.0457ZM23.6731 20.8742L20.7938 24.3578C20.7938 24.3578 20.7364 25.0305 21.4473 25.3586C22.3606 25.7824 23.766 25.7605 24.4797 25.3777C25.1059 25.0414 25.2016 23.975 24.9746 23.3078C24.7887 22.7637 24.5317 22.3016 24.436 22.05C24.3403 21.8012 24.0176 21.0273 23.6731 20.8742ZM17.4742 19.6984L15.0215 23.5293C15.0215 23.5293 15.0981 24.4234 16.0332 24.6066C16.8399 24.7652 18.1688 24.8582 18.6309 24.2785C19.093 23.6988 19.1121 22.2277 18.6692 21.1887C18.2262 20.1523 17.8407 19.8352 17.4742 19.6984ZM13.75 16.0863L13.4219 15.9688L11.2344 19.425C11.2344 19.425 11.1715 20.0348 11.6801 20.3602C12.1614 20.6691 13.6926 20.8223 14.5184 20.4176C15.3469 20.0129 15.2867 18.6566 14.7098 17.4918C14.1766 16.4117 13.75 16.0863 13.75 16.0863ZM17.7641 13.5352L15.6395 17.202C15.6395 17.202 15.7325 17.6777 16.4653 17.8855C17.1844 18.0906 18.125 18.0523 18.6063 17.6805C19.0903 17.3086 19.2188 16.491 18.9973 15.5422C18.8469 14.8941 18.2645 13.7211 17.7641 13.5352Z" fill="#EE5B4A"/>
<path d="M15.6669 21.0361C15.2102 22.0205 14.5704 23.4806 15.3005 23.9619C16.0305 24.4431 17.1106 23.672 17.4934 22.2283C17.8762 20.7845 17.9364 20.0626 17.57 19.7537C17.2063 19.4501 16.263 19.7482 15.6669 21.0361ZM13.1895 15.8572C12.67 15.89 12.0739 16.6939 11.7759 17.4841C11.4778 18.2744 11.1305 19.256 11.2563 19.5732C11.3821 19.8904 12.238 20.2759 12.6044 19.6033C12.9708 18.9306 12.897 18.031 12.979 17.5716C13.1239 16.7623 13.7501 16.0896 13.7501 16.0896C13.7501 16.0896 13.5368 15.8353 13.1895 15.8572ZM17.3075 13.3771C16.9356 13.399 16.5829 13.5548 16.2657 14.5939C16.0934 15.1626 15.6067 15.8216 15.5602 16.4423C15.5138 17.0658 15.6532 17.2271 15.6532 17.2271C15.6532 17.2271 16.5446 17.3994 16.8919 16.7048C17.2255 16.0404 17.1216 15.3623 17.2337 15.0478C17.3458 14.7306 17.8571 13.5794 17.8571 13.5794C17.8571 13.5794 17.6329 13.3607 17.3075 13.3771Z" fill="#FD6F42"/>
<path d="M28.5351 13.8006C28.1441 13.7815 27.5726 14.2654 27.209 15.1295C26.8426 15.9936 26.6211 16.9315 26.6375 17.2076C26.6539 17.4838 28.0976 17.5166 28.6062 16.6826C28.9262 16.1576 28.9098 14.7494 28.8742 14.4104C28.8414 14.0686 28.9426 13.8197 28.5351 13.8006ZM32.8746 16.4393C32.5383 16.494 31.7453 16.6881 31.1055 18.069C30.7062 18.9303 30.5859 19.7588 30.8758 19.8791C31.1656 19.9994 31.9558 20.1197 32.3168 19.6686C32.6777 19.2174 33.0769 17.9897 33.1672 17.3772C33.2547 16.7701 33.3148 16.3682 32.8746 16.4393ZM27.0312 23.6553C27.4633 24.049 28.2863 23.6772 28.5816 23.3272C29.0328 22.7885 29.4101 21.6619 29.4293 20.8744C29.443 20.3029 29.5742 19.9803 29.0738 20.0076C28.9016 20.0186 28.4285 20.1033 27.8816 20.9127C27.4469 21.5525 27.198 22.0584 27.0531 22.6846C26.9301 23.2041 26.9055 23.5404 27.0312 23.6553ZM23.1047 20.6803C22.8258 20.6693 22.2953 20.8334 21.7484 21.7385C21.1988 22.6436 20.5754 24.1065 20.8433 24.5576C21.1141 25.0088 21.7758 25.058 22.4512 24.7791C23.1238 24.5002 23.5859 23.5268 23.6242 23.133C23.6625 22.7393 23.9223 21.0549 23.7008 20.8908C23.4793 20.7295 23.3453 20.6912 23.1047 20.6803Z" fill="#FF6E45"/>
<path d="M33.5193 10.1175C33.5193 13.9265 27.4326 17.3035 22.6885 17.3035C17.9443 17.3035 11.9095 13.7214 11.9095 9.91245C11.9095 6.10347 17.8595 3.07104 22.601 3.07104C27.3424 3.07104 33.5193 6.30855 33.5193 10.1175Z" fill="url(#paint2_radial_97_1129)"/>
<path d="M24.9033 11.5093C24.999 11.3753 26.801 11.5257 26.9623 11.5667C27.0389 11.5858 27.0197 18.4573 26.924 18.5147C26.842 18.564 26.5194 18.862 25.9041 18.862C25.2889 18.862 24.9416 18.6515 24.8268 18.5722C24.7119 18.4956 24.8076 11.6433 24.9033 11.5093Z" fill="#FEA8A8"/>
<path d="M21.5948 13.2047C21.521 13.2676 21.4991 19.904 21.5565 19.9614C21.614 20.0188 21.9995 20.3661 22.7487 20.3469C23.5007 20.3278 23.8452 20.0571 23.9026 19.9997C23.9601 19.9422 23.9409 13.2047 23.8835 13.1665C23.8261 13.1254 21.7097 13.1063 21.5948 13.2047Z" fill="#EC7FAE"/>
<path d="M18.36 11.78C18.267 11.8347 18.2643 18.5749 18.3026 18.6323C18.3409 18.6897 18.8987 18.8839 19.4182 18.8839C19.9377 18.8839 20.4381 18.769 20.4956 18.7116C20.553 18.6542 20.5147 11.8593 20.4573 11.7827C20.3999 11.7061 18.4557 11.7225 18.36 11.78Z" fill="#93C7EE"/>
<path d="M22.7677 7.10156C22.8825 7.10156 23.0384 8.00664 23.249 8.52617C23.4595 9.0457 24.2497 10.3363 23.9408 11.452C23.6044 12.6742 21.6986 12.9121 21.2857 11.318C20.9958 10.2023 21.9775 9.0457 22.229 8.52617C22.4013 8.16797 22.6884 7.10156 22.7677 7.10156Z" fill="url(#paint3_radial_97_1129)"/>
<path d="M25.8661 5.69629C25.8661 5.69629 25.5818 6.99238 25.2318 7.54473C24.7314 8.33496 24.4142 9.41504 24.8079 10.2982C25.3083 11.4139 27.3126 11.3564 27.3482 9.45059C27.3673 8.44981 26.9298 7.91934 26.6181 7.35332C26.4048 6.96777 26.0001 5.73457 25.8661 5.69629Z" fill="url(#paint4_radial_97_1129)"/>
<path d="M19.495 5.90918C19.495 5.90918 18.9755 7.1998 18.6473 7.68105C18.3192 8.1623 17.7368 9.29707 18.0704 10.2021C18.4751 11.2986 20.2661 11.4299 20.6106 9.9916C20.8403 9.0291 20.3399 8.29902 19.9954 7.50879C19.7794 7.01113 19.495 5.90918 19.495 5.90918Z" fill="url(#paint5_radial_97_1129)"/>
<defs>
<linearGradient id="paint0_linear_97_1129" x1="22.5" y1="8.88158" x2="22.5" y2="34.3421" gradientUnits="userSpaceOnUse">
<stop stop-color="#BCCEFF"/>
<stop offset="1" stop-color="#6E97FF"/>
</linearGradient>
<radialGradient id="paint1_radial_97_1129" cx="0" cy="0" r="1" gradientUnits="userSpaceOnUse" gradientTransform="translate(22.8597 20.1516) rotate(91.1173) scale(12.5192 27.2535)">
<stop offset="0.445" stop-color="#FEEAC9"/>
<stop offset="0.565" stop-color="#FEE7C2"/>
<stop offset="0.741" stop-color="#FEDEAE"/>
<stop offset="0.952" stop-color="#FFCF8D"/>
<stop offset="1" stop-color="#FFCB85"/>
</radialGradient>
<radialGradient id="paint2_radial_97_1129" cx="0" cy="0" r="1" gradientUnits="userSpaceOnUse" gradientTransform="translate(22.7161 10.1869) scale(10.6706 6.5699)">
<stop offset="0.034" stop-color="#FFE265" stop-opacity="0.7"/>
<stop offset="0.112" stop-color="#FFE575" stop-opacity="0.643"/>
<stop offset="0.417" stop-color="#FFF0B0" stop-opacity="0.422"/>
<stop offset="0.677" stop-color="#FFF8DB" stop-opacity="0.234"/>
<stop offset="0.88" stop-color="#FFFDF5" stop-opacity="0.087"/>
<stop offset="1" stop-color="white" stop-opacity="0"/>
</radialGradient>
<radialGradient id="paint3_radial_97_1129" cx="0" cy="0" r="1" gradientUnits="userSpaceOnUse" gradientTransform="translate(22.7483 12.8377) scale(5.31234)">
<stop offset="0.17" stop-color="#FF9616"/>
<stop offset="0.654" stop-color="#FFD429"/>
</radialGradient>
<radialGradient id="paint4_radial_97_1129" cx="0" cy="0" r="1" gradientUnits="userSpaceOnUse" gradientTransform="translate(26.1128 11.4295) scale(5.20735)">
<stop offset="0.17" stop-color="#FF9616"/>
<stop offset="0.654" stop-color="#FFD429"/>
</radialGradient>
<radialGradient id="paint5_radial_97_1129" cx="0" cy="0" r="1" gradientUnits="userSpaceOnUse" gradientTransform="translate(19.4436 11.4277) scale(5.15512)">
<stop offset="0.17" stop-color="#FF9616"/>
<stop offset="0.654" stop-color="#FFD429"/>
</radialGradient>
</defs>
</svg>
