<svg width="45" height="45" viewBox="0 0 45 45" fill="none" xmlns="http://www.w3.org/2000/svg">
<circle cx="22.5" cy="22.5" r="22.5" fill="url(#paint0_linear_97_1734)"/>
<path d="M20.8149 37.6962C20.8149 39.1378 21.6231 39.0786 22.6219 39.0786C23.6198 39.0786 24.4279 39.1383 24.4279 37.6962C24.4279 36.2566 23.6198 25.3413 22.6219 25.3413C21.6236 25.3413 20.8149 36.2566 20.8149 37.6962Z" fill="#DDB185"/>
<path d="M32.9744 33.2006C29.7502 27.6128 26.5228 22.0255 23.2944 16.4361C23.0013 15.9289 22.2363 15.9289 21.9432 16.4361C18.7154 22.0255 15.4916 27.6128 12.2638 33.2016C11.967 33.7146 12.3433 34.3777 12.9394 34.3777H32.2993C32.8944 34.3777 33.2717 33.7146 32.9734 33.2016" fill="#0B7D70"/>
<path d="M32.9744 29.8988C29.7502 25.0687 26.5228 20.2417 23.2944 15.4111C23.0013 14.973 22.2363 14.973 21.9432 15.4111C18.7154 20.2407 15.4916 25.0682 12.2638 29.8988C11.967 30.3421 12.3433 30.9153 12.9394 30.9153H32.2993C32.8944 30.9153 33.2717 30.3421 32.9734 29.8988" fill="#2BB573"/>
<path d="M30.5905 24.8095L23.0445 11.4376C22.8148 11.0338 22.2192 11.0338 21.9905 11.4376C19.4762 15.8956 16.9598 20.3531 14.4445 24.8095C14.2132 25.2201 14.5068 25.7497 14.9714 25.7497H30.0625C30.5271 25.7497 30.8197 25.2196 30.5905 24.8095Z" fill="#0B7D70"/>
<path d="M30.9903 21.2111C28.3824 17.4677 25.7751 13.7243 23.1651 9.9804C22.9282 9.64 22.3097 9.64 22.0722 9.9804C19.4648 13.7246 16.8564 17.4682 14.2471 21.2111C14.0065 21.5552 14.312 22.0011 14.7928 22.0011H30.4425C30.9232 22.0011 31.2283 21.5552 30.9882 21.2111" fill="#04A69C"/>
<path d="M19.6794 21.4764C19.6716 21.9161 19.4915 22.3353 19.1778 22.6435C18.8641 22.9517 18.4419 23.1245 18.002 23.1245C17.5622 23.1245 17.14 22.9517 16.8263 22.6435C16.5126 22.3353 16.3324 21.9161 16.3247 21.4764C16.3246 21.2562 16.3678 21.0381 16.452 20.8346C16.5362 20.6311 16.6597 20.4462 16.8154 20.2904C16.9711 20.1347 17.156 20.0111 17.3595 19.9268C17.5629 19.8426 17.781 19.7992 18.0013 19.7993C18.2216 19.799 18.4398 19.8422 18.6435 19.9263C18.8471 20.0105 19.0322 20.1339 19.1881 20.2896C19.344 20.4453 19.4677 20.6303 19.5521 20.8338C19.6365 21.0373 19.6799 21.2555 19.6799 21.4759" fill="#FBB041"/>
<path d="M29.9426 28.854C29.948 29.0777 29.9086 29.3003 29.8266 29.5086C29.7447 29.7168 29.6219 29.9066 29.4655 30.0667C29.3091 30.2268 29.1222 30.354 28.9159 30.4408C28.7096 30.5275 28.488 30.5722 28.2642 30.572C28.0404 30.5718 27.8188 30.5269 27.6127 30.4398C27.4065 30.3527 27.2198 30.2252 27.0637 30.0649C26.9075 29.9045 26.785 29.7145 26.7034 29.5061C26.6218 29.2977 26.5827 29.0751 26.5884 28.8514C26.5997 28.4138 26.7815 27.998 27.095 27.6926C27.4086 27.3872 27.8291 27.2165 28.2668 27.2168C28.7045 27.2171 29.1247 27.3885 29.4378 27.6944C29.7509 28.0003 29.932 28.4164 29.9426 28.854Z" fill="#ED2E7C"/>
<path d="M18.0029 32.1069C18.0067 32.3296 17.9661 32.5509 17.8835 32.7578C17.8009 32.9647 17.6778 33.1531 17.5216 33.3119C17.3654 33.4708 17.1791 33.5969 16.9736 33.683C16.7681 33.769 16.5476 33.8133 16.3248 33.8132C16.102 33.8131 15.8814 33.7686 15.676 33.6824C15.4706 33.5961 15.2844 33.4698 15.1284 33.3108C14.9723 33.1518 14.8495 32.9633 14.767 32.7564C14.6846 32.5494 14.6442 32.3281 14.6482 32.1053C14.6562 31.6656 14.8365 31.2465 15.1503 30.9384C15.4642 30.6303 15.8865 30.4578 16.3263 30.458C16.7661 30.4582 17.1883 30.6311 17.5019 30.9395C17.8154 31.2479 17.9954 31.6671 18.0029 32.1069Z" fill="#57C6E9"/>
<path d="M26.1047 14.9775C26.1101 15.2012 26.0707 15.4238 25.9887 15.6321C25.9068 15.8404 25.784 16.0301 25.6276 16.1902C25.4712 16.3503 25.2843 16.4775 25.078 16.5643C24.8717 16.6511 24.6501 16.6957 24.4263 16.6955C24.2025 16.6953 23.981 16.6504 23.7748 16.5633C23.5686 16.4762 23.3819 16.3487 23.2258 16.1884C23.0696 16.028 22.9471 15.8381 22.8655 15.6297C22.7839 15.4213 22.7448 15.1986 22.7506 14.9749C22.7618 14.5373 22.9436 14.1215 23.2571 13.8161C23.5707 13.5107 23.9912 13.34 24.4289 13.3403C24.8666 13.3407 25.2868 13.5121 25.5999 13.8179C25.913 14.1238 26.0942 14.5399 26.1047 14.9775Z" fill="#ED2E7C"/>
<path d="M26.1047 24.4209C26.1101 24.6446 26.0707 24.8672 25.9887 25.0755C25.9068 25.2837 25.784 25.4735 25.6276 25.6336C25.4712 25.7937 25.2843 25.9209 25.078 26.0077C24.8717 26.0944 24.6501 26.1391 24.4263 26.1389C24.2025 26.1387 23.981 26.0937 23.7748 26.0067C23.5686 25.9196 23.3819 25.7921 23.2258 25.6317C23.0696 25.4714 22.9471 25.2814 22.8655 25.073C22.7839 24.8646 22.7448 24.642 22.7506 24.4183C22.7618 23.9807 22.9436 23.5649 23.2571 23.2595C23.5707 22.9541 23.9912 22.7834 24.4289 22.7837C24.8666 22.784 25.2868 22.9554 25.5999 23.2613C25.913 23.5672 26.0942 23.9833 26.1047 24.4209Z" fill="#F7EC35"/>
<path d="M25.4916 7.98806L24.0723 9.33929L24.3805 11.2747L22.6572 10.3423L20.912 11.2336L21.2665 9.30603L19.8794 7.92154L21.822 7.66273L22.7102 5.91602L23.5563 7.68352" fill="#FFCC00"/>
<defs>
<linearGradient id="paint0_linear_97_1734" x1="22.5" y1="0" x2="22.5" y2="45" gradientUnits="userSpaceOnUse">
<stop stop-color="#FFBDC7"/>
<stop offset="1" stop-color="#FF6E83"/>
</linearGradient>
</defs>
</svg>
