<svg width="45" height="45" viewBox="0 0 45 45" fill="none" xmlns="http://www.w3.org/2000/svg">
<circle cx="22.5" cy="22.5" r="22.5" fill="url(#paint0_linear_97_1124)"/>
<g clip-path="url(#clip0_97_1124)">
<path d="M18.0738 15.1998C17.9967 15.2801 17.9337 15.3728 17.8877 15.4741L17.8821 15.4686L10.0932 33.0144L10.1009 33.0221C9.95644 33.3019 10.1981 33.8714 10.6932 34.3672C11.1884 34.8623 11.7578 35.104 12.0377 34.9596L12.0446 34.9665L29.5905 27.1769L29.5849 27.1707C29.687 27.1221 29.7808 27.063 29.8592 26.9839C30.9439 25.8991 29.1849 22.3818 25.9314 19.1276C22.6766 15.8735 19.1592 14.1151 18.0738 15.1998Z" fill="#DD2E44"/>
<path d="M19.028 18.3337L10.2891 32.574L10.0932 33.015L10.1009 33.0226C9.95644 33.3025 10.1981 33.8719 10.6932 34.3678C10.8544 34.5289 11.0217 34.6511 11.1856 34.7546L21.8057 21.806L19.028 18.3337Z" fill="#EA596E"/>
<path d="M25.9808 19.0735C29.2239 22.3179 31.0246 25.7762 30.0009 26.7985C28.978 27.8221 25.5197 26.0221 22.2746 22.779C19.0308 19.5346 17.2308 16.0748 18.2537 15.0519C19.2773 14.029 22.7357 15.829 25.9808 19.0735Z" fill="#A0041E"/>
<path d="M22.9098 19.4506C22.839 19.508 22.7575 19.5508 22.67 19.5764C22.5824 19.6021 22.4907 19.61 22.4001 19.5999C21.7973 19.5346 21.2904 19.3249 20.9355 18.9936C20.5598 18.6429 20.3744 18.1721 20.4251 17.7006C20.514 16.8728 21.3445 16.1131 22.7605 16.2658C23.3112 16.3249 23.557 16.1478 23.5654 16.0631C23.5751 15.979 23.373 15.7533 22.8223 15.6936C22.2195 15.6283 21.7126 15.4186 21.357 15.0874C20.9813 14.7367 20.7952 14.2658 20.8466 13.7943C20.9369 12.9665 21.7668 12.2068 23.1813 12.3603C23.5827 12.4033 23.7945 12.3207 23.8841 12.2672C23.9556 12.2235 23.9841 12.1818 23.9869 12.1575C23.9952 12.0735 23.7959 11.8478 23.2438 11.7881C23.1531 11.7784 23.0652 11.7509 22.9852 11.7071C22.9051 11.6634 22.8345 11.6043 22.7773 11.5332C22.7201 11.4621 22.6776 11.3804 22.652 11.2928C22.6265 11.2052 22.6185 11.1135 22.6286 11.0228C22.6382 10.9321 22.6656 10.8442 22.7093 10.7642C22.7529 10.6841 22.812 10.6135 22.883 10.5563C22.9541 10.4991 23.0357 10.4565 23.1232 10.431C23.2108 10.4055 23.3025 10.3975 23.3931 10.4075C24.8077 10.5596 25.4577 11.4783 25.3681 12.3068C25.2779 13.136 24.448 13.8943 23.032 13.7422C22.6306 13.6985 22.4209 13.7818 22.3306 13.8353C22.2591 13.8783 22.23 13.9207 22.2272 13.9443C22.2181 14.029 22.4188 14.254 22.9709 14.3138C24.3855 14.4665 25.0355 15.3846 24.9459 16.2131C24.8563 17.0408 24.0265 17.8006 22.6112 17.6471C22.2098 17.604 21.9987 17.6874 21.9084 17.7402C21.8362 17.7846 21.8084 17.8263 21.8056 17.8499C21.7966 17.9339 21.9973 18.1596 22.5487 18.2193C22.6852 18.2341 22.8144 18.2889 22.9197 18.3771C23.0251 18.4652 23.1019 18.5825 23.1406 18.7143C23.1792 18.8461 23.1779 18.9864 23.1368 19.1174C23.0958 19.2485 23.0168 19.3644 22.9098 19.4506Z" fill="#AA8DD8"/>
<path d="M31.2924 25.8731C32.6626 25.4862 33.6077 26.0974 33.8327 26.8994C34.0577 27.7008 33.5702 28.7154 32.2008 29.1008C31.6661 29.2508 31.5056 29.5064 31.5272 29.5876C31.5508 29.6696 31.8223 29.8043 32.3556 29.6536C33.7251 29.2682 34.6702 29.8793 34.8952 30.6807C35.1216 31.4828 34.6327 32.496 33.2626 32.8821C32.7286 33.0321 32.5674 33.2883 32.5911 33.3696C32.614 33.4508 32.8848 33.5856 33.4188 33.4356C33.5074 33.4082 33.6006 33.3988 33.6929 33.408C33.7852 33.4172 33.8747 33.4448 33.9561 33.4892C34.0375 33.5335 34.1093 33.5937 34.1671 33.6663C34.2249 33.7388 34.2675 33.8222 34.2926 33.9115C34.3176 34.0007 34.3245 34.0941 34.3129 34.1861C34.3013 34.2781 34.2713 34.3669 34.2248 34.4471C34.1783 34.5274 34.1163 34.5975 34.0422 34.6533C33.9682 34.7092 33.8837 34.7497 33.7938 34.7724C32.4251 35.1578 31.4792 34.5481 31.2529 33.7453C31.0279 32.9439 31.5161 31.9307 32.8869 31.5446C33.4216 31.3939 33.582 31.139 33.5584 31.0571C33.5362 30.9758 33.2654 30.8404 32.732 30.9904C31.3612 31.3765 30.4167 30.7668 30.1911 29.9633C29.9654 29.1619 30.4536 28.1487 31.8237 27.7619C32.357 27.6126 32.5174 27.3557 32.4952 27.2751C32.4716 27.1932 32.2015 27.0585 31.6674 27.2085C31.5782 27.2385 31.4837 27.2501 31.3899 27.2426C31.296 27.235 31.2046 27.2084 31.1213 27.1644C31.0381 27.1204 30.9646 27.0599 30.9054 26.9866C30.8463 26.9133 30.8026 26.8288 30.7771 26.7381C30.7517 26.6474 30.7449 26.5525 30.7573 26.4591C30.7697 26.3658 30.8009 26.2759 30.8491 26.195C30.8973 26.1141 30.9615 26.0438 31.0377 25.9884C31.1139 25.9331 31.2006 25.8938 31.2924 25.8731Z" fill="#77B255"/>
<path d="M25.9731 24C25.8293 23.9998 25.6891 23.955 25.5718 23.8718C25.4545 23.7886 25.3659 23.671 25.3183 23.5354C25.2706 23.3997 25.2661 23.2526 25.3056 23.1143C25.345 22.976 25.4263 22.8533 25.5384 22.7632C25.6898 22.6417 29.3009 19.8056 34.4044 20.5354C34.4967 20.5459 34.586 20.5747 34.667 20.6203C34.7479 20.6659 34.8189 20.7272 34.8758 20.8007C34.9326 20.8743 34.9741 20.9584 34.9978 21.0483C35.0215 21.1381 35.027 21.2318 35.0138 21.3238C35.0006 21.4158 34.9692 21.5042 34.9212 21.5838C34.8733 21.6633 34.8099 21.7325 34.7347 21.7872C34.6596 21.8418 34.5742 21.8808 34.4837 21.9018C34.3932 21.9229 34.2994 21.9256 34.2078 21.9097C29.6988 21.2694 26.4391 23.8222 26.4071 23.8479C26.284 23.9465 26.1309 24.0001 25.9731 24Z" fill="#AA8DD8"/>
<path d="M13.996 21.1112C13.8877 21.1112 13.781 21.0859 13.6843 21.0373C13.5875 20.9887 13.5035 20.9182 13.4389 20.8314C13.3743 20.7446 13.3308 20.6438 13.312 20.5372C13.2932 20.4306 13.2996 20.3211 13.3307 20.2174C14.1175 17.5973 14.8307 13.416 13.9543 12.3258C13.8564 12.2021 13.7085 12.0806 13.3696 12.1063C12.7182 12.1563 12.78 13.5306 12.7807 13.5445C12.7895 13.6365 12.7799 13.7293 12.7524 13.8176C12.7249 13.9058 12.68 13.9877 12.6204 14.0583C12.5609 14.129 12.4878 14.1871 12.4055 14.2291C12.3232 14.2712 12.2334 14.2964 12.1412 14.3033C12.049 14.3102 11.9564 14.2986 11.8688 14.2692C11.7811 14.2399 11.7003 14.1933 11.6308 14.1323C11.5614 14.0712 11.5049 13.997 11.4646 13.9138C11.4243 13.8306 11.4009 13.7403 11.396 13.648C11.3245 12.6903 11.6224 10.8459 13.2654 10.7216C13.9988 10.666 14.6078 10.9209 15.0377 11.4556C16.6842 13.5049 15.0127 19.4459 14.6613 20.6167C14.6183 20.7597 14.5303 20.885 14.4105 20.9741C14.2907 21.0632 14.1453 21.1112 13.996 21.1112Z" fill="#77B255"/>
<path d="M27.7085 17.6388C28.2838 17.6388 28.7502 17.1724 28.7502 16.5971C28.7502 16.0218 28.2838 15.5554 27.7085 15.5554C27.1332 15.5554 26.6669 16.0218 26.6669 16.5971C26.6669 17.1724 27.1332 17.6388 27.7085 17.6388Z" fill="#5C913B"/>
<path d="M11.3889 23.8884C12.156 23.8884 12.7778 23.2665 12.7778 22.4995C12.7778 21.7324 12.156 21.1106 11.3889 21.1106C10.6218 21.1106 10 21.7324 10 22.4995C10 23.2665 10.6218 23.8884 11.3889 23.8884Z" fill="#9266CC"/>
<path d="M32.5694 24.5833C33.1447 24.5833 33.611 24.117 33.611 23.5417C33.611 22.9664 33.1447 22.5 32.5694 22.5C31.9941 22.5 31.5277 22.9664 31.5277 23.5417C31.5277 24.117 31.9941 24.5833 32.5694 24.5833Z" fill="#5C913B"/>
<path d="M26.3195 32.9168C26.8948 32.9168 27.3612 32.4505 27.3612 31.8752C27.3612 31.2999 26.8948 30.8335 26.3195 30.8335C25.7442 30.8335 25.2778 31.2999 25.2778 31.8752C25.2778 32.4505 25.7442 32.9168 26.3195 32.9168Z" fill="#5C913B"/>
<path d="M29.4447 14.1664C30.2117 14.1664 30.8336 13.5446 30.8336 12.7776C30.8336 12.0105 30.2117 11.3887 29.4447 11.3887C28.6776 11.3887 28.0558 12.0105 28.0558 12.7776C28.0558 13.5446 28.6776 14.1664 29.4447 14.1664Z" fill="#4DDFFF"/>
<path d="M32.5694 16.9442C33.1447 16.9442 33.611 16.4778 33.611 15.9025C33.611 15.3272 33.1447 14.8608 32.5694 14.8608C31.9941 14.8608 31.5277 15.3272 31.5277 15.9025C31.5277 16.4778 31.9941 16.9442 32.5694 16.9442Z" fill="#4DDFFF"/>
<path d="M30.4862 19.722C31.0615 19.722 31.5279 19.2556 31.5279 18.6803C31.5279 18.105 31.0615 17.6387 30.4862 17.6387C29.911 17.6387 29.4446 18.105 29.4446 18.6803C29.4446 19.2556 29.911 19.722 30.4862 19.722Z" fill="#4DDFFF"/>
<path d="M15.2087 27.3612C15.784 27.3612 16.2503 26.8948 16.2503 26.3195C16.2503 25.7442 15.784 25.2778 15.2087 25.2778C14.6334 25.2778 14.167 25.7442 14.167 26.3195C14.167 26.8948 14.6334 27.3612 15.2087 27.3612Z" fill="#FFCC4D"/>
</g>
<defs>
<linearGradient id="paint0_linear_97_1124" x1="23" y1="-15.5" x2="23" y2="31.5" gradientUnits="userSpaceOnUse">
<stop stop-color="#FFF9D9"/>
<stop offset="1" stop-color="#FFE769"/>
</linearGradient>
<clipPath id="clip0_97_1124">
<rect width="25" height="25" fill="white" transform="translate(9.99988 10)"/>
</clipPath>
</defs>
</svg>
