<svg width="45" height="45" viewBox="0 0 45 45" fill="none" xmlns="http://www.w3.org/2000/svg">
<circle cx="22.5" cy="22.5" r="22.5" fill="url(#paint0_linear_97_1127)"/>
<g clip-path="url(#clip0_97_1127)">
<path d="M32.2118 36.9426C32.2118 36.9426 32.2138 36.9131 32.2147 36.8571C32.2161 36.8008 32.2179 36.7171 32.2161 36.6088C32.2164 36.4996 32.211 36.3667 32.2045 36.2088C32.2014 36.0489 32.1786 35.8737 32.1554 35.6737L32.1131 35.3589C32.0963 35.2492 32.0813 35.1323 32.0549 35.016C32.031 34.8983 32.0058 34.7753 31.9768 34.6484C31.9479 34.5162 31.9171 34.3845 31.8842 34.2533C31.81 33.9866 31.7237 33.7039 31.6277 33.4051C31.576 33.2587 31.5187 33.1106 31.4616 32.9569C31.4013 32.8055 31.342 32.6477 31.2755 32.4904C31.2051 32.3361 31.1347 32.1767 31.0588 32.0163C30.9815 31.8572 30.9085 31.6891 30.8191 31.5303C30.6457 31.2082 30.467 30.87 30.2567 30.5438C30.153 30.3793 30.0497 30.2099 29.938 30.0443C29.8802 29.9613 29.8221 29.8775 29.763 29.7935C29.8651 29.3993 29.8722 28.9866 29.7837 28.5891C29.7837 28.5891 29.7116 28.2636 29.5625 27.6988C29.5237 27.558 29.4755 27.4034 29.4233 27.2351C29.3704 27.0669 29.3166 26.8841 29.2499 26.6915C29.1118 26.3077 28.9606 25.8731 28.76 25.4119L28.6109 25.0575C28.5583 24.9378 28.5 24.8179 28.4425 24.6952C28.3261 24.4504 28.2111 24.1952 28.0727 23.942C27.938 23.6873 27.8041 23.4238 27.6492 23.1636L27.4183 22.7679C27.3401 22.635 27.2545 22.5044 27.1718 22.3711C27.0874 22.2386 27.0025 22.1052 26.9147 21.9721L26.6415 21.5756C26.4631 21.3069 26.2584 21.0503 26.0623 20.7867C26.0055 20.7126 25.948 20.639 25.8898 20.5659L25.8875 20.0927C25.8881 20.0075 25.8838 19.9231 25.887 19.8374L25.8961 19.581C25.9027 19.4105 25.9078 19.2406 25.9105 19.0712C25.9103 18.9866 25.9181 18.9018 25.9241 18.8174C25.9305 18.7332 25.936 18.6489 25.9407 18.5646L25.9696 18.0636C25.9787 17.8975 25.9991 17.733 26.013 17.57C26.0593 16.9164 26.1397 16.2892 26.1948 15.7001C26.2145 15.5538 26.2316 15.4095 26.2484 15.268C26.2654 15.1294 26.2812 14.9907 26.2959 14.8518L26.3179 14.6503C26.3251 14.5839 26.3297 14.5176 26.3394 14.4534C26.3566 14.3279 26.3728 14.2023 26.388 14.0766C26.4169 13.8468 26.4433 13.6166 26.4672 13.3862L26.4837 13.228C26.4886 13.1763 26.4929 13.1252 26.4996 13.0761L26.5335 12.7937C26.5666 12.5132 26.5943 12.232 26.6167 11.9504C26.6317 11.7528 26.6363 11.6453 26.6363 11.6453L26.6369 11.6329C26.6398 11.5576 26.6197 11.4831 26.5794 11.4195C26.539 11.3558 26.4803 11.3059 26.411 11.2764C26.3417 11.2468 26.265 11.239 26.1912 11.254C26.1173 11.269 26.0497 11.306 25.9974 11.3603C25.9974 11.3603 25.9227 11.4378 25.7891 11.587C25.5972 11.8028 25.4101 12.0227 25.2278 12.2465C24.9863 12.5323 24.7244 12.8973 24.4255 13.3209C24.3484 13.4302 24.2722 13.5401 24.197 13.6507C24.1192 13.7646 24.0462 13.8857 23.969 14.0089C23.8897 14.1355 23.8115 14.2627 23.7344 14.3906C23.6549 14.5215 23.5735 14.6559 23.4926 14.7943C23.1843 15.3565 22.8518 15.9716 22.5599 16.6601C22.4976 16.8069 22.4307 16.954 22.3685 17.1058C22.1862 16.9688 22.0004 16.8387 21.8195 16.7095C21.5591 16.5352 21.3076 16.3622 21.0469 16.2094C20.9174 16.1321 20.7937 16.0521 20.6641 15.9808L20.2826 15.7703C20.0267 15.6375 19.7818 15.5078 19.5321 15.3985C19.408 15.3429 19.2895 15.2854 19.1679 15.2352L18.81 15.0908C18.694 15.0436 18.5753 15.0025 18.4617 14.9619C18.3477 14.9215 18.2368 14.8825 18.1247 14.849C18.0139 14.8143 17.9064 14.7807 17.8014 14.7501L17.4892 14.6691C17.4387 14.6565 17.3901 14.643 17.3407 14.6319L17.1934 14.6016L16.9162 14.5459L16.6542 14.5067C16.5716 14.4943 16.4926 14.4829 16.4141 14.4769C16.2579 14.4639 16.1295 14.4498 15.9893 14.4465L15.8072 14.441C15.7803 14.4406 15.7517 14.4393 15.7299 14.4405L15.6722 14.4459C15.5267 14.4593 15.4487 14.4687 15.4487 14.4687C15.2169 14.4984 14.9993 14.6409 14.8889 14.8665C14.7144 15.2232 14.8621 15.6537 15.2187 15.8282L15.2207 15.8291C15.2207 15.8291 15.2913 15.8637 15.4244 15.9243L15.4772 15.9484C15.4941 15.957 15.5056 15.9667 15.521 15.9761L15.6149 16.0371L15.8671 16.1994C15.8914 16.2157 15.9164 16.2299 15.9422 16.2476L16.0215 16.3028L16.1894 16.4192L16.3704 16.5533L16.465 16.6235L16.5626 16.7001C16.8271 16.9003 17.1161 17.1536 17.4246 17.427C17.5774 17.5686 17.7357 17.7137 17.8959 17.8708L18.0172 17.9878L18.1378 18.1113C18.2192 18.1936 18.3026 18.2745 18.3848 18.3602C18.5471 18.5356 18.7163 18.7087 18.882 18.8956C18.9655 18.9877 19.0501 19.0798 19.1318 19.1779L19.3841 19.4663L19.6316 19.768C19.7166 19.8664 19.7981 19.9704 19.8803 20.0742C20.0471 20.2789 20.2056 20.4957 20.369 20.7086C20.6581 21.1042 20.9492 21.5032 21.2175 21.919C21.2107 22.0077 21.204 22.0963 21.1979 22.1855C21.1869 22.3013 21.1893 22.4207 21.1863 22.5391C21.1841 22.658 21.183 22.777 21.183 22.8959L21.1835 23.1437C21.0178 23.0764 20.8489 23.0167 20.6837 22.954L20.3808 22.8415C20.2813 22.8024 20.1765 22.7739 20.0753 22.74C19.8713 22.6755 19.6703 22.6096 19.4699 22.549C19.2673 22.4923 19.0649 22.4403 18.8662 22.3874L18.5687 22.3127L18.2705 22.2488C18.0728 22.2075 17.8771 22.17 17.6851 22.1319C17.4905 22.099 17.2969 22.0736 17.1081 22.0455C17.0134 22.0322 16.9201 22.0178 16.8268 22.0061C16.7334 21.9948 16.639 21.988 16.5467 21.9791C16.3652 21.9621 16.1836 21.947 16.0019 21.9339C15.8241 21.9201 15.6458 21.9196 15.4739 21.9151C15.3011 21.9127 15.1346 21.9047 14.9688 21.9108C14.8029 21.9167 14.6417 21.9221 14.4849 21.9307C14.3282 21.939 14.177 21.9436 14.0275 21.9634C13.8788 21.9798 13.7352 21.9948 13.5966 22.0128L13.3927 22.0384C13.3262 22.0458 13.2597 22.0611 13.1952 22.0723C13.066 22.0967 12.9422 22.1192 12.8238 22.1438L12.6504 22.179C12.5936 22.1908 12.5402 22.2011 12.483 22.2168C12.371 22.2458 12.2651 22.2732 12.1655 22.3014C12.0717 22.3269 11.9783 22.3537 11.8853 22.3818C11.7983 22.4082 11.7147 22.4313 11.6496 22.4596C11.5131 22.5114 11.3974 22.5628 11.3034 22.6007C11.1156 22.6801 11.0158 22.727 11.0158 22.727C10.8662 22.798 10.7438 22.9306 10.692 23.1016C10.5946 23.4234 10.7766 23.7633 11.0984 23.8607L11.0987 23.8608C11.0987 23.8608 11.2043 23.8927 11.4017 23.9441C11.5002 23.9679 11.6221 24.0021 11.7648 24.0336C11.8392 24.0479 11.9061 24.0726 11.9796 24.0965C12.0529 24.1212 12.13 24.1451 12.2106 24.1703L12.4621 24.2476C12.5494 24.2748 12.6479 24.3103 12.7455 24.3426C12.943 24.4119 13.1532 24.4703 13.3759 24.559C13.5985 24.644 13.8323 24.7191 14.076 24.8236C14.1977 24.8738 14.3222 24.9219 14.4487 24.9714C14.5121 24.9943 14.5755 25.026 14.6399 25.0533L14.8344 25.1376L15.0318 25.223C15.0982 25.2512 15.1653 25.2769 15.2323 25.3104C15.3664 25.3743 15.5025 25.4383 15.6407 25.5007C15.7097 25.5328 15.7794 25.5625 15.8489 25.597C15.9181 25.6331 15.9885 25.6668 16.0588 25.7018C16.1998 25.771 16.3416 25.8429 16.4861 25.9114C16.6293 25.987 16.7734 26.0648 16.9196 26.1401L17.1401 26.2532L17.3601 26.3774C17.508 26.4589 17.6577 26.5382 17.8072 26.6222C17.9555 26.7109 18.1065 26.796 18.2574 26.8835C18.4089 26.9687 18.5597 27.0614 18.7113 27.1538L18.9393 27.2922C19.0156 27.3382 19.0932 27.3819 19.1684 27.432C19.3205 27.5284 19.472 27.6273 19.6263 27.722C19.7039 27.7682 19.7799 27.8188 19.8557 27.87L20.0842 28.0222C20.3944 28.2153 20.6921 28.4377 21.0015 28.6397C21.1525 28.7478 21.3016 28.859 21.4546 28.9643C21.5303 29.0183 21.6079 29.0692 21.6821 29.1255L21.9055 29.2934C22.0541 29.4057 22.2084 29.5095 22.3543 29.6252L22.5743 29.7967L22.7964 29.9645C22.8713 30.0193 22.9434 30.0775 23.0151 30.1361L23.2308 30.3102C23.3756 30.4248 23.522 30.5365 23.662 30.6549C23.8033 30.7707 23.9457 30.8852 24.0893 30.9983C24.2295 31.1139 24.3673 31.2311 24.5078 31.3441C24.5773 31.4012 24.6475 31.4574 24.7183 31.5128L24.9226 31.6856C25.0573 31.8016 25.1965 31.9116 25.3327 32.0231C25.4637 32.1393 25.5983 32.2503 25.731 32.3616C25.7977 32.4168 25.8628 32.4733 25.9304 32.5267L26.1238 32.6941C26.2513 32.806 26.3818 32.9134 26.5106 33.0204C26.634 33.1297 26.7584 33.2379 26.8837 33.3449C27.1362 33.5548 27.3686 33.7696 27.6068 33.9711C27.7262 34.0719 27.8387 34.1741 27.9507 34.2745C28.0627 34.3749 28.1767 34.4713 28.2869 34.5676L28.6053 34.8548L28.9175 35.1285C29.1147 35.3106 29.3063 35.484 29.4933 35.6459C29.6615 35.8042 29.8322 35.9598 30.0052 36.1127C30.0874 36.1847 30.1635 36.2552 30.2356 36.3237L30.4476 36.5181C30.7265 36.7618 30.9368 36.9643 31.0938 37.0992C31.1705 37.1673 31.2324 37.2189 31.2743 37.2537C31.3157 37.2887 31.3387 37.3064 31.3387 37.3064L31.3629 37.3251C31.4453 37.3885 31.5447 37.4261 31.6485 37.4331C31.9397 37.4534 32.1918 37.2336 32.2118 36.9426Z" fill="#00B89C"/>
<path d="M33.0309 37.7154C33.0309 37.7154 33.0048 37.593 32.9486 37.3671C32.8664 37.0422 32.7781 36.7189 32.6835 36.3974C32.6143 36.1697 32.5424 35.9429 32.468 35.7168C32.3875 35.4699 32.2986 35.2036 32.1942 34.9229C32.1417 34.7776 32.088 34.6327 32.0332 34.4882C31.9773 34.3391 31.92 34.1856 31.8572 34.0299C31.7932 33.8699 31.7278 33.7104 31.6612 33.5515C31.5924 33.3846 31.5222 33.2182 31.4509 33.0523C31.3033 32.7138 31.141 32.3648 30.9724 32.0034C30.8001 31.6435 30.6117 31.2758 30.4191 30.8966C30.3373 30.7467 30.2549 30.5944 30.1714 30.441L30.1351 30.2694C30.1168 30.1805 30.0963 30.092 30.0763 30.0031C30.0576 29.914 30.0322 29.8259 30.0201 29.735C29.9914 29.5541 29.9583 29.3738 29.9255 29.1925C29.8878 29.0119 29.8716 28.8276 29.8452 28.6445L29.8078 28.3692L29.7888 28.2313L29.777 28.0926L29.7267 27.5371C29.6784 26.7941 29.6714 26.0455 29.7129 25.2984C29.7298 25.1115 29.7435 24.9248 29.7579 24.7383C29.7626 24.645 29.7762 24.5519 29.7888 24.459L29.8217 24.1797C29.8336 24.0868 29.8405 23.9937 29.856 23.9011L29.903 23.6234C29.9318 23.4382 29.9549 23.2529 29.9967 23.0693C30.0344 22.8853 30.061 22.7005 30.1017 22.5176C30.1448 22.335 30.181 22.1514 30.22 21.9693C30.3094 21.6057 30.3886 21.2429 30.4881 20.8851C30.576 20.526 30.6854 20.1728 30.7789 19.8215C30.834 19.6476 30.8838 19.4731 30.9339 19.3005L30.9714 19.1714L31.0119 19.0432L31.0909 18.7879C31.1906 18.4482 31.3036 18.1172 31.4014 17.7914L31.557 17.3112C31.5829 17.2325 31.6065 17.1533 31.6306 17.0752C31.6546 16.9969 31.6816 16.9202 31.7067 16.8438L31.9908 15.9548L32.2452 15.1369L32.3586 14.7585C32.3964 14.6367 32.4309 14.5178 32.4641 14.4035L32.6425 13.7685C32.6944 13.5745 32.7396 13.4003 32.7764 13.2461C32.814 13.0924 32.8467 12.9618 32.8694 12.8532C32.8939 12.7459 32.9103 12.6619 32.9213 12.6052C32.9272 12.5765 32.9326 12.5477 32.9374 12.5188L32.9382 12.5138C32.952 12.4235 32.9397 12.3311 32.9027 12.2476C32.8657 12.1641 32.8055 12.0929 32.7293 12.0425C32.6532 11.9921 32.5641 11.9646 32.4728 11.9633C32.3814 11.9619 32.2916 11.9868 32.214 12.0348C32.214 12.0348 32.1881 12.0509 32.1403 12.0836C32.0922 12.1161 32.0207 12.1644 31.9307 12.2296C31.7488 12.3588 31.4884 12.5528 31.172 12.8142L30.9239 13.0219C30.8394 13.0966 30.7493 13.1739 30.6585 13.2567C30.475 13.4212 30.2787 13.6011 30.0774 13.8019C29.975 13.9011 29.8726 14.0057 29.7659 14.113C29.6596 14.2209 29.5557 14.3363 29.4458 14.4528C29.3379 14.5708 29.2267 14.691 29.1159 14.818L28.7821 15.2125C28.6665 15.3508 28.5541 15.4916 28.4448 15.6349C28.334 15.7816 28.2166 15.9287 28.1052 16.0841C27.8846 16.3978 27.6535 16.7208 27.4394 17.0727C27.2168 17.418 27.01 17.7906 26.8016 18.1738C26.6997 18.3706 26.6009 18.569 26.5053 18.769C26.4052 18.9692 26.3141 19.1786 26.2256 19.3908C26.1367 19.603 26.0416 19.8149 25.9657 20.0384L25.845 20.3719C25.8054 20.484 25.7622 20.5946 25.729 20.7103C25.6603 20.9406 25.5881 21.172 25.5222 21.4063L25.4973 21.4942L25.4757 21.5836L25.4328 21.7629C25.4047 21.8827 25.3747 22.0025 25.3482 22.1233C25.2903 22.3633 25.251 22.6104 25.2075 22.857L25.1476 23.2284C25.1282 23.3525 25.1174 23.4788 25.1021 23.6041C25.0998 23.6263 25.0972 23.6485 25.0948 23.6707C24.9897 23.5675 24.8835 23.4655 24.7761 23.3647L24.1957 22.8404C24.0995 22.7531 23.9979 22.6705 23.8974 22.5871L23.596 22.3377C23.495 22.2553 23.3969 22.1706 23.2938 22.0908L22.9827 21.8546C22.153 21.2294 21.2818 20.6728 20.3899 20.2217C20.17 20.1045 19.9456 19.9984 19.7221 19.8972C19.4987 19.7958 19.2804 19.6909 19.0545 19.6066L18.7214 19.4747C18.6109 19.4315 18.5022 19.3865 18.3907 19.3495C18.168 19.2746 17.9497 19.1987 17.7321 19.1305C16.8591 18.8652 16.0206 18.6745 15.2388 18.5737C14.4596 18.4617 13.7409 18.4291 13.108 18.4315C12.95 18.43 12.7966 18.4369 12.6488 18.4442C12.5067 18.4504 12.3646 18.4582 12.2227 18.4677L12.0228 18.481L11.8276 18.5007C11.7006 18.5132 11.5794 18.5292 11.4653 18.5424C11.0009 18.594 10.6746 18.6776 10.4391 18.7314C10.35 18.7522 10.2613 18.7745 10.173 18.7985C10.1127 18.8141 10.0813 18.8239 10.0813 18.8239C9.91583 18.8755 9.77279 18.9819 9.67569 19.1255C9.43889 19.4755 9.53066 19.9512 9.88069 20.188C9.88069 20.188 9.90788 20.2065 9.96115 20.2388C10.0143 20.2719 10.0932 20.3202 10.1967 20.3796C10.4002 20.5002 10.7203 20.6657 11.0703 20.8735C11.1602 20.9235 11.2539 20.9781 11.3523 21.0311L11.5027 21.1141L11.6617 21.2044C11.8769 21.3295 12.1117 21.4492 12.3556 21.5889C12.8439 21.8661 13.3869 22.1627 13.9562 22.4999C14.5302 22.8261 15.1265 23.1998 15.7449 23.5866C15.8971 23.6887 16.0536 23.7854 16.2103 23.8852L16.679 24.1984L16.7975 24.277C16.8376 24.3023 16.8775 24.328 16.9164 24.3561L17.1525 24.5211C17.3094 24.6334 17.474 24.7343 17.63 24.854C18.2699 25.3027 18.9129 25.7905 19.5612 26.3022C19.7238 26.4291 19.8882 26.5552 20.0487 26.6902L20.2916 26.8894C20.3727 26.9559 20.4545 27.0213 20.5332 27.0925L21.0164 27.5059C21.0967 27.5756 21.1741 27.6499 21.254 27.7208L21.4939 27.9342C21.6561 28.0733 21.8088 28.2268 21.9676 28.3723L22.2053 28.5915C22.285 28.6638 22.3606 28.7423 22.4385 28.8172C22.5923 28.9698 22.7518 29.1159 22.9059 29.2679C23.0576 29.4227 23.2109 29.5759 23.3658 29.7275C23.9729 30.3458 24.5753 30.9633 25.1491 31.5845C25.2926 31.7395 25.4383 31.8901 25.5786 32.0451C25.7201 32.1988 25.8584 32.3526 25.9997 32.5019L26.8169 33.3948L27.2099 33.8299C27.3389 33.9732 27.4708 34.1109 27.5954 34.2511C27.8459 34.531 28.0923 34.7991 28.3303 35.0575C28.4471 35.1884 28.5638 35.3154 28.678 35.4396C28.758 35.5273 28.8386 35.6145 28.9198 35.7012L29.019 35.8203C29.0729 35.8832 29.1304 35.9419 29.1849 36.0015C29.4159 36.2513 29.6502 36.4979 29.8876 36.7415L29.9175 36.77L30.2003 37.069C30.3605 37.2373 30.5224 37.4039 30.6862 37.5687C30.9816 37.8705 31.2189 38.1063 31.3848 38.2648C31.5507 38.4235 31.6431 38.5061 31.6431 38.5061L31.6558 38.5175C31.7539 38.6045 31.8711 38.6672 31.9979 38.7006C32.1247 38.7339 32.2576 38.737 32.3858 38.7096C32.8387 38.6131 33.1274 38.168 33.0309 37.7154Z" fill="#009E83"/>
<path d="M24.2955 22.38L24.3356 22.3875C24.3618 22.3926 24.4027 22.3991 24.4504 22.4107C24.4997 22.4213 24.559 22.4353 24.6253 22.4538C24.6941 22.4708 24.7674 22.4936 24.8496 22.5192C25.0142 22.5701 25.2005 22.6397 25.4039 22.7254C25.6064 22.8116 25.82 22.9173 26.0367 23.0419C26.4704 23.291 26.9101 23.6194 27.3004 24.0173C27.694 24.4133 28.0357 24.8802 28.3095 25.3858C28.4462 25.6387 28.5686 25.8999 28.6721 26.1664C28.777 26.4323 28.8609 26.705 28.9294 26.9761C29.0645 27.5195 29.1223 28.0654 29.1214 28.5622C29.1206 28.8107 29.108 29.0453 29.0819 29.2618C29.0691 29.3698 29.0591 29.4699 29.0411 29.5674C29.0259 29.6633 29.0111 29.7518 28.9924 29.8349L28.968 29.9514L28.9417 30.057C28.9264 30.1219 28.9092 30.1795 28.8959 30.2259C28.8835 30.2717 28.8692 30.3096 28.8616 30.334L28.8492 30.3714C28.7334 30.7208 28.3703 30.9201 28.0185 30.8448L27.9799 30.8364C27.9552 30.8305 27.9152 30.8235 27.8695 30.8107C27.8227 30.7986 27.7644 30.7841 27.7008 30.7641L27.5966 30.7329L27.4839 30.6945C27.4029 30.6683 27.3191 30.6359 27.2289 30.6C27.1359 30.5659 27.0447 30.5235 26.9452 30.4794C26.7457 30.3915 26.5374 30.2827 26.3231 30.1567C25.8953 29.9043 25.4551 29.5762 25.0565 29.183C24.8582 28.9859 24.6663 28.7747 24.4911 28.5489C24.3145 28.3239 24.1522 28.0856 24.0043 27.839C23.7088 27.3458 23.4814 26.8138 23.3414 26.2733C23.198 25.7347 23.1396 25.189 23.1464 24.6889C23.1491 24.4529 23.1659 24.2172 23.1967 23.9831C23.2266 23.7645 23.2617 23.5688 23.3017 23.4012C23.3217 23.3174 23.3394 23.2428 23.3598 23.1749C23.3778 23.1085 23.396 23.0503 23.4119 23.0024C23.4262 22.9555 23.4416 22.917 23.4505 22.8919L23.4645 22.8535C23.591 22.5089 23.9464 22.3149 24.2955 22.38Z" fill="#FF473E"/>
<path d="M21.7982 24.8245L21.8373 24.8154C21.8628 24.8097 21.9022 24.7994 21.9495 24.7911C21.998 24.7812 22.0567 24.7705 22.1233 24.761C22.1917 24.7492 22.2662 24.7409 22.3498 24.7315C22.517 24.7126 22.7104 24.7019 22.9249 24.699C23.1538 24.6972 23.3826 24.7092 23.61 24.7349C24.0908 24.7885 24.6048 24.9111 25.0982 25.1159C25.594 25.3177 26.0676 25.6037 26.493 25.9515C26.7056 26.1255 26.9081 26.3126 27.0954 26.5121C27.2837 26.7102 27.4552 26.923 27.6123 27.1403C27.9251 27.5766 28.1687 28.0457 28.3417 28.4937C28.428 28.7181 28.4987 28.9344 28.5508 29.1397C28.5771 29.2422 28.603 29.3362 28.6208 29.4312C28.6406 29.5235 28.6581 29.6092 28.6702 29.6914L28.6889 29.806L28.702 29.9115C28.7109 29.976 28.7155 30.0347 28.7195 30.0817C28.7243 30.1279 28.7246 30.1677 28.7263 30.1926L28.7281 30.2312C28.7456 30.5984 28.4898 30.9152 28.14 30.985L28.1021 30.9926C28.0776 30.9971 28.0389 31.0065 27.993 31.0131C27.9463 31.0205 27.8883 31.0304 27.8236 31.0375L27.7181 31.0504L27.6024 31.0601C27.5197 31.0684 27.4324 31.0723 27.338 31.0755C27.2416 31.0813 27.144 31.0791 27.0383 31.0786C26.8264 31.078 26.5994 31.062 26.3608 31.0329C25.8842 30.974 25.3699 30.8518 24.8706 30.6545C24.6216 30.555 24.3736 30.4404 24.1355 30.306C23.8965 30.1728 23.6658 30.0219 23.4453 29.8581C23.0045 29.53 22.6119 29.1402 22.2956 28.7084C21.9769 28.2795 21.733 27.8109 21.5641 27.3575C21.4838 27.1432 21.4165 26.9242 21.3626 26.7018C21.3132 26.4929 21.2766 26.3028 21.2543 26.136C21.243 26.0527 21.233 25.9784 21.2277 25.9092C21.2216 25.8506 21.2173 25.792 21.2146 25.7332C21.2112 25.6853 21.2117 25.6446 21.2109 25.6184L21.2103 25.5783C21.204 25.2132 21.4564 24.904 21.7982 24.8245ZM18.0686 13.2786L18.0561 13.3128C18.0481 13.3352 18.0345 13.3694 18.0217 13.4113C18.0048 13.462 17.9893 13.5133 17.9753 13.5649C17.9571 13.6254 17.9413 13.6919 17.9236 13.7665C17.8879 13.9158 17.8566 14.0902 17.83 14.285C17.8026 14.4936 17.7876 14.7036 17.7852 14.9139C17.7792 15.3594 17.8312 15.8456 17.9589 16.3254C18.0837 16.807 18.2863 17.281 18.5496 17.7205C18.6809 17.9401 18.8257 18.1514 18.9833 18.353C19.1394 18.5542 19.3104 18.7423 19.4871 18.9179C19.8421 19.2682 20.2343 19.5605 20.6155 19.7854C20.8064 19.8977 20.992 19.9946 21.1697 20.0729C21.2584 20.1122 21.3396 20.15 21.4225 20.1804C21.5028 20.2124 21.5775 20.2412 21.6496 20.2646L21.75 20.2988L21.8428 20.3266C21.8995 20.3444 21.9514 20.3574 21.9931 20.3682C22.0338 20.3795 22.0694 20.3857 22.0915 20.391L22.1259 20.3985C22.4393 20.4656 22.7627 20.288 22.8659 19.9767L22.877 19.9434C22.8837 19.9217 22.8966 19.8879 22.9076 19.8471C22.9195 19.8057 22.9348 19.7544 22.9484 19.6966L22.9718 19.6026L22.9935 19.4988C23.0102 19.4247 23.0234 19.3459 23.0369 19.2605C23.0529 19.1736 23.0619 19.0845 23.0733 18.9882C23.0965 18.7953 23.1077 18.5863 23.1084 18.3648C23.1092 17.9222 23.0577 17.4358 22.9373 16.9518C22.8762 16.7103 22.8016 16.4673 22.7081 16.2304C22.615 15.9921 22.5071 15.7598 22.385 15.5349C22.1411 15.0844 21.8366 14.6685 21.4859 14.3156C21.1382 13.9611 20.7464 13.6685 20.36 13.4466C20.1779 13.3415 19.9896 13.2473 19.7962 13.1646C19.615 13.0882 19.4491 13.0262 19.3024 12.9808C19.2292 12.958 19.1639 12.9377 19.1026 12.9225C19.051 12.9082 18.9991 12.8954 18.9468 12.8841C18.9043 12.8738 18.8678 12.8681 18.8445 12.8635L18.8087 12.8569C18.4978 12.7988 18.1811 12.9717 18.0686 13.2786Z" fill="#FFA9BA"/>
<path d="M27.7892 21.8293L27.8234 21.8503C27.8455 21.8643 27.8808 21.8846 27.9203 21.912C27.9616 21.9391 28.0109 21.9728 28.065 22.0129C28.1218 22.0527 28.1806 22.0993 28.2466 22.1514C28.3787 22.2556 28.5236 22.3841 28.6781 22.533C28.842 22.6928 28.9961 22.8623 29.1396 23.0406C29.4435 23.417 29.7223 23.8658 29.9288 24.3586C30.1392 24.8508 30.2743 25.3873 30.3319 25.9338C30.3605 26.207 30.3726 26.4824 30.3654 26.7559C30.3597 27.0293 30.3319 27.3011 30.2905 27.566C30.2058 28.0961 30.0487 28.6009 29.8564 29.0409C29.7599 29.261 29.6579 29.4645 29.5504 29.647C29.497 29.7383 29.4491 29.8234 29.395 29.9033C29.3441 29.9829 29.2963 30.0561 29.247 30.123L29.1797 30.2176L29.1147 30.3017C29.0757 30.3538 29.0376 30.3987 29.0074 30.435C28.9783 30.4712 28.9505 30.4997 28.9342 30.5185L28.9083 30.5472C28.6624 30.8204 28.2577 30.8655 27.96 30.6689L27.9277 30.6477C27.9072 30.6335 27.873 30.613 27.8358 30.5853C27.7973 30.5578 27.7492 30.524 27.6983 30.4835L27.6142 30.4184L27.5251 30.3439C27.4605 30.2917 27.3958 30.2329 27.3265 30.1688C27.2539 30.1051 27.1861 30.0348 27.1114 29.96C26.9613 29.8105 26.8112 29.6394 26.6622 29.4508C26.365 29.0736 26.0856 28.6249 25.8696 28.1333C25.7627 27.8875 25.6671 27.6315 25.5926 27.3684C25.5165 27.1056 25.4587 26.8361 25.4174 26.5645C25.3351 26.0212 25.3304 25.468 25.4096 24.9385C25.4849 24.4097 25.6414 23.905 25.8404 23.464C25.9341 23.2552 26.0404 23.0523 26.1587 22.8563C26.2706 22.6732 26.3784 22.5122 26.4799 22.378C26.5305 22.3109 26.5756 22.251 26.6206 22.1982C26.6628 22.1458 26.702 22.1007 26.7351 22.064C26.7664 22.0275 26.7953 21.9989 26.8132 21.9799L26.841 21.9509C27.0934 21.6873 27.4904 21.6452 27.7892 21.8293ZM16.0599 15.7064L16.0605 15.7422C16.0611 15.7655 16.0607 15.8018 16.0638 15.8445C16.0658 15.8885 16.0692 15.9416 16.0754 16.0012C16.0801 16.0629 16.0891 16.1291 16.099 16.2033C16.1189 16.3519 16.1516 16.5213 16.1956 16.7074C16.2436 16.9055 16.3035 17.1007 16.3751 17.2916C16.5256 17.6955 16.7429 18.1131 17.0268 18.4951C17.3086 18.8798 17.6584 19.2272 18.0512 19.5194C18.2472 19.6657 18.4527 19.799 18.6661 19.9185C18.8782 20.0383 19.0992 20.1404 19.3211 20.229C19.7659 20.4048 20.2241 20.5137 20.6488 20.5661C20.8613 20.5921 21.0636 20.6063 21.2523 20.6068C21.3465 20.6073 21.4335 20.6093 21.5193 20.6041C21.6034 20.6012 21.6813 20.5978 21.7549 20.5904L21.858 20.5818L21.952 20.5702C22.0096 20.5639 22.0614 20.5551 22.103 20.5484C22.1439 20.5426 22.1783 20.5342 22.2002 20.5302L22.234 20.5234C22.5457 20.4612 22.7736 20.1789 22.758 19.8518L22.7564 19.8174C22.7549 19.7952 22.7547 19.7598 22.7504 19.7187C22.7468 19.6767 22.7427 19.6244 22.7348 19.567L22.7231 19.473L22.7065 19.3709C22.6957 19.2976 22.6801 19.2213 22.6625 19.139C22.6466 19.0545 22.6235 18.9706 22.6001 18.8794C22.5537 18.6964 22.4907 18.5037 22.4138 18.3039C22.2597 17.9047 22.0426 17.4868 21.7639 17.098C21.624 16.9044 21.4712 16.7149 21.3034 16.5383C21.1356 16.3603 20.9563 16.1935 20.7667 16.0389C20.3877 15.729 19.9658 15.4742 19.524 15.2944C19.0844 15.112 18.6265 15.0028 18.1982 14.955C17.9956 14.932 17.7917 14.9213 17.5878 14.923C17.3967 14.9256 17.2243 14.9351 17.0754 14.952C17.001 14.9604 16.9346 14.9677 16.8737 14.9782C16.8144 14.9867 16.7621 14.9962 16.7188 15.005C16.6767 15.0124 16.6416 15.0217 16.6189 15.0267L16.584 15.0349C16.2793 15.1056 16.0544 15.3812 16.0599 15.7064Z" fill="#FF6E83"/>
<path d="M21.9214 12.3663L21.9518 12.385C21.9716 12.3974 22.0029 12.4156 22.0381 12.44C22.075 12.4642 22.1189 12.4942 22.1671 12.5299C22.2177 12.5654 22.2701 12.6068 22.3288 12.6532C22.4466 12.7461 22.5756 12.8606 22.7133 12.9933C22.8593 13.1356 22.9966 13.2866 23.1245 13.4455C23.3952 13.7809 23.6437 14.1807 23.8276 14.6197C24.015 15.0583 24.1355 15.5362 24.1867 16.0231C24.2126 16.2664 24.2226 16.511 24.2166 16.7556C24.2115 16.9991 24.1867 17.2413 24.1499 17.4774C24.0743 17.9497 23.9344 18.3994 23.7631 18.7914C23.6771 18.9875 23.5862 19.1688 23.4905 19.3314C23.4428 19.4127 23.4003 19.4885 23.352 19.5598C23.3066 19.6306 23.264 19.6959 23.2202 19.7555L23.1602 19.8398L23.1024 19.9147C23.0676 19.9611 23.0336 20.0011 23.0067 20.0335C22.9808 20.0658 22.956 20.0911 22.9414 20.1079L22.9184 20.1335C22.6993 20.3769 22.3387 20.4171 22.0734 20.242L22.0447 20.223C22.0264 20.2104 21.9959 20.1922 21.9628 20.1675C21.9286 20.143 21.8856 20.1128 21.8402 20.0767L21.7653 20.0188L21.686 19.9524C21.6284 19.9058 21.5707 19.8535 21.5089 19.7964C21.4443 19.7396 21.3839 19.677 21.3173 19.6104C21.1836 19.4772 21.0499 19.3247 20.9172 19.1568C20.6523 18.8207 20.4034 18.4208 20.211 17.9829C20.1158 17.7638 20.0306 17.5358 19.9643 17.3014C19.8967 17.0663 19.8445 16.827 19.8081 16.5851C19.7347 16.1011 19.7306 15.6082 19.8011 15.1366C19.8683 14.6653 20.0077 14.2157 20.1849 13.8228C20.2685 13.6368 20.3632 13.456 20.4686 13.2814C20.5682 13.1183 20.6643 12.9749 20.7547 12.8554C20.7998 12.7956 20.84 12.7423 20.8801 12.6952C20.9177 12.6485 20.9525 12.6083 20.9821 12.5756C21.0099 12.5432 21.0358 12.5176 21.0517 12.5007L21.0765 12.4749C21.3015 12.2398 21.6552 12.2023 21.9214 12.3663Z" fill="#FF473E"/>
<path d="M30.794 13.0216L30.8139 13.0473C30.8267 13.0642 30.8475 13.0897 30.8696 13.1218C30.8932 13.1543 30.9209 13.1941 30.9505 13.2401C30.9823 13.2866 31.0136 13.339 31.0488 13.3977C31.1194 13.5151 31.193 13.6551 31.2682 13.8137C31.3477 13.9838 31.417 14.1584 31.4757 14.3367C31.6009 14.7143 31.6876 15.142 31.7081 15.5848C31.7317 16.0282 31.6869 16.4861 31.5813 16.931C31.5287 17.1533 31.4624 17.372 31.3826 17.5861C31.304 17.7993 31.2092 18.0054 31.1061 18.2025C30.907 18.578 30.6631 18.928 30.3795 19.2447C30.2473 19.3916 30.1155 19.5241 29.9854 19.6386C29.9205 19.6959 29.8616 19.7499 29.7992 19.7982C29.7395 19.847 29.6837 19.8917 29.6286 19.931L29.5524 19.9872L29.4809 20.0358C29.4374 20.0662 29.3967 20.0913 29.3642 20.1117C29.3326 20.1322 29.304 20.1471 29.2866 20.1576L29.2594 20.1732C29.0056 20.319 28.6847 20.2448 28.516 20.0137L28.4976 19.9883C28.486 19.9716 28.466 19.9463 28.4457 19.9145C28.4244 19.8826 28.3975 19.843 28.3704 19.7975L28.3251 19.7238L28.2787 19.6413C28.2446 19.5828 28.2121 19.5192 28.1776 19.4502C28.1405 19.3806 28.1089 19.3071 28.0733 19.2283C28.0015 19.0704 27.9357 18.8956 27.8755 18.7073C27.7468 18.3022 27.6679 17.8829 27.6404 17.4587C27.6273 17.2367 27.6254 17.0099 27.6412 16.7832C27.6562 16.5553 27.6854 16.3285 27.7287 16.1043C27.8149 15.6552 27.962 15.2192 28.1654 14.8246C28.3658 14.4292 28.6203 14.0747 28.8893 13.7818C29.0161 13.6432 29.1509 13.5124 29.2931 13.3899C29.4268 13.2761 29.5513 13.1786 29.6638 13.1005C29.7201 13.0614 29.7701 13.0265 29.8182 12.9971C29.8582 12.971 29.899 12.9461 29.9405 12.9224C29.9739 12.9022 30.0033 12.8875 30.0219 12.8773L30.0506 12.862C30.308 12.7248 30.6216 12.7981 30.794 13.0216ZM12.5509 24.2285L12.5568 24.2605C12.5609 24.2812 12.5659 24.3138 12.5751 24.3517C12.5835 24.391 12.5946 24.4381 12.6092 24.4909C12.6226 24.5456 12.6408 24.6039 12.6609 24.6694C12.7013 24.8004 12.7564 24.9485 12.8244 25.1103C12.898 25.283 12.9818 25.4512 13.0754 25.6139C13.273 25.959 13.5337 26.3091 13.8497 26.6199C14.1642 26.9333 14.5351 27.2056 14.9369 27.4239C15.1375 27.5331 15.3447 27.6297 15.5573 27.7131C15.7686 27.7968 15.9854 27.8638 16.201 27.9185C16.6135 28.021 17.0369 28.0728 17.462 28.0729C17.6597 28.0725 17.8463 28.0628 18.0184 28.0423C18.1044 28.0323 18.184 28.0244 18.2615 28.0102C18.3378 27.9983 18.4082 27.9865 18.4743 27.9717L18.567 27.9525L18.6509 27.9316C18.7025 27.9196 18.7484 27.906 18.7853 27.8954C18.8218 27.8856 18.8519 27.8742 18.8713 27.8682L18.901 27.8584C19.1724 27.7677 19.3404 27.4844 19.2783 27.1983L19.2717 27.1677C19.267 27.1479 19.2615 27.1162 19.2515 27.0799C19.2419 27.0426 19.2303 26.9963 19.2146 26.9456L19.1899 26.8628L19.1594 26.7731C19.1387 26.7087 19.113 26.642 19.0846 26.5703C19.0575 26.4963 19.0239 26.4237 18.989 26.3445C18.9193 26.1858 18.833 26.0201 18.733 25.8495C18.5172 25.4833 18.2576 25.1448 17.96 24.8413C17.8035 24.6833 17.6358 24.5305 17.4564 24.3909C17.2767 24.25 17.0883 24.1205 16.8924 24.0031C16.5004 23.7675 16.0776 23.5861 15.6479 23.4742C15.2198 23.3595 14.7859 23.3125 14.3882 23.3174C14.2005 23.3194 14.013 23.3325 13.8269 23.3566C13.653 23.3802 13.4973 23.4079 13.364 23.4396C13.2974 23.4553 13.238 23.4693 13.184 23.4855C13.1311 23.4997 13.0848 23.5141 13.0467 23.5268C13.0094 23.5381 12.9788 23.5503 12.9588 23.5573L12.9283 23.5685C12.6629 23.665 12.498 23.9415 12.5509 24.2285Z" fill="#FFE1AB"/>
<path d="M28.0179 13.1475L28.0459 13.1628C28.064 13.1729 28.0929 13.1877 28.1254 13.2078C28.1593 13.2277 28.1998 13.2524 28.2444 13.2821C28.2911 13.3114 28.3397 13.3459 28.3942 13.3847C28.5034 13.462 28.6237 13.5582 28.7525 13.6702C28.8892 13.7904 29.0185 13.9187 29.1397 14.0545C29.3964 14.341 29.6361 14.6861 29.8202 15.069C30.0073 15.4514 30.1365 15.8719 30.2045 16.3036C30.2387 16.5192 30.2588 16.7369 30.2646 16.9552C30.2712 17.1725 30.2602 17.3895 30.2382 17.6016C30.1925 18.026 30.0883 18.4333 29.9535 18.7906C29.8858 18.9694 29.8131 19.1351 29.7352 19.2845C29.6965 19.3591 29.662 19.4287 29.6222 19.4943C29.585 19.5596 29.5501 19.6197 29.5136 19.6748L29.464 19.7527L29.4158 19.8221C29.3869 19.865 29.3585 19.9022 29.336 19.9324C29.3144 19.9623 29.2935 19.986 29.2813 20.0016L29.2618 20.0255C29.0777 20.2525 28.7581 20.3048 28.5137 20.1608L28.4872 20.1452C28.4703 20.1349 28.4423 20.12 28.4116 20.0995C28.3799 20.0792 28.3404 20.0543 28.2982 20.0242L28.2288 19.976L28.1551 19.9204C28.1016 19.8816 28.0478 19.8375 27.9901 19.7894C27.9299 19.7418 27.8732 19.6888 27.8108 19.6324C27.6855 19.5198 27.5593 19.39 27.4333 19.2463C27.1819 18.9589 26.9417 18.6138 26.7502 18.2323C26.6553 18.0414 26.5689 17.842 26.499 17.6361C26.428 17.4296 26.3706 17.2187 26.3271 17.0048C26.2395 16.5767 26.2133 16.1375 26.2546 15.7138C26.2928 15.2907 26.3966 14.8834 26.5366 14.5252C26.6025 14.3555 26.6787 14.19 26.7647 14.0296C26.8461 13.8796 26.9251 13.7473 27.0002 13.6367C27.0377 13.5813 27.0711 13.5319 27.1047 13.4882C27.136 13.4448 27.1653 13.4074 27.1902 13.3769C27.2135 13.3467 27.2354 13.3228 27.2488 13.3069L27.2697 13.2827C27.4596 13.0631 27.7731 13.0135 28.0179 13.1475ZM12.1092 27.0059L12.1259 27.0331C12.1369 27.0507 12.153 27.0788 12.1748 27.1102C12.2004 27.1494 12.2271 27.1878 12.2549 27.2254C12.2865 27.2707 12.3234 27.3174 12.3648 27.3699C12.4475 27.4751 12.5495 27.5905 12.6678 27.7136C12.7947 27.8441 12.9293 27.9668 13.071 28.0811C13.37 28.3232 13.7266 28.5454 14.1182 28.7101C14.5094 28.8779 14.9359 28.986 15.3704 29.0323C15.5875 29.0557 15.8058 29.0649 16.0241 29.0599C16.2415 29.0556 16.4577 29.0338 16.6684 29.0012C17.0901 28.9343 17.4917 28.81 17.8418 28.6576C18.017 28.5811 18.1788 28.5001 18.3241 28.4149C18.3968 28.3725 18.4645 28.3345 18.5281 28.2915C18.5915 28.2511 18.6497 28.2132 18.703 28.1741L18.7782 28.1206L18.8452 28.0691C18.8866 28.038 18.9224 28.0078 18.9513 27.9838C18.9801 27.9608 19.0027 27.9386 19.0178 27.9257L19.0407 27.9051C19.252 27.7158 19.299 27.3954 19.1385 27.1511L19.1217 27.1254C19.1105 27.1091 19.0942 27.0819 19.0722 27.0523C19.0504 27.0217 19.0235 26.9834 18.9914 26.9428L18.9398 26.8758L18.8806 26.805C18.8391 26.7535 18.7924 26.702 18.7415 26.6468C18.691 26.589 18.6352 26.535 18.5758 26.4755C18.457 26.356 18.3211 26.2365 18.1713 26.1178C17.8717 25.881 17.5151 25.6583 17.1245 25.4861C16.929 25.4009 16.7256 25.3246 16.5165 25.265C16.3067 25.2044 16.0932 25.1576 15.8773 25.1248C15.4454 25.0588 15.0054 25.0545 14.5844 25.1169C14.1637 25.1762 13.7622 25.3002 13.4113 25.4579C13.2452 25.5323 13.0837 25.6166 12.9278 25.7104C12.782 25.7992 12.6539 25.8847 12.5471 25.9653C12.4937 26.0055 12.4461 26.0413 12.404 26.077C12.3675 26.1063 12.3319 26.1366 12.2971 26.168C12.2681 26.1928 12.2453 26.2158 12.2302 26.23L12.2071 26.2521C12.0052 26.4446 11.9574 26.7584 12.1092 27.0059Z" fill="#FFB636"/>
<path d="M33.1575 14.5464L33.1666 14.577C33.1723 14.597 33.1825 14.6277 33.1914 14.6649C33.2015 14.7029 33.2129 14.749 33.2237 14.8014C33.2363 14.8551 33.2465 14.9138 33.258 14.9797C33.2811 15.1115 33.2989 15.2645 33.3116 15.4347C33.3242 15.6163 33.3257 15.7984 33.3162 15.9802C33.297 16.3644 33.2245 16.7783 33.0858 17.1799C32.9497 17.5832 32.7455 17.973 32.4901 18.3275C32.3626 18.5048 32.2237 18.6735 32.0743 18.8327C31.9261 18.9918 31.7656 19.1382 31.6007 19.2734C31.2695 19.5428 30.9089 19.7589 30.5616 19.9179C30.3878 19.9973 30.2194 20.0638 30.059 20.1151C29.979 20.1409 29.9055 20.1661 29.831 20.1848C29.7587 20.2049 29.6915 20.223 29.6269 20.2366L29.5368 20.257L29.4538 20.2724C29.403 20.2826 29.3567 20.289 29.3194 20.2946C29.283 20.3006 29.2514 20.3027 29.2318 20.3053L29.2012 20.3086C28.9106 20.3403 28.6468 20.1525 28.5744 19.8782L28.5665 19.8485C28.5618 19.8293 28.5524 19.799 28.545 19.7629C28.5368 19.7262 28.5262 19.6806 28.5174 19.6296L28.502 19.5465L28.4887 19.4551C28.4781 19.3899 28.4709 19.3207 28.4637 19.246C28.4544 19.1697 28.4515 19.0921 28.4468 19.0082C28.437 18.84 28.4387 18.659 28.4503 18.4682C28.474 18.0871 28.546 17.6729 28.6785 17.2671C28.7454 17.0646 28.8244 16.8622 28.9196 16.6667C29.0145 16.4701 29.1221 16.2798 29.2417 16.0972C29.4808 15.7314 29.7712 15.4009 30.0987 15.1289C30.4236 14.8553 30.7839 14.6389 31.1355 14.4829C31.3018 14.4088 31.4723 14.3448 31.6463 14.2913C31.8097 14.242 31.9588 14.2037 32.0902 14.1779C32.1557 14.165 32.2142 14.1534 32.2689 14.1459C32.315 14.1382 32.3614 14.1319 32.4079 14.127C32.4458 14.1219 32.4781 14.1203 32.4989 14.1185L32.5307 14.116C32.8201 14.0935 33.0778 14.2789 33.1575 14.5464ZM14.4976 22.2452L14.4903 22.2762C14.4857 22.2965 14.4775 22.3278 14.4708 22.3654C14.4629 22.404 14.4543 22.4507 14.4466 22.5037C14.4372 22.558 14.4305 22.6173 14.423 22.6837C14.4077 22.8166 14.399 22.9704 14.3965 23.141C14.3948 23.323 14.4041 23.505 14.4243 23.6859C14.4664 24.0683 14.5634 24.4771 14.7257 24.8697C14.8856 25.2642 15.1125 25.6411 15.3887 25.9798C15.5264 26.1492 15.6751 26.3094 15.8338 26.4594C15.9912 26.6094 16.1602 26.746 16.3328 26.8711C16.6794 27.1203 17.0522 27.3146 17.4083 27.4527C17.5866 27.5216 17.7586 27.5781 17.9218 27.6197C18.0032 27.6407 18.078 27.6614 18.1535 27.6756C18.2269 27.6915 18.295 27.7055 18.3603 27.7152L18.4514 27.7302L18.5353 27.7407C18.5865 27.7478 18.6332 27.7515 18.6707 27.7549C18.7074 27.7587 18.739 27.759 18.7588 27.7603L18.7895 27.7618C19.0728 27.776 19.3317 27.5814 19.3896 27.2949L19.3957 27.2648C19.3992 27.2452 19.4068 27.2145 19.4121 27.178C19.4181 27.1409 19.426 27.0948 19.4317 27.0433L19.4421 26.9594L19.45 26.8674C19.4566 26.8016 19.4598 26.7322 19.4625 26.6571C19.4672 26.5805 19.4655 26.5029 19.4652 26.4188C19.465 26.2504 19.4525 26.0698 19.4296 25.88C19.3833 25.5009 19.2867 25.0918 19.1304 24.6945C19.0515 24.4964 18.9607 24.299 18.854 24.1095C18.7476 23.9189 18.6288 23.7354 18.4985 23.5602C18.2381 23.2093 17.9286 22.8966 17.5855 22.6446C17.2449 22.3908 16.8724 22.1962 16.5121 22.0614C16.3417 21.9973 16.1676 21.9436 15.9908 21.9005C15.8248 21.861 15.6736 21.8316 15.541 21.8137C15.4747 21.8047 15.4157 21.7966 15.3607 21.7924C15.3141 21.7875 15.2675 21.7839 15.2207 21.7818C15.1826 21.7789 15.1502 21.7793 15.1295 21.7787L15.0976 21.7781C14.8187 21.7731 14.5639 21.9625 14.4976 22.2452Z" fill="#FFD469"/>
</g>
<defs>
<linearGradient id="paint0_linear_97_1127" x1="22.5" y1="8.88158" x2="22.5" y2="34.3421" gradientUnits="userSpaceOnUse">
<stop stop-color="#BCCEFF"/>
<stop offset="1" stop-color="#6E97FF"/>
</linearGradient>
<clipPath id="clip0_97_1127">
<rect width="29" height="29" fill="white" transform="translate(12.6638 5) rotate(15.3235)"/>
</clipPath>
</defs>
</svg>
