<svg width="40" height="41" viewBox="0 0 40 41" fill="none" xmlns="http://www.w3.org/2000/svg">
<path fill-rule="evenodd" clip-rule="evenodd" d="M20 0.842773C8.95 0.842773 0 10.0192 0 21.3486C0 30.4225 5.725 38.0866 13.675 40.8036C14.675 40.983 15.05 40.3678 15.05 39.8296C15.05 39.3426 15.025 37.7277 15.025 36.0103C10 36.9587 8.7 34.7544 8.3 33.6009C8.075 33.0114 7.1 31.1915 6.25 30.7045C5.55 30.32 4.55 29.3716 6.225 29.3459C7.8 29.3203 8.925 30.8326 9.3 31.4478C11.1 34.5493 13.975 33.6778 15.125 33.1395C15.3 31.8066 15.825 30.9095 16.4 30.3969C11.95 29.8842 7.3 28.1156 7.3 20.2721C7.3 18.0421 8.075 16.1965 9.35 14.7611C9.15 14.2485 8.45 12.1466 9.55 9.32708C9.55 9.32708 11.225 8.7888 15.05 11.4289C16.65 10.9675 18.35 10.7369 20.05 10.7369C21.75 10.7369 23.45 10.9675 25.05 11.4289C28.875 8.76317 30.55 9.32708 30.55 9.32708C31.65 12.1466 30.95 14.2485 30.75 14.7611C32.025 16.1965 32.8 18.0164 32.8 20.2721C32.8 28.1412 28.125 29.8842 23.675 30.3969C24.4 31.0377 25.025 32.268 25.025 34.1905C25.025 36.9331 25 39.1375 25 39.8296C25 40.3678 25.375 41.0087 26.375 40.8036C30.3453 39.4292 33.7953 36.813 36.2394 33.323C38.6836 29.833 39.9988 25.6451 40 21.3486C40 10.0192 31.05 0.842773 20 0.842773Z" fill="#2B2B2B"/>
</svg>
