<svg width="444" height="447" viewBox="0 0 444 447" fill="none" xmlns="http://www.w3.org/2000/svg">
<g filter="url(#filter0_d_159_2935)">
<circle cx="205.947" cy="252.898" r="157.102" fill="url(#paint0_linear_159_2935)" shape-rendering="crispEdges"/>
</g>
<g clip-path="url(#clip0_159_2935)">
<path d="M299.862 291.686C299.514 291.606 299.212 291.391 299.022 291.088C298.832 290.785 298.771 290.419 298.851 290.071C299.859 285.682 299.082 282.007 296.405 278.505C293.901 275.229 290.012 272.415 285.895 269.437C280.424 265.478 274.766 261.385 270.923 255.408C266.494 248.521 265.437 240.405 267.691 230.597C267.771 230.249 267.986 229.947 268.289 229.757C268.592 229.567 268.958 229.506 269.306 229.586C269.654 229.666 269.957 229.881 270.146 230.184C270.336 230.487 270.398 230.853 270.317 231.201C268.235 240.264 269.175 247.705 273.19 253.95C276.758 259.499 282.206 263.441 287.475 267.253C296.023 273.437 304.096 279.279 301.477 290.674C301.438 290.847 301.364 291.01 301.262 291.154C301.159 291.298 301.029 291.421 300.879 291.515C300.729 291.609 300.562 291.672 300.388 291.701C300.213 291.731 300.035 291.726 299.862 291.686V291.686Z" fill="#597B91"/>
<path d="M272.006 230.901C272.055 231.233 272.101 231.56 272.138 231.873C272.177 232.165 272.209 232.445 272.239 232.711C272.268 232.976 272.305 233.229 272.313 233.457C272.331 233.913 272.239 234.268 272.135 234.508C272.031 234.748 271.91 234.87 271.91 234.87C270.207 236.588 267.435 236.601 265.717 234.899C265.239 234.422 264.876 233.842 264.655 233.203C264.655 233.203 264.599 233.04 264.611 232.779C264.622 232.518 264.694 232.158 264.91 231.756C265.016 231.554 265.159 231.343 265.301 231.116C265.444 230.89 265.596 230.652 265.758 230.407C265.928 230.142 266.113 229.868 266.302 229.59C258.591 224.153 248.426 204.122 247.853 187.379C247.682 184.389 247.937 181.39 248.609 178.471C252.52 161.453 269.487 150.827 286.505 154.738C303.523 158.649 314.149 175.615 310.238 192.633C309.569 195.552 308.489 198.362 307.03 200.977C299.205 215.791 281.316 229.375 272.006 230.901V230.901Z" fill="#FF473E"/>
<path d="M266.273 182.53C265.004 188.052 261.392 191.935 258.204 191.202C255.016 190.47 253.461 185.4 254.73 179.877C255.999 174.355 259.611 170.473 262.799 171.205C265.987 171.938 267.542 177.008 266.273 182.53V182.53Z" fill="#FFA9BA"/>
</g>
<g clip-path="url(#clip1_159_2935)">
<path d="M162.85 266.69C162.85 266.69 162.868 266.579 162.89 266.367C162.915 266.153 162.95 265.836 162.981 265.425C163.019 265.01 163.044 264.504 163.074 263.902C163.117 263.294 163.09 262.621 163.071 261.853L163.018 260.644C162.992 260.222 162.975 259.772 162.915 259.322C162.865 258.867 162.811 258.391 162.744 257.899C162.68 257.388 162.608 256.877 162.528 256.368C162.338 255.329 162.107 254.226 161.845 253.059C161.699 252.485 161.533 251.904 161.368 251.3C161.191 250.705 161.021 250.085 160.822 249.465C160.607 248.855 160.395 248.226 160.161 247.591C159.923 246.96 159.703 246.297 159.418 245.664C158.871 244.381 158.308 243.036 157.621 241.725C157.284 241.065 156.95 240.387 156.583 239.72C156.392 239.385 156.2 239.047 156.004 238.707C156.527 237.246 156.696 235.681 156.496 234.142C156.496 234.142 156.334 232.881 155.961 230.686C155.862 230.138 155.732 229.534 155.592 228.877C155.449 228.221 155.307 227.508 155.12 226.754C154.727 225.249 154.302 223.547 153.699 221.727L153.254 220.331C153.096 219.858 152.915 219.383 152.739 218.897C152.381 217.928 152.032 216.92 151.593 215.911C151.169 214.898 150.751 213.851 150.252 212.81L149.511 211.229C149.26 210.697 148.98 210.172 148.712 209.637C148.436 209.106 148.16 208.57 147.872 208.035L146.971 206.435C146.386 205.354 145.696 204.31 145.042 203.242C144.852 202.941 144.659 202.641 144.463 202.344L144.617 200.547C144.648 200.223 144.661 199.901 144.702 199.577L144.825 198.607C144.908 197.962 144.986 197.318 145.054 196.676C145.083 196.355 145.141 196.036 145.193 195.717C145.246 195.4 145.296 195.081 145.343 194.763L145.624 192.871C145.716 192.243 145.85 191.626 145.958 191.012C146.358 188.546 146.879 186.192 147.29 183.974C147.415 183.426 147.529 182.884 147.641 182.352C147.754 181.832 147.861 181.311 147.965 180.788L148.117 180.031C148.167 179.781 148.207 179.531 148.266 179.291C148.375 178.82 148.479 178.349 148.58 177.877C148.769 177.014 148.948 176.149 149.117 175.283L149.234 174.688C149.271 174.493 149.305 174.301 149.347 174.116L149.573 173.056C149.794 172.002 149.996 170.944 150.178 169.882C150.302 169.137 150.357 168.731 150.357 168.731L150.363 168.684C150.4 168.399 150.349 168.109 150.218 167.854C150.087 167.598 149.881 167.389 149.628 167.253C149.375 167.117 149.086 167.061 148.801 167.092C148.515 167.124 148.246 167.242 148.029 167.429C148.029 167.429 147.719 167.698 147.16 168.219C146.358 168.972 145.572 169.743 144.803 170.53C143.788 171.533 142.668 172.829 141.388 174.334C141.058 174.723 140.731 175.114 140.407 175.508C140.073 175.914 139.754 176.349 139.419 176.79C139.074 177.243 138.734 177.7 138.397 178.159C138.051 178.629 137.695 179.111 137.341 179.609C135.978 181.637 134.504 183.859 133.16 186.373C132.873 186.909 132.568 187.444 132.28 187.999C131.635 187.417 130.974 186.859 130.332 186.306C129.403 185.555 128.507 184.812 127.57 184.143C127.105 183.805 126.663 183.459 126.195 183.144L124.818 182.213C123.892 181.622 123.007 181.045 122.096 180.544C121.645 180.291 121.214 180.032 120.77 179.8L119.461 179.128C119.036 178.91 118.6 178.713 118.182 178.52C117.763 178.327 117.355 178.141 116.942 177.975C116.533 177.806 116.136 177.641 115.748 177.489L114.59 177.074C114.403 177.009 114.223 176.941 114.039 176.882L113.49 176.717L112.457 176.41L111.476 176.171C111.166 176.096 110.87 176.026 110.574 175.976C109.986 175.873 109.503 175.776 108.972 175.715L108.282 175.632C108.18 175.621 108.072 175.606 107.989 175.603L107.768 175.604C107.211 175.605 106.912 175.614 106.912 175.614C106.021 175.647 105.146 176.113 104.65 176.932C103.865 178.227 104.278 179.912 105.572 180.697L105.579 180.701C105.579 180.701 105.836 180.856 106.32 181.132L106.513 181.242C106.574 181.28 106.614 181.321 106.669 181.362L107.005 181.626L107.907 182.328C107.994 182.398 108.083 182.461 108.175 182.537L108.457 182.774L109.055 183.274L109.696 183.845L110.032 184.144L110.376 184.468C111.311 185.319 112.322 186.38 113.399 187.523C113.931 188.113 114.482 188.719 115.037 189.37L115.457 189.856L115.873 190.366C116.153 190.706 116.442 191.042 116.725 191.396C117.281 192.117 117.864 192.833 118.429 193.599C118.715 193.977 119.004 194.356 119.281 194.757L120.139 195.938L120.976 197.168C121.265 197.571 121.539 197.994 121.815 198.416C122.378 199.251 122.906 200.128 123.453 200.993C124.415 202.594 125.383 204.208 126.259 205.879C126.203 206.213 126.148 206.548 126.094 206.884C126.012 207.32 125.98 207.774 125.928 208.223C125.879 208.674 125.834 209.125 125.794 209.576L125.71 210.517C125.105 210.205 124.484 209.921 123.878 209.626L122.766 209.095C122.402 208.912 122.014 208.768 121.641 208.605C120.889 208.29 120.148 207.971 119.408 207.672C118.658 207.387 117.908 207.12 117.172 206.851L116.068 206.466L114.957 206.121C114.221 205.896 113.491 205.687 112.775 205.476C112.047 205.284 111.321 205.121 110.614 204.95C110.259 204.867 109.909 204.78 109.559 204.704C109.208 204.629 108.852 204.571 108.505 204.505C107.822 204.379 107.137 204.259 106.452 204.147C105.781 204.034 105.105 203.97 104.454 203.895C103.799 203.826 103.169 203.739 102.537 203.705C101.906 203.671 101.292 203.636 100.693 203.615C100.096 203.592 99.5201 203.558 98.9455 203.582C98.3752 203.593 97.8251 203.601 97.2927 203.622L96.5097 203.649C96.2545 203.654 95.9969 203.69 95.7483 203.71C95.2493 203.758 94.7717 203.801 94.3137 203.854L93.6432 203.928C93.4236 203.954 93.2171 203.974 92.9947 204.014C92.5594 204.086 92.1481 204.154 91.7602 204.227C91.3953 204.291 91.0314 204.361 90.6685 204.436C90.3294 204.506 90.0038 204.565 89.7472 204.65C89.2109 204.8 88.7543 204.956 88.3843 205.067C87.6441 205.304 87.2491 205.448 87.2491 205.448C86.6567 205.667 86.1466 206.128 85.8913 206.76C85.4111 207.948 85.9852 209.301 87.1739 209.781L87.1751 209.781C87.1751 209.781 87.565 209.939 88.2967 210.202C88.6626 210.326 89.1137 210.497 89.6445 210.666C89.9222 210.746 90.1676 210.862 90.4387 210.978C90.7086 211.097 90.9929 211.215 91.2902 211.338L92.2189 211.717C92.5409 211.851 92.9026 212.019 93.2623 212.176C93.9881 212.506 94.7662 212.8 95.5816 213.213C96.3976 213.613 97.2594 213.978 98.1489 214.458C98.5937 214.69 99.0498 214.916 99.5133 215.147C99.7461 215.256 99.976 215.398 100.211 215.524L100.92 215.91L101.641 216.302C101.883 216.432 102.129 216.553 102.372 216.703C102.859 216.992 103.354 217.281 103.857 217.565C104.108 217.711 104.363 217.848 104.615 218.003C104.865 218.163 105.121 218.315 105.376 218.472C105.887 218.784 106.401 219.105 106.926 219.415C107.444 219.751 107.964 220.096 108.494 220.432L109.292 220.937L110.085 221.484C110.618 221.844 111.16 222.196 111.699 222.567C112.231 222.954 112.775 223.329 113.318 223.713C113.864 224.088 114.405 224.492 114.949 224.895L115.767 225.499C116.041 225.699 116.32 225.892 116.589 226.108C117.133 226.526 117.675 226.953 118.228 227.366C118.507 227.568 118.778 227.786 119.048 228.007L119.863 228.663C120.975 229.502 122.029 230.449 123.135 231.322C123.671 231.784 124.199 232.258 124.744 232.71C125.013 232.941 125.29 233.161 125.552 233.4L126.343 234.114C126.868 234.591 127.418 235.038 127.933 235.527L128.709 236.254L129.495 236.967C129.761 237.201 130.014 237.447 130.266 237.694L131.026 238.429C131.536 238.914 132.054 239.388 132.545 239.885C133.041 240.374 133.543 240.857 134.049 241.336C134.542 241.823 135.025 242.315 135.52 242.792C135.764 243.033 136.011 243.271 136.261 243.505L136.978 244.231C137.449 244.718 137.94 245.183 138.419 245.653C138.876 246.139 139.349 246.607 139.815 247.075C140.049 247.307 140.277 247.544 140.516 247.77L141.192 248.472C141.638 248.941 142.097 249.393 142.549 249.844C142.98 250.301 143.415 250.754 143.854 251.204C144.741 252.087 145.55 252.982 146.385 253.829C146.804 254.253 147.196 254.679 147.586 255.099C147.977 255.519 148.377 255.924 148.763 256.327L149.873 257.527L150.964 258.673C151.65 259.432 152.319 260.156 152.973 260.835C153.557 261.494 154.152 262.143 154.757 262.783C155.044 263.084 155.309 263.378 155.559 263.663L156.297 264.474C157.273 265.495 158.002 266.336 158.552 266.901C158.819 267.187 159.037 267.404 159.184 267.55C159.329 267.697 159.41 267.772 159.41 267.772L159.496 267.851C159.787 268.121 160.151 268.298 160.543 268.36C161.641 268.536 162.674 267.789 162.85 266.69V266.69Z" fill="#00B89C"/>
<path d="M165.695 269.905C165.695 269.905 165.638 269.431 165.502 268.554C165.301 267.292 165.077 266.035 164.828 264.782C164.643 263.893 164.448 263.007 164.243 262.124C164.022 261.158 163.776 260.117 163.476 259.016C163.326 258.446 163.172 257.877 163.013 257.31C162.852 256.724 162.688 256.122 162.502 255.509C162.314 254.88 162.121 254.252 161.922 253.626C161.718 252.968 161.509 252.312 161.295 251.658C160.851 250.322 160.354 248.942 159.838 247.512C159.308 246.086 158.718 244.626 158.117 243.12C157.858 242.523 157.597 241.916 157.333 241.305L157.254 240.641C157.215 240.297 157.167 239.954 157.122 239.61C157.081 239.265 157.015 238.922 157 238.573C156.953 237.876 156.89 237.18 156.827 236.48C156.746 235.782 156.748 235.076 156.71 234.372L156.663 233.314L156.638 232.784L156.641 232.253L156.64 230.127C156.711 227.29 156.942 224.445 157.355 221.622C157.484 220.919 157.6 220.215 157.718 219.512C157.768 219.159 157.852 218.81 157.931 218.461L158.152 217.413C158.229 217.064 158.288 216.713 158.378 216.366L158.652 215.328C158.825 214.635 158.976 213.939 159.198 213.256C159.404 212.571 159.568 211.879 159.785 211.198C160.011 210.52 160.212 209.835 160.423 209.157C160.887 207.807 161.312 206.456 161.812 205.132C162.269 203.799 162.806 202.496 163.281 201.194C163.55 200.552 163.799 199.907 164.049 199.269L164.235 198.791L164.433 198.318L164.82 197.376C165.315 196.121 165.858 194.903 166.341 193.699L167.096 191.929C167.222 191.64 167.338 191.347 167.457 191.059C167.575 190.77 167.703 190.488 167.825 190.206L169.208 186.929L170.455 183.91L171.015 182.512C171.201 182.063 171.372 181.623 171.538 181.201L172.432 178.851C172.696 178.132 172.928 177.486 173.12 176.913C173.316 176.343 173.484 175.858 173.608 175.454C173.738 175.055 173.829 174.741 173.89 174.53C173.922 174.423 173.953 174.316 173.981 174.208L173.986 174.189C174.069 173.851 174.054 173.496 173.942 173.166C173.83 172.836 173.626 172.545 173.354 172.328C173.082 172.11 172.754 171.975 172.407 171.939C172.061 171.902 171.712 171.966 171.4 172.122C171.4 172.122 171.296 172.174 171.104 172.282C170.91 172.389 170.622 172.547 170.258 172.764C169.523 173.192 168.468 173.84 167.177 174.724L166.164 175.427C165.817 175.682 165.448 175.944 165.075 176.228C164.322 176.789 163.515 177.405 162.682 178.098C162.259 178.44 161.835 178.802 161.393 179.173C160.952 179.546 160.518 179.948 160.061 180.353C159.611 180.764 159.147 181.182 158.683 181.626L157.28 183.01C156.794 183.495 156.319 183.991 155.855 184.498C155.384 185.017 154.888 185.535 154.411 186.087C153.466 187.202 152.478 188.349 151.545 189.612C150.581 190.847 149.668 192.19 148.746 193.574C148.291 194.286 147.848 195.005 147.416 195.732C146.968 196.458 146.55 197.221 146.141 197.997C145.731 198.772 145.297 199.544 144.932 200.367L144.36 201.591C144.171 202.004 143.969 202.409 143.803 202.837C143.463 203.687 143.11 204.541 142.779 205.408L142.654 205.733L142.542 206.065L142.318 206.731C142.17 207.177 142.015 207.621 141.873 208.071C141.571 208.962 141.337 209.887 141.087 210.808L140.732 212.198C140.616 212.662 140.532 213.138 140.431 213.609C140.414 213.692 140.397 213.775 140.38 213.859C140.016 213.431 139.648 213.007 139.275 212.588L137.251 210.398C136.916 210.033 136.558 209.685 136.205 209.334L135.147 208.284C134.791 207.936 134.448 207.581 134.084 207.243L132.984 206.239C130.048 203.581 126.931 201.169 123.699 199.15C122.905 198.63 122.089 198.15 121.275 197.689C120.462 197.228 119.669 196.755 118.84 196.357L117.621 195.742C117.216 195.54 116.819 195.332 116.408 195.153C115.588 194.793 114.786 194.429 113.983 194.096C110.759 192.789 107.641 191.777 104.707 191.127C101.787 190.434 99.0694 190.064 96.6659 189.856C96.0664 189.796 95.4817 189.77 94.9178 189.747C94.3761 189.722 93.8342 189.703 93.2921 189.69L92.5287 189.672L91.7808 189.68C91.2942 189.684 90.8284 189.703 90.3908 189.714C88.61 189.751 87.3423 189.956 86.4297 190.08C86.0843 190.128 85.7398 190.182 85.3964 190.243C85.1623 190.282 85.0397 190.308 85.0397 190.308C84.3936 190.447 83.814 190.802 83.3961 191.314C82.377 192.562 82.5623 194.399 83.81 195.418C83.81 195.418 83.907 195.498 84.0981 195.639C84.2885 195.783 84.5715 195.993 84.9441 196.254C85.6753 196.782 86.8342 197.52 88.0917 198.429C88.4158 198.65 88.7529 198.889 89.1081 199.124L89.6508 199.491L90.2235 199.888C90.9976 200.437 91.8482 200.972 92.7261 201.586C94.485 202.806 96.4451 204.118 98.4909 205.594C100.558 207.029 102.694 208.653 104.91 210.333C105.452 210.773 106.013 211.194 106.574 211.627L108.246 212.976L108.669 213.316C108.813 213.425 108.956 213.536 109.094 213.657L109.933 214.364C110.49 214.844 111.081 215.283 111.632 215.792C113.908 217.715 116.182 219.787 118.468 221.952C119.042 222.49 119.623 223.025 120.186 223.593L121.039 224.432C121.325 224.712 121.613 224.989 121.887 225.286L123.58 227.021C123.861 227.314 124.129 227.622 124.408 227.919L125.246 228.812C125.814 229.395 126.341 230.03 126.894 230.637L127.721 231.551C128 231.853 128.26 232.177 128.53 232.488C129.061 233.12 129.617 233.729 130.15 234.359C130.673 234.999 131.202 235.633 131.738 236.262C133.831 238.818 135.906 241.369 137.872 243.924C138.364 244.562 138.865 245.184 139.345 245.82C139.829 246.452 140.302 247.084 140.787 247.699L143.584 251.37L144.926 253.156C145.367 253.745 145.821 254.313 146.246 254.888C147.101 256.036 147.944 257.139 148.759 258.201C149.158 258.738 149.557 259.26 149.948 259.771C150.222 260.132 150.498 260.491 150.777 260.848L151.112 261.334C151.296 261.591 151.494 261.834 151.68 262.079C152.472 263.106 153.277 264.123 154.095 265.129L154.198 265.248L155.169 266.48C155.72 267.174 156.278 267.862 156.843 268.544C157.861 269.791 158.681 270.767 159.257 271.426C159.832 272.086 160.155 272.431 160.155 272.431L160.199 272.479C160.542 272.843 160.965 273.121 161.435 273.291C161.905 273.461 162.409 273.518 162.905 273.458C164.657 273.247 165.906 271.656 165.695 269.905V269.905Z" fill="#009E83"/>
<path d="M137.788 208.686L137.938 208.728C138.035 208.756 138.188 208.795 138.365 208.855C138.549 208.912 138.769 208.986 139.015 209.079C139.27 209.167 139.541 209.279 139.844 209.404C140.451 209.654 141.135 209.982 141.878 210.377C142.617 210.774 143.392 211.248 144.172 211.796C145.733 212.89 147.29 214.288 148.635 215.932C149.994 217.571 151.131 219.461 151.997 221.474C152.43 222.481 152.805 223.515 153.106 224.563C153.414 225.608 153.638 226.672 153.805 227.725C154.132 229.834 154.164 231.927 153.991 233.813C153.902 234.756 153.774 235.643 153.601 236.455C153.515 236.861 153.443 237.238 153.341 237.602C153.25 237.961 153.164 238.292 153.064 238.601L152.932 239.035L152.795 239.427C152.715 239.668 152.63 239.88 152.564 240.052C152.501 240.222 152.434 240.361 152.396 240.451L152.336 240.589C151.777 241.875 150.33 242.508 149.02 242.101L148.877 242.056C148.785 242.025 148.635 241.985 148.466 241.921C148.293 241.859 148.076 241.783 147.842 241.686L147.457 241.532L147.042 241.347C146.743 241.22 146.437 241.068 146.106 240.901C145.765 240.739 145.433 240.547 145.07 240.345C144.343 239.943 143.59 239.459 142.819 238.907C141.281 237.802 139.723 236.405 138.344 234.776C137.659 233.959 137.003 233.092 136.415 232.175C135.821 231.26 135.287 230.299 134.81 229.312C133.857 227.338 133.176 225.24 132.83 223.14C132.47 221.046 132.436 218.954 132.633 217.058C132.724 216.163 132.869 215.273 133.066 214.395C133.255 213.575 133.455 212.844 133.665 212.222C133.769 211.911 133.862 211.633 133.963 211.383C134.054 211.137 134.143 210.922 134.22 210.746C134.29 210.572 134.362 210.432 134.404 210.339L134.47 210.198C135.069 208.933 136.485 208.318 137.788 208.686V208.686Z" fill="#FF473E"/>
<path d="M127.467 217.111L127.619 217.089C127.718 217.077 127.871 217.051 128.053 217.035C128.241 217.015 128.467 216.994 128.724 216.981C128.987 216.96 129.273 216.954 129.593 216.947C130.235 216.932 130.973 216.958 131.788 217.021C132.658 217.092 133.522 217.216 134.377 217.392C136.184 217.76 138.094 218.402 139.897 219.349C141.71 220.285 143.41 221.533 144.906 223C145.654 223.733 146.358 224.513 147.001 225.334C147.648 226.151 148.226 227.018 148.748 227.897C149.786 229.661 150.55 231.526 151.053 233.286C151.304 234.167 151.498 235.013 151.626 235.81C151.69 236.208 151.756 236.574 151.791 236.941C151.835 237.298 151.872 237.63 151.89 237.946L151.921 238.387L151.935 238.792C151.946 239.04 151.944 239.265 151.943 239.445C151.946 239.621 151.933 239.773 151.931 239.868L151.925 240.015C151.865 241.415 150.785 242.53 149.433 242.676L149.287 242.691C149.192 242.7 149.042 242.723 148.865 242.731C148.685 242.744 148.462 242.761 148.214 242.766L147.809 242.779L147.366 242.776C147.049 242.779 146.716 242.764 146.357 242.744C145.989 242.733 145.619 242.691 145.218 242.653C144.414 242.578 143.557 242.44 142.662 242.247C140.872 241.86 138.961 241.22 137.133 240.299C136.222 239.836 135.32 239.316 134.462 238.724C133.6 238.136 132.776 237.485 131.995 236.787C130.434 235.39 129.077 233.775 128.024 232.027C126.961 230.29 126.196 228.427 125.71 226.648C125.478 225.806 125.298 224.952 125.17 224.089C125.054 223.279 124.98 222.544 124.952 221.903C124.938 221.583 124.926 221.298 124.929 221.033C124.926 220.809 124.93 220.585 124.94 220.361C124.944 220.177 124.959 220.023 124.966 219.924L124.977 219.771C125.078 218.383 126.142 217.295 127.467 217.111V217.111ZM117.267 171.995L117.207 172.12C117.17 172.202 117.106 172.328 117.043 172.482C116.961 172.669 116.885 172.858 116.814 173.05C116.724 173.273 116.642 173.52 116.549 173.797C116.362 174.352 116.184 175.003 116.015 175.734C115.84 176.516 115.711 177.308 115.63 178.106C115.454 179.796 115.485 181.659 115.805 183.525C116.114 185.396 116.721 187.265 117.57 189.024C117.993 189.903 118.47 190.755 118.999 191.574C119.523 192.392 120.108 193.165 120.718 193.892C121.946 195.344 123.335 196.588 124.705 197.573C125.391 198.064 126.063 198.496 126.711 198.854C127.034 199.034 127.329 199.205 127.634 199.349C127.928 199.498 128.201 199.633 128.467 199.747L128.836 199.911L129.179 200.048C129.388 200.135 129.581 200.202 129.736 200.258C129.886 200.315 130.019 200.351 130.101 200.378L130.229 200.418C131.397 200.781 132.685 200.217 133.184 199.071L133.237 198.948C133.27 198.868 133.331 198.744 133.386 198.593C133.446 198.44 133.522 198.251 133.593 198.036L133.714 197.687L133.832 197.3C133.921 197.025 133.998 196.73 134.079 196.41C134.169 196.086 134.234 195.75 134.31 195.389C134.464 194.665 134.579 193.875 134.657 193.034C134.812 191.354 134.783 189.49 134.492 187.61C134.343 186.672 134.143 185.724 133.869 184.793C133.598 183.856 133.267 182.937 132.881 182.042C132.11 180.247 131.096 178.564 129.886 177.104C128.687 175.639 127.3 174.393 125.909 173.418C125.253 172.957 124.571 172.535 123.865 172.154C123.203 171.802 122.594 171.51 122.053 171.287C121.783 171.175 121.542 171.076 121.315 170.997C121.124 170.925 120.931 170.859 120.736 170.798C120.578 170.744 120.442 170.71 120.355 170.685L120.221 170.647C119.061 170.32 117.799 170.868 117.267 171.995V171.995Z" fill="#FFA9BA"/>
<path d="M151.242 207.793L151.364 207.885C151.443 207.945 151.57 208.034 151.711 208.152C151.858 208.269 152.034 208.414 152.225 208.585C152.428 208.755 152.635 208.952 152.867 209.173C153.333 209.614 153.839 210.151 154.375 210.77C154.943 211.432 155.47 212.129 155.953 212.855C156.978 214.389 157.883 216.188 158.498 218.13C159.127 220.071 159.457 222.154 159.488 224.249C159.503 225.296 159.454 226.345 159.333 227.382C159.218 228.418 159.019 229.44 158.771 230.432C158.267 232.415 157.498 234.278 156.617 235.883C156.175 236.685 155.718 237.423 155.247 238.079C155.013 238.407 154.802 238.714 154.569 238.999C154.349 239.283 154.142 239.545 153.932 239.782L153.644 240.118L153.369 240.415C153.202 240.6 153.043 240.757 152.915 240.885C152.793 241.012 152.677 241.111 152.609 241.176L152.501 241.277C151.473 242.23 149.921 242.262 148.858 241.414L148.743 241.322C148.67 241.261 148.547 241.171 148.415 241.054C148.279 240.936 148.108 240.791 147.928 240.62L147.631 240.344L147.319 240.03C147.091 239.81 146.866 239.565 146.625 239.297C146.371 239.031 146.138 238.741 145.879 238.431C145.361 237.812 144.85 237.111 144.349 236.344C143.35 234.809 142.443 233.01 141.791 231.07C141.47 230.099 141.195 229.095 141.002 228.07C140.803 227.047 140.676 226.003 140.612 224.958C140.486 222.867 140.658 220.765 141.14 218.782C141.608 216.8 142.375 214.937 143.282 213.331C143.709 212.571 144.182 211.837 144.699 211.133C145.186 210.476 145.651 209.902 146.082 209.427C146.297 209.19 146.489 208.978 146.678 208.793C146.856 208.608 147.02 208.451 147.159 208.323C147.29 208.195 147.41 208.096 147.484 208.03L147.6 207.929C148.648 207.015 150.17 206.992 151.242 207.793V207.793ZM108.808 180.524L108.798 180.659C108.792 180.748 108.778 180.886 108.775 181.049C108.768 181.217 108.763 181.419 108.766 181.648C108.762 181.884 108.774 182.138 108.786 182.423C108.81 182.994 108.877 183.649 108.98 184.37C109.094 185.139 109.255 185.901 109.461 186.65C109.894 188.235 110.576 189.895 111.523 191.443C112.461 193 113.67 194.439 115.061 195.683C115.755 196.306 116.489 196.883 117.259 197.409C118.023 197.937 118.827 198.401 119.639 198.813C121.268 199.633 122.97 200.203 124.564 200.548C125.362 200.72 126.125 200.843 126.842 200.91C127.199 200.944 127.529 200.981 127.856 200.991C128.177 201.009 128.473 201.023 128.756 201.02L129.15 201.022L129.511 201.011C129.732 201.007 129.931 200.991 130.091 200.98C130.249 200.972 130.382 200.952 130.467 200.944L130.598 200.93C131.802 200.8 132.764 199.807 132.817 198.56L132.823 198.428C132.825 198.344 132.836 198.209 132.834 198.051C132.835 197.891 132.837 197.691 132.827 197.47L132.815 197.109L132.787 196.716C132.771 196.434 132.738 196.139 132.699 195.821C132.668 195.494 132.609 195.168 132.551 194.813C132.438 194.103 132.265 193.349 132.042 192.564C131.593 190.996 130.912 189.335 129.987 187.763C129.523 186.98 129.007 186.208 128.431 185.48C127.855 184.747 127.231 184.052 126.565 183.4C125.232 182.093 123.717 180.981 122.102 180.147C120.495 179.304 118.794 178.732 117.184 178.404C116.423 178.247 115.653 178.137 114.878 178.073C114.151 178.017 113.494 177.994 112.922 178.007C112.637 178.014 112.382 178.019 112.148 178.038C111.919 178.05 111.717 178.068 111.55 178.086C111.388 178.1 111.251 178.123 111.163 178.135L111.028 178.153C109.847 178.318 108.899 179.287 108.808 180.524V180.524Z" fill="#FF6E83"/>
<path d="M132.208 169.852L132.318 169.933C132.388 169.987 132.501 170.067 132.627 170.171C132.758 170.276 132.915 170.405 133.085 170.557C133.265 170.709 133.45 170.885 133.657 171.081C134.072 171.474 134.523 171.953 135 172.504C135.506 173.094 135.975 173.715 136.406 174.362C137.319 175.728 138.125 177.331 138.673 179.061C139.234 180.79 139.528 182.647 139.555 184.513C139.57 185.445 139.524 186.377 139.418 187.304C139.315 188.227 139.138 189.138 138.917 190.021C138.468 191.789 137.783 193.448 136.998 194.878C136.604 195.593 136.197 196.25 135.777 196.835C135.569 197.127 135.381 197.4 135.173 197.654C134.977 197.908 134.793 198.141 134.606 198.352L134.349 198.652L134.104 198.916C133.956 199.08 133.813 199.221 133.7 199.334C133.59 199.448 133.487 199.536 133.426 199.594L133.33 199.684C132.415 200.533 131.032 200.562 130.085 199.806L129.982 199.724C129.917 199.67 129.808 199.59 129.69 199.485C129.569 199.38 129.416 199.251 129.256 199.098L128.992 198.853L128.713 198.574C128.511 198.377 128.309 198.158 128.095 197.92C127.868 197.683 127.661 197.424 127.431 197.148C126.969 196.597 126.513 195.972 126.067 195.289C125.177 193.922 124.369 192.319 123.789 190.59C123.502 189.726 123.257 188.831 123.085 187.918C122.909 187.002 122.793 186.076 122.738 185.145C122.626 183.282 122.779 181.409 123.208 179.643C123.625 177.876 124.309 176.217 125.116 174.786C125.497 174.109 125.919 173.455 126.379 172.828C126.813 172.243 127.227 171.731 127.611 171.308C127.803 171.097 127.974 170.908 128.142 170.743C128.301 170.579 128.447 170.438 128.57 170.324C128.687 170.211 128.794 170.123 128.861 170.064L128.963 169.974C129.898 169.159 131.254 169.138 132.208 169.852V169.852Z" fill="#FF473E"/>
<path d="M165.671 175.382L165.737 175.486C165.78 175.555 165.851 175.659 165.923 175.788C166.002 175.92 166.093 176.08 166.19 176.265C166.295 176.453 166.396 176.662 166.509 176.897C166.737 177.367 166.968 177.924 167.199 178.552C167.443 179.225 167.646 179.912 167.808 180.609C168.154 182.085 168.336 183.739 168.262 185.427C168.2 187.119 167.873 188.842 167.319 190.495C167.043 191.321 166.716 192.129 166.34 192.914C165.968 193.697 165.538 194.447 165.079 195.159C164.194 196.517 163.148 197.762 161.963 198.867C161.411 199.38 160.865 199.837 160.331 200.228C160.065 200.423 159.823 200.608 159.57 200.77C159.326 200.935 159.099 201.085 158.876 201.215L158.568 201.403L158.28 201.563C158.104 201.663 157.941 201.745 157.811 201.811C157.684 201.878 157.57 201.925 157.5 201.959L157.392 202.009C156.378 202.475 155.185 202.083 154.624 201.148L154.563 201.045C154.524 200.978 154.457 200.875 154.391 200.747C154.321 200.619 154.232 200.459 154.145 200.277L153.998 199.982L153.851 199.653C153.741 199.419 153.639 199.166 153.532 198.892C153.415 198.615 153.32 198.326 153.212 198.014C152.994 197.39 152.804 196.704 152.64 195.968C152.29 194.386 152.134 192.767 152.176 191.147C152.202 190.3 152.272 189.438 152.41 188.582C152.545 187.722 152.734 186.871 152.975 186.035C153.457 184.359 154.165 182.754 155.072 181.326C155.969 179.893 157.057 178.635 158.178 177.615C158.707 177.132 159.264 176.682 159.846 176.265C160.392 175.879 160.899 175.552 161.353 175.294C161.58 175.165 161.781 175.049 161.974 174.954C162.135 174.869 162.299 174.788 162.464 174.713C162.598 174.647 162.715 174.602 162.789 174.569L162.903 174.521C163.927 174.088 165.093 174.474 165.671 175.382V175.382ZM92.5627 211.675L92.5742 211.799C92.5825 211.879 92.5905 212.005 92.6123 212.152C92.6309 212.304 92.6567 212.486 92.694 212.692C92.7262 212.904 92.7751 213.132 92.8293 213.387C92.9376 213.898 93.0961 214.48 93.2986 215.117C93.5189 215.798 93.7795 216.465 94.079 217.115C94.7109 218.494 95.5806 219.912 96.6738 221.2C97.7603 222.498 99.0753 223.659 100.526 224.626C101.25 225.109 102.004 225.547 102.782 225.937C103.556 226.327 104.356 226.656 105.156 226.937C106.687 227.468 108.277 227.81 109.891 227.956C110.641 228.022 111.353 228.049 112.014 228.031C112.344 228.022 112.648 228.019 112.948 227.992C113.241 227.973 113.513 227.953 113.769 227.919L114.127 227.878L114.453 227.827C114.653 227.799 114.832 227.763 114.976 227.736C115.117 227.711 115.236 227.678 115.311 227.662L115.428 227.635C116.489 227.384 117.224 226.366 117.087 225.258L117.072 225.14C117.061 225.063 117.051 224.941 117.025 224.799C117.002 224.655 116.974 224.475 116.931 224.277L116.866 223.954L116.781 223.603C116.724 223.351 116.65 223.089 116.566 222.807C116.489 222.517 116.386 222.23 116.281 221.917C116.071 221.291 115.8 220.632 115.479 219.95C114.785 218.486 113.916 217.111 112.89 215.857C112.35 215.204 111.765 214.566 111.132 213.974C110.498 213.378 109.827 212.821 109.124 212.308C107.716 211.28 106.173 210.446 104.58 209.873C102.994 209.291 101.363 208.964 99.8509 208.846C99.1376 208.789 98.4214 208.775 97.7063 208.803C97.038 208.833 96.4373 208.884 95.9204 208.959C95.662 208.996 95.4317 209.029 95.2211 209.071C95.0155 209.107 94.8349 209.146 94.686 209.181C94.5403 209.211 94.42 209.247 94.3417 209.267L94.222 209.299C93.1812 209.574 92.4604 210.568 92.5627 211.675V211.675Z" fill="#FFE1AB"/>
<path d="M155.087 174.909L155.188 174.977C155.253 175.022 155.358 175.088 155.474 175.175C155.596 175.262 155.742 175.37 155.901 175.498C156.068 175.625 156.241 175.773 156.434 175.939C156.822 176.27 157.246 176.676 157.697 177.146C158.174 177.649 158.621 178.18 159.035 178.738C159.911 179.913 160.703 181.306 161.271 182.823C161.85 184.339 162.196 185.98 162.306 187.642C162.362 188.473 162.364 189.306 162.311 190.136C162.262 190.964 162.146 191.784 161.989 192.582C161.67 194.178 161.135 195.688 160.501 196.999C160.182 197.654 159.849 198.258 159.503 198.799C159.33 199.069 159.175 199.321 159.002 199.557C158.838 199.792 158.685 200.008 158.527 200.205L158.312 200.483L158.105 200.73C157.981 200.884 157.86 201.015 157.765 201.122C157.672 201.228 157.585 201.311 157.533 201.366L157.451 201.45C156.674 202.249 155.443 202.338 154.564 201.707L154.469 201.639C154.408 201.594 154.307 201.528 154.198 201.439C154.084 201.351 153.943 201.243 153.793 201.115L153.546 200.908L153.285 200.672C153.095 200.506 152.906 200.32 152.704 200.118C152.491 199.916 152.294 199.695 152.077 199.46C151.639 198.989 151.205 198.453 150.776 197.865C149.92 196.687 149.126 195.295 148.53 193.78C148.235 193.023 147.975 192.236 147.781 191.43C147.582 190.622 147.436 189.802 147.344 188.974C147.159 187.319 147.21 185.643 147.512 184.048C147.802 182.455 148.336 180.944 148.99 179.632C149.299 179.01 149.645 178.408 150.026 177.828C150.387 177.287 150.732 176.812 151.055 176.418C151.217 176.22 151.36 176.044 151.503 175.89C151.637 175.736 151.761 175.604 151.865 175.496C151.965 175.39 152.056 175.306 152.112 175.251L152.2 175.166C152.996 174.397 154.204 174.316 155.087 174.909V174.909ZM89.9327 222.07L89.9867 222.179C90.0225 222.25 90.0743 222.362 90.146 222.489C90.2298 222.646 90.3181 222.801 90.4108 222.954C90.5152 223.137 90.6394 223.327 90.7784 223.54C91.0563 223.968 91.4042 224.441 91.811 224.949C92.248 225.488 92.7171 226 93.2158 226.482C94.2679 227.504 95.5458 228.47 96.976 229.23C98.4038 230.001 99.9861 230.558 101.62 230.883C102.436 231.046 103.262 231.156 104.092 231.211C104.919 231.27 105.748 231.261 106.559 231.21C108.183 231.1 109.75 230.766 111.132 230.307C111.823 230.077 112.465 229.825 113.046 229.551C113.336 229.415 113.607 229.294 113.863 229.153C114.117 229.021 114.351 228.897 114.567 228.767L114.871 228.59L115.143 228.417C115.311 228.313 115.457 228.211 115.575 228.13C115.692 228.052 115.786 227.976 115.848 227.932L115.942 227.862C116.809 227.215 117.097 226.015 116.572 225.032L116.516 224.929C116.479 224.863 116.427 224.754 116.354 224.634C116.281 224.511 116.192 224.356 116.084 224.191L115.911 223.919L115.711 223.63C115.571 223.42 115.412 223.208 115.237 222.981C115.065 222.745 114.872 222.52 114.667 222.274C114.257 221.78 113.782 221.279 113.254 220.777C112.197 219.776 110.92 218.808 109.496 218.02C108.783 217.629 108.037 217.27 107.263 216.972C106.487 216.67 105.693 216.419 104.885 216.221C103.267 215.822 101.598 215.655 99.9783 215.747C98.3608 215.828 96.7937 216.161 95.4075 216.64C94.7512 216.865 94.1092 217.13 93.4849 217.433C92.9012 217.72 92.3854 218 91.9523 218.27C91.7357 218.404 91.5426 218.524 91.3706 218.645C91.2219 218.743 91.0763 218.846 90.9337 218.953C90.8151 219.038 90.7206 219.117 90.6581 219.166L90.563 219.242C89.7303 219.903 89.4411 221.079 89.9327 222.07V222.07Z" fill="#FFB636"/>
<path d="M174.122 181.982L174.146 182.101C174.161 182.179 174.189 182.3 174.21 182.444C174.235 182.591 174.263 182.77 174.286 182.973C174.315 183.181 174.334 183.408 174.355 183.662C174.397 184.17 174.413 184.757 174.402 185.408C174.388 186.101 174.331 186.794 174.233 187.48C174.028 188.933 173.611 190.479 172.947 191.956C172.291 193.441 171.383 194.851 170.291 196.109C169.746 196.739 169.161 197.332 168.539 197.885C167.922 198.438 167.262 198.939 166.59 199.396C165.24 200.305 163.797 201.002 162.424 201.486C161.737 201.728 161.075 201.923 160.448 202.063C160.135 202.133 159.848 202.203 159.559 202.249C159.277 202.301 159.016 202.346 158.765 202.376L158.417 202.422L158.096 202.452C157.9 202.474 157.722 202.482 157.578 202.49C157.438 202.501 157.317 202.498 157.242 202.501L157.125 202.503C156.011 202.524 155.073 201.72 154.892 200.654L154.873 200.539C154.861 200.464 154.836 200.346 154.82 200.206C154.802 200.064 154.777 199.887 154.761 199.691L154.731 199.37L154.712 199.018C154.694 198.767 154.691 198.502 154.689 198.216C154.68 197.923 154.695 197.627 154.706 197.307C154.727 196.665 154.795 195.978 154.905 195.258C155.125 193.819 155.541 192.271 156.183 190.776C156.507 190.03 156.876 189.289 157.304 188.579C157.732 187.865 158.206 187.18 158.723 186.527C159.756 185.22 160.972 184.065 162.308 183.145C163.636 182.217 165.078 181.519 166.467 181.048C167.123 180.823 167.793 180.639 168.472 180.495C169.109 180.364 169.688 180.27 170.196 180.217C170.449 180.19 170.675 180.166 170.885 180.157C171.063 180.144 171.241 180.136 171.42 180.133C171.565 180.126 171.689 180.131 171.768 180.132L171.89 180.133C172.996 180.147 173.911 180.939 174.122 181.982V181.982ZM100.634 204.813L100.596 204.929C100.572 205.004 100.53 205.12 100.491 205.261C100.448 205.404 100.4 205.579 100.352 205.777C100.298 205.98 100.252 206.203 100.201 206.453C100.097 206.952 100.012 207.533 99.9434 208.18C99.8745 208.87 99.8474 209.564 99.8623 210.258C99.891 211.724 100.119 213.31 100.601 214.856C101.072 216.409 101.805 217.918 102.737 219.298C103.202 219.989 103.711 220.648 104.262 221.272C104.809 221.895 105.403 222.472 106.016 223.006C107.247 224.071 108.595 224.937 109.9 225.583C110.553 225.906 111.187 226.179 111.792 226.393C112.094 226.501 112.371 226.605 112.653 226.685C112.926 226.77 113.18 226.847 113.424 226.906L113.765 226.995L114.08 227.063C114.272 227.108 114.448 227.138 114.589 227.163C114.727 227.191 114.847 227.202 114.922 227.214L115.038 227.23C116.109 227.381 117.158 226.732 117.476 225.664L117.51 225.551C117.53 225.478 117.569 225.364 117.602 225.227C117.637 225.088 117.683 224.916 117.722 224.723L117.791 224.408L117.852 224.061C117.9 223.814 117.936 223.551 117.972 223.267C118.016 222.978 118.036 222.682 118.064 222.363C118.121 221.724 118.136 221.034 118.114 220.305C118.068 218.85 117.841 217.264 117.384 215.702C117.153 214.922 116.875 214.142 116.535 213.386C116.197 212.625 115.809 211.888 115.374 211.178C114.506 209.757 113.438 208.463 112.222 207.389C111.015 206.308 109.668 205.442 108.346 204.806C107.721 204.505 107.079 204.241 106.422 204.017C105.805 203.81 105.241 203.646 104.744 203.533C104.496 203.476 104.274 203.425 104.067 203.39C103.892 203.356 103.716 203.326 103.539 203.302C103.395 203.278 103.272 203.268 103.194 203.259L103.073 203.246C102.015 203.131 100.983 203.763 100.634 204.813V204.813Z" fill="#FFD469"/>
</g>
<path d="M279.411 330.299L221.925 362.205C219.167 363.736 214.655 363.736 211.897 362.205L154.411 330.299C153.032 329.534 152.343 328.525 152.343 327.516H151.732V256.242H281.479V327.516C281.479 328.525 280.79 329.534 279.411 330.299V330.299Z" fill="#3E80FF"/>
<path d="M281.479 256.242V327.516C281.479 328.525 280.789 329.534 279.411 330.3L221.925 362.205C220.491 363.001 218.583 363.38 216.693 363.348C216.738 327.657 217.752 291.922 216.643 256.241H281.479V256.242Z" fill="#6E97FF"/>
<path d="M211.897 290.931L154.411 259.025C151.653 257.494 151.653 254.99 154.411 253.459L211.897 221.553C214.655 220.023 219.167 220.023 221.925 221.553L279.411 253.459C282.168 254.99 282.168 257.494 279.411 259.025L221.925 290.931C219.167 292.462 214.655 292.462 211.897 290.931V290.931Z" fill="#A9C1FF"/>
<path d="M255.93 239.401C255.927 239.738 255.833 240.068 255.658 240.357C255.484 240.645 255.234 240.881 254.937 241.04L186.059 277.755C185.964 277.805 185.865 277.848 185.763 277.881L185.53 278.011V346.53C185.53 346.857 185.445 347.177 185.283 347.461C185.121 347.744 184.888 347.981 184.606 348.146C184.325 348.312 184.005 348.401 183.679 348.405C183.352 348.41 183.03 348.328 182.745 348.17L171.203 341.764C170.911 341.602 170.667 341.364 170.497 341.076C170.327 340.787 170.238 340.459 170.238 340.124V273.448C170.238 272.304 170.495 271.174 170.99 270.143C171.485 269.111 172.206 268.204 173.098 267.488L173.166 267.435C173.317 267.317 173.461 267.213 173.608 267.113C173.827 266.964 174.054 266.827 174.287 266.701L241.152 231.059C241.428 230.911 241.737 230.836 242.05 230.838C242.363 230.841 242.671 230.922 242.945 231.074L254.965 237.745C255.259 237.909 255.505 238.149 255.675 238.441C255.844 238.732 255.933 239.064 255.93 239.401V239.401ZM262.281 268.408C261.845 267.91 261.346 267.471 260.796 267.103C260.76 267.078 260.724 267.054 260.681 267.026C260.503 266.91 260.319 266.801 260.132 266.7L193.267 231.058C192.99 230.911 192.682 230.835 192.369 230.838C192.055 230.841 191.748 230.922 191.474 231.074L179.454 237.745C179.159 237.909 178.914 238.149 178.744 238.44C178.574 238.732 178.486 239.064 178.488 239.401C178.491 239.738 178.585 240.069 178.76 240.357C178.935 240.646 179.184 240.882 179.482 241.04L248.36 277.755C248.456 277.806 248.555 277.848 248.656 277.882L248.889 278.012V346.53C248.889 346.857 248.974 347.178 249.136 347.461C249.298 347.745 249.531 347.981 249.813 348.147C250.094 348.312 250.414 348.402 250.74 348.406C251.067 348.41 251.389 348.329 251.674 348.17L263.216 341.765C263.508 341.602 263.752 341.364 263.922 341.076C264.091 340.788 264.181 340.459 264.181 340.124V273.448C264.18 271.593 263.505 269.802 262.281 268.408V268.408Z" fill="#D4E5FF"/>
<path d="M239.919 257.567C239.919 262.274 234.147 265.689 226.194 265.689C222.951 265.689 220.071 265.121 217.797 264.129C217.506 264.002 217.192 263.942 216.875 263.951C216.559 263.961 216.248 264.04 215.966 264.183C213.595 265.379 210.452 266.076 206.863 266.076C198.91 266.076 193.138 262.661 193.138 257.954C193.138 255.585 194.601 253.543 197.069 252.099C198.042 251.53 198.45 250.316 197.968 249.298C196.209 245.578 196.266 242.087 198.423 239.93C199.541 238.812 201.071 238.221 202.85 238.221C204.099 238.221 205.456 238.517 206.849 239.071C207.385 239.285 207.983 239.279 208.515 239.055C209.046 238.832 209.468 238.408 209.69 237.876C211.122 234.456 213.493 232.35 216.335 232.35C219.128 232.35 221.467 234.385 222.907 237.702C223.384 238.803 224.646 239.328 225.755 238.87C227.211 238.269 228.63 237.948 229.934 237.948C232.18 237.948 233.58 238.877 234.36 239.656C236.481 241.777 236.572 245.186 234.904 248.835C234.436 249.858 234.85 251.07 235.83 251.623C238.393 253.071 239.919 255.148 239.919 257.567V257.567Z" fill="#6E97FF"/>
<g clip-path="url(#clip2_159_2935)">
<path d="M363.303 112.323L348.959 114.857C348.271 114.978 347.325 114.653 346.858 114.133L337.12 103.3C336.887 103.04 336.815 102.779 336.888 102.568L336.76 102.524L341.905 87.5947L369.082 96.9606L363.937 111.89C363.864 112.101 363.647 112.263 363.303 112.323V112.323Z" fill="#FF473E"/>
<path d="M369.082 96.961L363.937 111.89C363.864 112.102 363.647 112.263 363.303 112.324L348.959 114.857C348.601 114.92 348.174 114.862 347.78 114.719C350.366 107.246 353.158 99.8344 355.501 92.2808L369.082 96.961L369.082 96.961Z" fill="#FF6E83"/>
<path d="M352.004 99.204L342.266 88.3714C341.799 87.8517 341.98 87.3271 342.668 87.2055L357.012 84.6722C357.7 84.5507 358.645 84.8764 359.112 85.3961L368.85 96.2288C369.317 96.7484 369.137 97.273 368.448 97.3946L354.104 99.9279C353.416 100.049 352.471 99.7237 352.004 99.204Z" fill="#FFA9BA"/>
<path d="M364.946 91.5892C364.921 91.6596 364.878 91.722 364.82 91.7698C364.763 91.8176 364.694 91.8491 364.62 91.8608L347.542 94.5791C347.519 94.5829 347.495 94.5846 347.471 94.5842L347.413 94.5947L342.467 108.947C342.444 109.015 342.403 109.076 342.348 109.124C342.294 109.171 342.228 109.204 342.157 109.218C342.086 109.233 342.013 109.228 341.944 109.206C341.875 109.183 341.814 109.143 341.765 109.089L339.81 106.914C339.761 106.859 339.727 106.792 339.712 106.719C339.697 106.646 339.702 106.571 339.726 106.501L344.539 92.5349C344.622 92.2953 344.757 92.0773 344.936 91.897C345.114 91.7167 345.33 91.5786 345.569 91.4931L345.587 91.4869C345.627 91.473 345.665 91.4616 345.703 91.4513C345.759 91.436 345.817 91.4236 345.875 91.414L362.453 88.7751C362.521 88.7642 362.592 88.7706 362.657 88.7938C362.722 88.8169 362.781 88.8561 362.827 88.9077L364.863 91.1727C364.913 91.2283 364.947 91.2963 364.962 91.3696C364.977 91.4429 364.971 91.5188 364.946 91.5892V91.5892ZM364.183 98.1234C364.127 97.9877 364.054 97.8598 363.966 97.7429C363.96 97.7351 363.954 97.7274 363.947 97.7185C363.918 97.6813 363.888 97.6453 363.856 97.6106L352.423 85.3184C352.376 85.2676 352.317 85.2294 352.251 85.2074C352.185 85.1854 352.115 85.1801 352.046 85.1922L349.047 85.7219C348.973 85.7349 348.905 85.7675 348.848 85.8163C348.791 85.865 348.749 85.9282 348.725 85.999C348.702 86.0699 348.697 86.1459 348.713 86.2189C348.729 86.292 348.764 86.3594 348.815 86.4141L360.592 99.0763C360.608 99.094 360.626 99.11 360.645 99.1243L360.684 99.1683L355.738 113.52C355.715 113.589 355.709 113.662 355.723 113.733C355.736 113.804 355.768 113.87 355.815 113.925C355.862 113.98 355.922 114.022 355.991 114.047C356.059 114.071 356.132 114.077 356.203 114.065L359.083 113.556C359.156 113.543 359.224 113.511 359.281 113.463C359.337 113.415 359.379 113.352 359.404 113.282L364.217 99.3163C364.35 98.9277 364.338 98.5038 364.183 98.1234V98.1234Z" fill="#FFD4DE"/>
<path d="M360.281 94.2382C359.941 95.224 358.485 95.5228 356.82 94.9487C356.14 94.7146 355.578 94.3876 355.173 94.0156C355.122 93.9682 355.06 93.9329 354.993 93.912C354.926 93.8911 354.855 93.8853 354.786 93.8949C354.203 93.9743 353.494 93.8935 352.743 93.6344C351.077 93.0603 350.114 91.9282 350.454 90.9424C350.625 90.4461 351.079 90.124 351.7 89.9997C351.945 89.9507 352.118 89.726 352.091 89.4779C351.991 88.5717 352.255 87.8446 352.862 87.5484C353.177 87.395 353.54 87.3818 353.913 87.5102C354.174 87.6004 354.437 87.7601 354.689 87.9768C354.786 88.0602 354.912 88.1022 355.039 88.0937C355.167 88.0853 355.286 88.027 355.37 87.9315C355.917 87.3187 356.566 87.0487 357.161 87.2538C357.746 87.4555 358.089 88.0505 358.151 88.8491C358.172 89.1143 358.398 89.3154 358.664 89.2995C359.012 89.2788 359.332 89.3139 359.605 89.4079C360.076 89.5701 360.302 89.8657 360.409 90.0852C360.7 90.6826 360.473 91.4031 359.861 92.047C359.689 92.2277 359.688 92.5114 359.853 92.6981C360.286 93.1863 360.455 93.7316 360.281 94.2382V94.2382Z" fill="#FF6E83"/>
</g>
<g clip-path="url(#clip3_159_2935)">
<path d="M40.0553 153.196L23.7163 160.493C22.9324 160.843 21.7088 160.737 20.9971 160.257L6.16179 150.251C5.80593 150.011 5.6428 149.721 5.66657 149.447L5.50102 149.433L7.18066 130.107L42.3614 133.165L40.6818 152.491C40.658 152.764 40.4473 153.021 40.0553 153.196V153.196Z" fill="#3E5DFF"/>
<path d="M42.3609 133.164L40.6813 152.491C40.6575 152.764 40.4468 153.021 40.0549 153.196L23.7158 160.493C23.3082 160.675 22.7819 160.733 22.2703 160.679C23.1235 151.003 24.2407 141.337 24.7808 131.636L42.3609 133.164L42.3609 133.164Z" fill="#6E97FF"/>
<path d="M22.6764 140.93L7.84117 130.924C7.12946 130.444 7.18848 129.765 7.97233 129.415L24.3114 122.119C25.0952 121.768 26.3189 121.875 27.0305 122.355L41.8658 132.361C42.5776 132.841 42.5185 133.52 41.7347 133.87L25.3956 141.167C24.6118 141.517 23.3882 141.41 22.6764 140.93Z" fill="#A9BCFF"/>
<path d="M35.8304 127.996C35.8217 128.088 35.7884 128.175 35.7343 128.249C35.6801 128.323 35.6069 128.381 35.5225 128.417L15.9812 136.749C15.9543 136.761 15.9264 136.77 15.8979 136.777L15.8317 136.806L14.217 155.385C14.2093 155.474 14.1787 155.559 14.128 155.632C14.0774 155.705 14.0086 155.763 13.9284 155.802C13.8482 155.84 13.7594 155.857 13.6708 155.85C13.5821 155.844 13.4968 155.814 13.4231 155.764L10.4446 153.755C10.3691 153.704 10.3086 153.634 10.2693 153.552C10.2301 153.47 10.2136 153.379 10.2215 153.288L11.7927 135.209C11.8198 134.898 11.9161 134.598 12.0747 134.33C12.2332 134.062 12.4499 133.833 12.7087 133.66L12.7285 133.647C12.7722 133.619 12.8136 133.594 12.8559 133.57C12.9188 133.535 12.9835 133.503 13.0496 133.475L32.02 125.386C32.0984 125.353 32.1839 125.339 32.2688 125.347C32.3536 125.356 32.435 125.385 32.5057 125.432L35.6077 127.525C35.6838 127.576 35.7446 127.647 35.7838 127.73C35.823 127.813 35.8391 127.905 35.8304 127.996V127.996ZM36.869 136.011C36.7624 135.866 36.6374 135.735 36.497 135.622C36.4878 135.615 36.4786 135.607 36.4678 135.599C36.4221 135.563 36.375 135.529 36.3264 135.497L19.0359 124.258C18.9645 124.211 18.8826 124.183 18.7976 124.177C18.7127 124.17 18.6274 124.185 18.5496 124.219L15.1331 125.745C15.0493 125.782 14.9771 125.842 14.9241 125.917C14.8712 125.992 14.8394 126.08 14.8322 126.171C14.8251 126.263 14.8427 126.355 14.8833 126.437C14.924 126.519 14.9861 126.589 15.0631 126.639L32.8739 138.218C32.8987 138.234 32.9246 138.247 32.9513 138.259L33.0113 138.3L31.3966 156.878C31.3889 156.967 31.4045 157.056 31.4417 157.137C31.479 157.217 31.5367 157.287 31.609 157.338C31.6814 157.39 31.766 157.422 31.8545 157.431C31.9429 157.439 32.0321 157.425 32.1133 157.389L35.3937 155.924C35.4768 155.887 35.5485 155.828 35.6013 155.754C35.6542 155.68 35.6862 155.593 35.6941 155.502L37.2654 137.423C37.3088 136.92 37.168 136.418 36.869 136.011V136.011Z" fill="#D4E8FF"/>
<path d="M31.0608 132.545C30.9499 133.821 29.3042 134.611 27.1478 134.424C26.2683 134.347 25.5008 134.125 24.9076 133.802C24.8318 133.761 24.7479 133.738 24.6619 133.733C24.5759 133.728 24.4898 133.742 24.4099 133.774C23.739 134.043 22.8703 134.158 21.8971 134.073C19.7406 133.886 18.2559 132.823 18.3668 131.547C18.4227 130.905 18.8676 130.386 19.5709 130.052C19.8479 129.921 19.9872 129.601 19.8807 129.314C19.4913 128.264 19.5889 127.319 20.2248 126.784C20.5542 126.508 20.983 126.384 21.4652 126.426C21.804 126.455 22.1649 126.567 22.5298 126.75C22.67 126.821 22.8323 126.833 22.9816 126.785C23.131 126.737 23.2554 126.632 23.3281 126.493C23.7971 125.6 24.4895 125.084 25.2601 125.151C26.0176 125.217 26.6037 125.824 26.9159 126.757C27.0195 127.067 27.3491 127.239 27.6607 127.141C28.0698 127.013 28.4622 126.959 28.8155 126.99C29.4245 127.043 29.7824 127.327 29.9754 127.557C30.5005 128.182 30.4449 129.109 29.9065 130.059C29.7555 130.325 29.8395 130.663 30.0921 130.837C30.7529 131.29 31.1178 131.889 31.0608 132.545V132.545Z" fill="#6E97FF"/>
</g>
<g clip-path="url(#clip4_159_2935)">
<path d="M307.829 36.8694L294.189 46.8187C293.534 47.296 292.384 47.4388 291.633 47.136L275.974 40.8236C275.599 40.6722 275.391 40.4369 275.359 40.1798L275.203 40.1991L272.949 22.0356L306.013 17.9313L308.268 36.0948C308.3 36.3518 308.156 36.6308 307.829 36.8694V36.8694Z" fill="#C13EFF"/>
<path d="M306.013 17.9315L308.268 36.095C308.3 36.3521 308.156 36.631 307.829 36.8697L294.189 46.819C293.848 47.0671 293.374 47.2241 292.892 47.2756C291.774 38.1789 290.902 29.04 289.491 19.9824L306.013 17.9314L306.013 17.9315Z" fill="#BF6EFF"/>
<path d="M289.379 28.9725L273.72 22.6601C272.969 22.3573 272.89 21.719 273.544 21.2417L287.184 11.2924C287.838 10.8151 288.988 10.6724 289.74 10.9752L305.399 17.2876C306.15 17.5904 306.229 18.2286 305.575 18.706L291.934 28.6552C291.28 29.1325 290.13 29.2753 289.379 28.9725Z" fill="#E9A9FF"/>
<path d="M298.97 14.4477C298.98 14.5338 298.967 14.6209 298.931 14.6999C298.896 14.779 298.84 14.847 298.769 14.8969L282.378 26.432C282.355 26.4479 282.331 26.4619 282.306 26.4736L282.251 26.5141L284.419 43.9753C284.429 44.0585 284.417 44.143 284.385 44.2203C284.353 44.2977 284.301 44.3653 284.234 44.4164C284.168 44.4675 284.089 44.5004 284.006 44.5118C283.923 44.5232 283.838 44.5127 283.761 44.4813L280.617 43.214C280.537 43.1819 280.468 43.129 280.415 43.0609C280.363 42.9928 280.33 42.9119 280.319 42.8266L278.21 25.835C278.174 25.5434 278.203 25.2474 278.297 24.9689C278.39 24.6904 278.545 24.4364 278.75 24.2257L278.766 24.21C278.801 24.1751 278.834 24.144 278.868 24.114C278.919 24.0692 278.973 24.0269 279.028 23.9875L294.94 12.7893C295.006 12.743 295.082 12.714 295.162 12.7047C295.242 12.6955 295.323 12.7064 295.398 12.7365L298.672 14.0564C298.752 14.0888 298.822 14.1422 298.875 14.2111C298.927 14.28 298.96 14.3617 298.97 14.4477V14.4477ZM301.506 21.6388C301.38 21.5258 301.238 21.4298 301.087 21.3533C301.077 21.3482 301.067 21.343 301.055 21.3373C301.006 21.3133 300.956 21.2914 300.905 21.2717L282.737 14.304C282.662 14.2752 282.581 14.2657 282.502 14.2763C282.422 14.2868 282.346 14.3172 282.281 14.3646L279.429 16.445C279.359 16.496 279.304 16.565 279.27 16.6446C279.236 16.7242 279.224 16.8116 279.235 16.8975C279.247 16.9834 279.281 17.0646 279.335 17.1326C279.388 17.2006 279.459 17.2528 279.54 17.2838L298.254 24.4612C298.28 24.4712 298.307 24.4788 298.334 24.4841L298.397 24.51L300.565 41.9711C300.575 42.0543 300.607 42.1334 300.657 42.2005C300.708 42.2676 300.774 42.3204 300.851 42.3538C300.928 42.3871 301.013 42.3997 301.096 42.3905C301.179 42.3812 301.259 42.3503 301.327 42.3009L304.065 40.3034C304.135 40.2527 304.189 40.1844 304.223 40.1056C304.257 40.0267 304.27 39.9402 304.259 39.8549L302.15 22.8632C302.091 22.3905 301.862 21.9554 301.506 21.6388V21.6388Z" fill="#EFD4FF"/>
<path d="M295.464 19.5835C295.613 20.7829 294.25 21.8359 292.223 22.0875C291.397 22.1901 290.645 22.1363 290.034 21.9554C289.956 21.9325 289.874 21.927 289.793 21.9395C289.713 21.9519 289.637 21.9818 289.569 22.0272C289.003 22.4071 288.224 22.6842 287.309 22.7977C285.283 23.0493 283.703 22.3614 283.555 21.1621C283.48 20.5583 283.788 19.9916 284.371 19.5455C284.601 19.3698 284.667 19.0476 284.512 18.8033C283.946 17.9109 283.85 17.0196 284.331 16.4015C284.581 16.0814 284.952 15.8824 285.405 15.8262C285.724 15.7866 286.079 15.819 286.452 15.9161C286.595 15.9536 286.747 15.9332 286.875 15.8595C287.004 15.7857 287.098 15.6643 287.138 15.5217C287.394 14.605 287.932 13.9933 288.656 13.9034C289.368 13.815 290.028 14.2595 290.5 15.0593C290.657 15.3247 290.995 15.4187 291.263 15.267C291.615 15.0677 291.967 14.9409 292.299 14.8997C292.871 14.8286 293.257 15.021 293.481 15.195C294.088 15.6684 294.219 16.5341 293.91 17.5168C293.823 17.7925 293.967 18.0881 294.234 18.1982C294.933 18.4861 295.388 18.9671 295.464 19.5835V19.5835Z" fill="#BF6EFF"/>
</g>
<g clip-path="url(#clip5_159_2935)">
<path d="M49.2721 48.6066L33.88 62.2587C33.1416 62.9137 31.7631 63.2203 30.8167 62.9401L11.0888 57.0996C10.6156 56.9596 10.3365 56.6982 10.268 56.3901L10.0815 56.4315L5.23877 34.6594L44.8722 25.8439L49.7149 47.616C49.7835 47.9241 49.6414 48.2792 49.2721 48.6066V48.6066Z" fill="#3EFFC5"/>
<path d="M44.8716 25.8441L49.7143 47.6163C49.7829 47.9245 49.6409 48.2795 49.2717 48.607L33.8794 62.259C33.4954 62.5995 32.9383 62.8449 32.3589 62.9634C29.9476 52.0581 27.8295 41.0731 25.0664 30.2493L44.8716 25.8441L44.8716 25.8441Z" fill="#6EFFDC"/>
<path d="M25.9738 41.1676L6.24603 35.3272C5.2996 35.047 5.12944 34.2819 5.86786 33.627L21.26 19.975C21.9985 19.32 23.3769 19.0134 24.3233 19.2936L44.0512 25.1341C44.9976 25.4143 45.1678 26.1793 44.4293 26.8343L29.0372 40.4862C28.2987 41.1412 26.9203 41.4478 25.9738 41.1676Z" fill="#A9FFD6"/>
<path d="M35.923 22.4353C35.945 22.5385 35.9388 22.6458 35.905 22.7458C35.8712 22.8458 35.8111 22.9348 35.731 23.0035L17.1857 38.8985C17.1601 38.9204 17.1327 38.94 17.1038 38.9572L17.0415 39.0128L21.697 59.943C21.7192 60.0428 21.7149 60.1466 21.6847 60.2442C21.6545 60.3418 21.5993 60.4298 21.5246 60.4995C21.4499 60.5692 21.3583 60.6183 21.2588 60.6417C21.1594 60.6652 21.0555 60.6623 20.9575 60.6333L16.9967 59.4607C16.8963 59.4309 16.8057 59.3749 16.7343 59.2983C16.6628 59.2218 16.6131 59.1275 16.5904 59.0253L12.0601 38.6578C11.9825 38.3083 11.9843 37.9458 12.0654 37.5971C12.1466 37.2484 12.305 36.9223 12.5289 36.643L12.5461 36.6221C12.5843 36.5757 12.621 36.5342 12.6593 36.4937C12.7161 36.4334 12.7759 36.376 12.8386 36.3218L30.8421 20.8911C30.9165 20.8273 31.0056 20.7832 31.1015 20.7628C31.1973 20.7423 31.2967 20.7462 31.3906 20.774L35.5157 21.9952C35.6168 22.0251 35.7081 22.0818 35.7798 22.1593C35.8514 22.2368 35.9009 22.3321 35.923 22.4353V22.4353ZM39.834 30.8644C39.6669 30.742 39.4845 30.642 39.2916 30.5667C39.2789 30.5616 39.2662 30.5566 39.2514 30.551C39.189 30.5276 39.1256 30.5069 39.0614 30.4889L16.2146 24.1446C16.1202 24.1183 16.0207 24.1161 15.9253 24.1382C15.8298 24.1603 15.7414 24.206 15.6681 24.271L12.4497 27.1256C12.3706 27.1956 12.312 27.2856 12.2799 27.3862C12.2478 27.4868 12.2434 27.5941 12.2672 27.697C12.291 27.7998 12.3421 27.8944 12.4151 27.9706C12.4881 28.0469 12.5803 28.102 12.6821 28.1302L36.2165 34.6655C36.2492 34.6746 36.2824 34.6808 36.3156 34.6841L36.3955 34.708L41.0509 55.6383C41.0731 55.738 41.121 55.8302 41.1897 55.9058C41.2585 55.9814 41.3458 56.0377 41.443 56.0692C41.5402 56.1007 41.644 56.1063 41.744 56.0854C41.844 56.0644 41.9368 56.0178 42.0133 55.95L45.1036 53.2091C45.1819 53.1396 45.2402 53.0504 45.2725 52.9508C45.3047 52.8511 45.3098 52.7447 45.287 52.6425L40.7568 32.2749C40.6305 31.7084 40.3025 31.2071 39.834 30.8644V30.8644Z" fill="#D4FFE5"/>
<path d="M32.2664 29.0725C32.5861 30.5101 31.0549 31.9457 28.6255 32.4861C27.6348 32.7064 26.7164 32.7284 25.9543 32.5799C25.857 32.5611 25.7568 32.564 25.6608 32.5884C25.5648 32.6128 25.4753 32.658 25.3988 32.7209C24.756 33.2474 23.8433 33.6739 22.7468 33.9178C20.3175 34.4581 18.3221 33.8069 18.0023 32.3693C17.8414 31.6455 18.1497 30.9223 18.8055 30.3135C19.0639 30.0737 19.1061 29.6752 18.8898 29.3969C18.0996 28.3799 17.8798 27.3099 18.3923 26.5042C18.6577 26.0869 19.0851 25.8025 19.6283 25.6817C20.0099 25.5968 20.4444 25.5948 20.9078 25.6694C21.0859 25.6982 21.2682 25.6559 21.4154 25.5515C21.5625 25.4471 21.6627 25.289 21.6943 25.1113C21.8995 23.9695 22.4805 23.1651 23.3487 22.972C24.202 22.7822 25.0546 23.2447 25.7197 24.1602C25.9405 24.4641 26.3614 24.5389 26.6692 24.3236C27.0733 24.0411 27.4849 23.8465 27.883 23.7579C28.5691 23.6053 29.06 23.7939 29.3511 23.979C30.1431 24.4828 30.4025 25.5177 30.1408 26.7458C30.0674 27.0903 30.2765 27.4321 30.6134 27.5347C31.4946 27.8028 32.102 28.3336 32.2664 29.0725V29.0725Z" fill="#6EFFDC"/>
</g>
<g clip-path="url(#clip6_159_2935)">
<path d="M438.811 192.966L423.634 204.639C422.906 205.199 421.606 205.394 420.746 205.072L402.811 198.367C402.381 198.206 402.139 197.945 402.096 197.655L401.92 197.681L398.84 177.154L436.208 171.548L439.287 192.075C439.331 192.366 439.176 192.686 438.811 192.966V192.966Z" fill="#FFEC3E"/>
<path d="M436.208 171.549L439.287 192.076C439.331 192.367 439.176 192.687 438.812 192.967L423.634 204.639C423.256 204.931 422.723 205.122 422.177 205.194C420.648 194.914 419.396 184.578 417.535 174.35L436.208 171.549L436.208 171.549Z" fill="#FFF96E"/>
<path d="M417.667 184.545L399.733 177.839C398.872 177.518 398.764 176.796 399.492 176.236L414.669 164.564C415.398 164.004 416.697 163.809 417.558 164.131L435.492 170.836C436.352 171.158 436.461 171.879 435.733 172.439L420.555 184.111C419.827 184.671 418.527 184.866 417.667 184.545Z" fill="#FFF6A9"/>
<path d="M428.122 167.802C428.136 167.899 428.123 167.998 428.085 168.089C428.047 168.18 427.986 168.258 427.907 168.317L409.656 181.867C409.631 181.885 409.605 181.902 409.577 181.916L409.515 181.963L412.475 201.697C412.49 201.791 412.479 201.887 412.444 201.976C412.41 202.064 412.353 202.142 412.279 202.202C412.205 202.262 412.117 202.302 412.023 202.317C411.929 202.332 411.833 202.323 411.744 202.29L408.143 200.943C408.052 200.909 407.972 200.851 407.91 200.776C407.849 200.7 407.809 200.609 407.794 200.513L404.914 181.31C404.864 180.98 404.89 180.644 404.988 180.325C405.086 180.007 405.254 179.715 405.48 179.47L405.497 179.452C405.536 179.411 405.573 179.375 405.611 179.34C405.667 179.287 405.727 179.238 405.788 179.192L423.506 166.038C423.579 165.984 423.665 165.948 423.755 165.936C423.845 165.923 423.937 165.933 424.023 165.965L427.773 167.367C427.865 167.401 427.946 167.46 428.007 167.536C428.069 167.613 428.108 167.705 428.122 167.802V167.802ZM431.205 175.882C431.057 175.757 430.895 175.652 430.72 175.57C430.709 175.564 430.698 175.559 430.684 175.553C430.628 175.527 430.57 175.504 430.512 175.483L409.715 168.107C409.629 168.076 409.537 168.068 409.446 168.082C409.356 168.096 409.271 168.133 409.199 168.189L406.026 170.629C405.948 170.689 405.887 170.769 405.851 170.86C405.815 170.951 405.804 171.051 405.819 171.148C405.834 171.245 405.876 171.336 405.938 171.411C406.001 171.487 406.083 171.544 406.176 171.577L427.599 179.175C427.629 179.186 427.659 179.193 427.69 179.199L427.762 179.226L430.723 198.96C430.737 199.054 430.775 199.142 430.834 199.217C430.893 199.292 430.97 199.35 431.059 199.385C431.147 199.421 431.243 199.433 431.337 199.42C431.431 199.407 431.52 199.369 431.596 199.312L434.643 196.968C434.72 196.909 434.78 196.83 434.817 196.739C434.853 196.649 434.865 196.55 434.85 196.454L431.969 177.251C431.889 176.717 431.617 176.23 431.205 175.882V175.882Z" fill="#FCFFD4"/>
<path d="M424.296 173.725C424.499 175.081 422.984 176.314 420.694 176.658C419.759 176.798 418.906 176.758 418.208 176.571C418.119 176.547 418.025 176.543 417.935 176.56C417.844 176.576 417.758 176.612 417.683 176.666C417.052 177.113 416.177 177.449 415.143 177.604C412.853 177.948 411.042 177.214 410.839 175.858C410.737 175.176 411.07 174.524 411.718 174.002C411.974 173.796 412.039 173.429 411.856 173.156C411.189 172.161 411.054 171.153 411.583 170.439C411.856 170.068 412.271 169.832 412.784 169.755C413.143 169.701 413.547 169.728 413.972 169.827C414.136 169.866 414.308 169.838 414.451 169.751C414.595 169.663 414.698 169.523 414.739 169.36C415.004 168.314 415.595 167.605 416.414 167.482C417.218 167.361 417.98 167.846 418.538 168.739C418.723 169.036 419.109 169.133 419.408 168.953C419.802 168.717 420.197 168.563 420.572 168.506C421.219 168.409 421.662 168.616 421.921 168.807C422.623 169.326 422.797 170.304 422.474 171.427C422.383 171.742 422.555 172.073 422.861 172.19C423.662 172.497 424.191 173.029 424.296 173.725V173.725Z" fill="#FFF96E"/>
</g>
<path d="M132.569 88.4175L113.283 99.1217C112.358 99.6352 110.844 99.6352 109.919 99.1217L90.6331 88.4175C90.1705 88.1608 89.9392 87.8223 89.9392 87.4839H89.7344V63.572H133.263V87.4839C133.263 87.8223 133.032 88.1608 132.569 88.4175V88.4175Z" fill="#FFB23E"/>
<path d="M133.263 63.5721V87.484C133.263 87.8225 133.032 88.1609 132.569 88.4178L113.283 99.1218C112.802 99.3887 112.162 99.5159 111.528 99.505C111.543 87.5312 111.883 75.5424 111.511 63.572H133.263V63.5721Z" fill="#FFC56E"/>
<path d="M109.919 75.2096L90.6334 64.5055C89.7081 63.992 89.7081 63.1518 90.6334 62.6382L109.919 51.9342C110.844 51.4207 112.358 51.4207 113.283 51.9342L132.569 62.6383C133.495 63.1519 133.495 63.9921 132.569 64.5056L113.284 75.2096C112.358 75.7232 110.844 75.7232 109.919 75.2096Z" fill="#FFDDA9"/>
<path d="M124.692 57.9224C124.691 58.0355 124.66 58.1463 124.601 58.2431C124.542 58.3399 124.459 58.419 124.359 58.4723L101.251 70.7897C101.219 70.8067 101.186 70.8209 101.152 70.8321L101.074 70.8757V93.863C101.074 93.9725 101.045 94.0802 100.991 94.1753C100.936 94.2704 100.858 94.3497 100.764 94.4052C100.669 94.4608 100.562 94.4908 100.453 94.4922C100.343 94.4936 100.235 94.4664 100.139 94.4132L96.2673 92.2641C96.1691 92.2097 96.0873 92.1299 96.0303 92.0332C95.9734 91.9364 95.9434 91.8262 95.9434 91.7139V69.3447C95.9435 68.9609 96.0297 68.582 96.1958 68.2359C96.3619 67.8899 96.6035 67.5855 96.9029 67.3453L96.9258 67.3275C96.9765 67.2878 97.0246 67.2529 97.0741 67.2195C97.1476 67.1696 97.2236 67.1234 97.3018 67.0813L119.734 55.1237C119.827 55.0742 119.931 55.0488 120.036 55.0497C120.141 55.0506 120.244 55.0778 120.336 55.1288L124.368 57.3669C124.467 57.4219 124.549 57.5024 124.606 57.6002C124.663 57.6979 124.693 57.8092 124.692 57.9224V57.9224ZM126.823 67.6538C126.677 67.4869 126.509 67.3397 126.325 67.216C126.313 67.2078 126.3 67.1995 126.286 67.1903C126.226 67.1512 126.165 67.1148 126.102 67.081L103.669 55.1236C103.577 55.0741 103.473 55.0487 103.368 55.0496C103.263 55.0505 103.16 55.0777 103.068 55.1287L99.0354 57.3668C98.9364 57.4217 98.854 57.5023 98.797 57.6001C98.74 57.6978 98.7104 57.8092 98.7114 57.9224C98.7123 58.0355 98.7438 58.1464 98.8025 58.2431C98.8612 58.3399 98.9449 58.4191 99.0448 58.4723L122.152 70.7897C122.185 70.8068 122.218 70.821 122.252 70.8322L122.33 70.8758V93.8631C122.33 93.9726 122.358 94.0803 122.413 94.1754C122.467 94.2705 122.545 94.3498 122.64 94.4053C122.734 94.4609 122.842 94.4909 122.951 94.4923C123.061 94.4937 123.169 94.4665 123.264 94.4133L127.136 92.2642C127.235 92.2097 127.316 92.13 127.373 92.0332C127.43 91.9365 127.46 91.8263 127.46 91.714V69.3447C127.46 68.7225 127.233 68.1215 126.823 67.6538V67.6538Z" fill="#FFEBD4"/>
<path d="M119.32 64.0166C119.32 65.5955 117.383 66.7415 114.715 66.7415C113.627 66.7415 112.661 66.5507 111.898 66.2179C111.8 66.1756 111.695 66.1553 111.589 66.1585C111.482 66.1616 111.378 66.1882 111.284 66.2362C110.488 66.6375 109.434 66.8714 108.23 66.8714C105.562 66.8714 103.625 65.7255 103.625 64.1465C103.625 63.3516 104.116 62.6665 104.944 62.1821C105.27 61.9913 105.407 61.584 105.246 61.2424C104.655 59.9943 104.674 58.8233 105.398 58.0994C105.773 57.7245 106.287 57.5263 106.883 57.5263C107.302 57.5263 107.758 57.6254 108.225 57.8113C108.405 57.883 108.605 57.8811 108.784 57.8061C108.962 57.7311 109.104 57.5889 109.178 57.4104C109.659 56.2632 110.454 55.5566 111.407 55.5566C112.345 55.5566 113.129 56.2392 113.612 57.352C113.772 57.7214 114.196 57.8977 114.568 57.744C115.056 57.5424 115.532 57.4346 115.97 57.4346C116.723 57.4346 117.193 57.7462 117.455 58.0076C118.166 58.7192 118.197 59.8627 117.637 61.087C117.48 61.4304 117.619 61.8368 117.948 62.0225C118.808 62.5083 119.32 63.2051 119.32 64.0166V64.0166Z" fill="#FFC56E"/>
<path d="M399.633 29.1427L384.713 37.4236C383.997 37.8209 382.826 37.8209 382.11 37.4236L367.19 29.1427C366.832 28.9441 366.653 28.6822 366.653 28.4204H366.495V9.92163H400.169V28.4204C400.169 28.6822 399.99 28.9441 399.633 29.1427V29.1427Z" fill="#3EFFFF"/>
<path d="M400.17 9.92171V28.4205C400.17 28.6824 399.991 28.9442 399.633 29.1428L384.713 37.4237C384.341 37.6303 383.846 37.7287 383.355 37.7202C383.367 28.457 383.63 19.1822 383.342 9.92163H400.17V9.92171Z" fill="#6EEEFF"/>
<path d="M382.111 18.9247L367.191 10.6438C366.475 10.2465 366.475 9.59647 367.191 9.19919L382.111 0.918319C382.826 0.521042 383.998 0.521042 384.713 0.918319L399.633 9.19927C400.349 9.59654 400.349 10.2466 399.633 10.6438L384.713 18.9247C383.998 19.322 382.826 19.322 382.111 18.9247Z" fill="#A9F5FF"/>
<path d="M393.539 5.55035C393.538 5.63789 393.514 5.7236 393.469 5.79847C393.423 5.87334 393.358 5.93459 393.281 5.97578L375.405 15.5048C375.38 15.5179 375.354 15.5289 375.328 15.5376L375.267 15.5714V33.3548C375.267 33.4396 375.245 33.5229 375.203 33.5964C375.161 33.67 375.101 33.7313 375.028 33.7743C374.955 33.8173 374.872 33.8405 374.787 33.8416C374.702 33.8427 374.619 33.8216 374.544 33.7805L371.549 32.1179C371.473 32.0758 371.41 32.0141 371.366 31.9392C371.322 31.8644 371.298 31.7791 371.298 31.6923V14.387C371.298 14.09 371.365 13.7969 371.494 13.5292C371.622 13.2614 371.809 13.026 372.041 12.8402L372.058 12.8264C372.098 12.7957 372.135 12.7687 372.173 12.7428C372.23 12.7042 372.289 12.6685 372.349 12.6359L389.704 3.38521C389.775 3.34698 389.855 3.32731 389.937 3.328C390.018 3.3287 390.098 3.34973 390.169 3.38918L393.289 5.12065C393.365 5.16314 393.429 5.22548 393.473 5.3011C393.517 5.37672 393.54 5.46282 393.539 5.55035V5.55035ZM395.187 13.0788C395.074 12.9497 394.945 12.8358 394.802 12.7401C394.793 12.7338 394.783 12.7274 394.772 12.7202C394.726 12.69 394.678 12.6618 394.63 12.6357L377.275 3.38514C377.204 3.34688 377.123 3.32721 377.042 3.3279C376.961 3.32859 376.881 3.34964 376.81 3.38911L373.69 5.12057C373.614 5.16304 373.55 5.22537 373.506 5.30101C373.462 5.37664 373.439 5.46278 373.44 5.55034C373.44 5.6379 373.465 5.72363 373.51 5.79851C373.556 5.87339 373.62 5.93463 373.698 5.97578L391.574 15.5048C391.599 15.5181 391.625 15.529 391.651 15.5377L391.712 15.5715V33.3549C391.712 33.4397 391.734 33.5229 391.776 33.5965C391.818 33.6701 391.878 33.7314 391.951 33.7744C392.024 33.8174 392.107 33.8406 392.192 33.8417C392.277 33.8428 392.36 33.8217 392.434 33.7806L395.43 32.118C395.506 32.0758 395.569 32.0141 395.613 31.9393C395.657 31.8645 395.681 31.7792 395.681 31.6923V14.387C395.68 13.9055 395.505 13.4406 395.187 13.0788V13.0788Z" fill="#D4FCFF"/>
<path d="M389.383 10.2651C389.383 11.4865 387.885 12.3731 385.821 12.3731C384.979 12.3731 384.231 12.2254 383.641 11.968C383.566 11.9353 383.484 11.9196 383.402 11.922C383.32 11.9245 383.239 11.945 383.166 11.9821C382.551 12.2926 381.735 12.4736 380.804 12.4736C378.739 12.4736 377.241 11.587 377.241 10.3656C377.241 9.75058 377.621 9.2206 378.262 8.84579C378.514 8.69819 378.62 8.38314 378.495 8.11886C378.038 7.15327 378.053 6.24736 378.613 5.68735C378.903 5.39731 379.3 5.24402 379.762 5.24402C380.086 5.24402 380.438 5.32063 380.8 5.46449C380.939 5.51992 381.094 5.51847 381.232 5.46043C381.37 5.4024 381.48 5.29244 381.537 5.1543C381.909 4.26682 382.524 3.72021 383.262 3.72021C383.987 3.72021 384.594 4.24824 384.967 5.10915C385.091 5.39492 385.419 5.53129 385.707 5.41244C386.085 5.25645 386.453 5.17303 386.791 5.17303C387.374 5.17303 387.738 5.41409 387.94 5.61636C388.491 6.16685 388.514 7.0515 388.081 7.99859C387.96 8.26429 388.067 8.57867 388.322 8.72238C388.987 9.09816 389.383 9.63727 389.383 10.2651V10.2651Z" fill="#6EEEFF"/>
<defs>
<filter id="filter0_d_159_2935" x="30.8452" y="80.7964" width="366.204" height="366.204" filterUnits="userSpaceOnUse" color-interpolation-filters="sRGB">
<feFlood flood-opacity="0" result="BackgroundImageFix"/>
<feColorMatrix in="SourceAlpha" type="matrix" values="0 0 0 0 0 0 0 0 0 0 0 0 0 0 0 0 0 0 127 0" result="hardAlpha"/>
<feMorphology radius="1" operator="dilate" in="SourceAlpha" result="effect1_dropShadow_159_2935"/>
<feOffset dx="8" dy="11"/>
<feGaussianBlur stdDeviation="12.5"/>
<feComposite in2="hardAlpha" operator="out"/>
<feColorMatrix type="matrix" values="0 0 0 0 0.383333 0 0 0 0 0.383333 0 0 0 0 0.383333 0 0 0 0.13 0"/>
<feBlend mode="normal" in2="BackgroundImageFix" result="effect1_dropShadow_159_2935"/>
<feBlend mode="normal" in="SourceGraphic" in2="effect1_dropShadow_159_2935" result="shape"/>
</filter>
<linearGradient id="paint0_linear_159_2935" x1="205.947" y1="95.7964" x2="205.947" y2="410" gradientUnits="userSpaceOnUse">
<stop stop-color="#F0E943" stop-opacity="0.5"/>
<stop offset="1" stop-color="#78DEF4" stop-opacity="0.51"/>
</linearGradient>
<clipPath id="clip0_159_2935">
<rect width="131.416" height="131.416" fill="white" transform="translate(224.393 140.202) rotate(12.9416)"/>
</clipPath>
<clipPath id="clip1_159_2935">
<rect width="110.554" height="110.554" fill="white" transform="translate(99.5859 138.708) rotate(20.4847)"/>
</clipPath>
<clipPath id="clip2_159_2935">
<rect width="32.7296" height="32.7296" fill="white" transform="translate(342.854 78.9639) rotate(19.0153)"/>
</clipPath>
<clipPath id="clip3_159_2935">
<rect width="40.208" height="40.208" fill="white" transform="translate(5.7373 119.538) rotate(4.96713)"/>
</clipPath>
<clipPath id="clip4_159_2935">
<rect width="37.9362" height="37.9362" fill="white" transform="translate(269.536 12.5671) rotate(-7.0761)"/>
</clipPath>
<clipPath id="clip5_159_2935">
<rect width="46.2297" height="46.2297" fill="white" transform="translate(0 23.5698) rotate(-12.54)"/>
</clipPath>
<clipPath id="clip6_159_2935">
<rect width="43.0226" height="43.0226" fill="white" transform="translate(394.699 166.518) rotate(-8.53165)"/>
</clipPath>
</defs>
</svg>
