<svg width="45" height="45" viewBox="0 0 45 45" fill="none" xmlns="http://www.w3.org/2000/svg">
<circle cx="22.5" cy="22.5" r="22.5" fill="url(#paint0_linear_110_1652)"/>
<path d="M31.1894 35.7675H13.8365C13.2541 35.7675 12.7819 35.2575 12.7819 34.6285V11.3112C12.7819 10.6821 13.2541 10.1721 13.8365 10.1721H31.1894C31.7719 10.1721 32.2441 10.6821 32.2441 11.3112V34.6285C32.2441 35.2575 31.7719 35.7675 31.1894 35.7675Z" fill="#DCE2E2"/>
<path d="M28.3117 16.8269H15.8164C15.4523 16.8269 15.1572 16.5082 15.1572 16.115C15.1572 15.7218 15.4523 15.4031 15.8164 15.4031H28.3117C28.6758 15.4031 28.9709 15.7218 28.9709 16.115C28.9709 16.5082 28.6758 16.8269 28.3117 16.8269ZM28.9709 19.346C28.9709 18.9528 28.6758 18.6341 28.3117 18.6341H15.8164C15.4523 18.6341 15.1572 18.9528 15.1572 19.346C15.1572 19.7392 15.4523 20.0579 15.8164 20.0579H28.3117C28.6758 20.0579 28.9709 19.7392 28.9709 19.346ZM20.5329 22.5771C20.5329 22.1839 20.2377 21.8652 19.8737 21.8652H15.8164C15.4523 21.8652 15.1572 22.1839 15.1572 22.5771C15.1572 22.9703 15.4523 23.289 15.8164 23.289H19.8737C20.2377 23.289 20.5329 22.9703 20.5329 22.5771ZM28.9709 25.8081C28.9709 25.415 28.6758 25.0962 28.3117 25.0962H15.8164C15.4523 25.0962 15.1572 25.415 15.1572 25.8081C15.1572 26.2013 15.4523 26.5201 15.8164 26.5201H28.3117C28.6758 26.5201 28.9709 26.2013 28.9709 25.8081ZM20.5329 32.0677C20.5329 31.6745 20.2377 31.3558 19.8737 31.3558H15.8164C15.4523 31.3558 15.1572 31.6745 15.1572 32.0677C15.1572 32.4609 15.4523 32.7796 15.8164 32.7796H19.8737C20.2377 32.7796 20.5329 32.4609 20.5329 32.0677Z" fill="#96A9B2"/>
<path d="M35.0197 16.4103C34.0627 15.3768 32.971 14.8802 32.5813 15.3012L29.9456 18.1477L33.411 21.8905L36.0467 19.0439C36.4365 18.6229 35.9767 17.4438 35.0197 16.4103Z" fill="#FF6E83"/>
<path d="M33.3489 18.2147C32.2571 17.0355 31.0115 16.469 30.5668 16.9493L27.8678 19.8642L31.8217 24.1344L34.5207 21.2194C34.9654 20.7391 34.4407 19.3938 33.3489 18.2147Z" fill="#BFBCAF"/>
<path d="M22.9409 31.3917L20.5636 32.5084C20.5225 32.5277 20.4782 32.5381 20.4334 32.5389C20.3885 32.5398 20.344 32.5311 20.3022 32.5133C20.2605 32.4956 20.2224 32.4691 20.1901 32.4355C20.1578 32.4018 20.132 32.3616 20.1141 32.3172C20.0955 32.2707 20.0859 32.2207 20.0859 32.17C20.0859 32.1194 20.0955 32.0693 20.1141 32.0229L21.1481 29.4555C21.4482 28.7103 22.2509 28.3689 22.9409 28.693C23.6309 29.0171 23.9469 29.884 23.6468 30.6292C23.5041 30.9837 23.2448 31.2481 22.9409 31.3917Z" fill="#2B2622"/>
<path d="M32.9613 22.8946C32.9638 22.8907 32.9664 22.8868 32.9687 22.8829C33.3116 22.3522 32.787 21.0747 31.7439 19.9482C30.7008 18.8216 29.518 18.255 29.0266 18.6253C29.0229 18.6279 29.0193 18.6306 29.0157 18.6334C29.0113 18.6369 29.0067 18.6402 29.0024 18.6439C28.9903 18.654 28.9785 18.6647 28.9674 18.6766L22.6949 25.4509C22.6949 25.4509 20.9205 30.1933 21.5891 30.9154C22.2576 31.6374 26.6488 29.721 26.6488 29.721L32.9212 22.9468C32.9323 22.9348 32.9422 22.9221 32.9515 22.9089C32.9549 22.9043 32.958 22.8994 32.9613 22.8946Z" fill="#FFD469"/>
<path d="M22.6948 25.4509L22.5555 26.3885C22.535 26.5264 22.6456 26.6455 22.7732 26.6229L23.3953 26.5132C23.5181 26.4915 23.6267 26.6015 23.6145 26.7353L23.5452 27.4938C23.5424 27.5248 23.5461 27.5562 23.5563 27.5855C23.5664 27.6147 23.5826 27.6411 23.6036 27.6626C23.6246 27.684 23.6499 27.7 23.6775 27.7093C23.7051 27.7186 23.7343 27.7209 23.7629 27.7161L24.3916 27.6108C24.5202 27.5893 24.6302 27.7108 24.6072 27.8491L24.4997 28.4988C24.4775 28.6326 24.5801 28.7522 24.7053 28.7385L25.413 28.6614C25.4409 28.6583 25.4692 28.6621 25.4957 28.6723C25.5222 28.6825 25.5462 28.6989 25.5661 28.7204C25.586 28.7419 25.6012 28.7679 25.6106 28.7965C25.62 28.8251 25.6234 28.8557 25.6205 28.8859L25.5476 29.6569C25.535 29.7896 25.6414 29.8996 25.7636 29.8802L26.6641 29.7378L21.589 32.0312C21.9939 31.594 20.9455 30.4618 20.5406 30.899L22.6948 25.4509Z" fill="#E5AA6E"/>
<path d="M23.9973 25.6986C23.9505 25.6986 23.9049 25.6836 23.866 25.6556C23.8272 25.6275 23.7969 25.5876 23.779 25.541C23.7611 25.4944 23.7564 25.4431 23.7655 25.3935C23.7746 25.344 23.7971 25.2985 23.8301 25.2628L29.0638 19.6105C29.1084 19.5643 29.1681 19.5388 29.2299 19.5396C29.2917 19.5403 29.3508 19.5671 29.3945 19.6143C29.4382 19.6615 29.463 19.7254 29.4637 19.7921C29.4644 19.8589 29.4408 19.9232 29.3981 19.9715L24.1644 25.6239C24.1425 25.6476 24.1164 25.6664 24.0877 25.6793C24.0591 25.6921 24.0283 25.6987 23.9973 25.6986ZM25.5014 27.0678L30.7351 21.4154C30.7778 21.3672 30.8014 21.3028 30.8007 21.2361C30.8 21.1693 30.7752 21.1055 30.7315 21.0583C30.6878 21.0111 30.6287 20.9843 30.5669 20.9835C30.5051 20.9828 30.4454 21.0083 30.4008 21.0544L25.1671 26.7068C25.1244 26.755 25.1008 26.8194 25.1015 26.8862C25.1021 26.9529 25.127 27.0167 25.1707 27.0639C25.2144 27.1111 25.2735 27.138 25.3353 27.1387C25.3971 27.1394 25.4567 27.114 25.5014 27.0678ZM26.8383 28.5117L32.072 22.8594C32.1148 22.8111 32.1383 22.7468 32.1377 22.68C32.137 22.6132 32.1121 22.5494 32.0684 22.5022C32.0247 22.455 31.9656 22.4282 31.9038 22.4275C31.842 22.4267 31.7824 22.4522 31.7378 22.4983L26.5041 28.1507C26.4613 28.199 26.4378 28.2633 26.4384 28.3301C26.4391 28.3968 26.464 28.4607 26.5077 28.5079C26.5514 28.5551 26.6105 28.5819 26.6723 28.5826C26.7341 28.5834 26.7937 28.5579 26.8383 28.5117Z" fill="#FFB636"/>
<path d="M26.2384 11.9172H18.6099C18.2168 11.9172 17.8982 11.573 17.8982 11.1485V9.9647C17.8982 9.54019 18.2168 9.19604 18.6099 9.19604H26.2384C26.6314 9.19604 26.9501 9.54019 26.9501 9.9647V11.1485C26.9501 11.573 26.6314 11.9172 26.2384 11.9172Z" fill="#B9C5C6"/>
<defs>
<linearGradient id="paint0_linear_110_1652" x1="23" y1="-15.5" x2="23" y2="31.5" gradientUnits="userSpaceOnUse">
<stop stop-color="#FFF9D9"/>
<stop offset="1" stop-color="#FFE769"/>
</linearGradient>
</defs>
</svg>
