<svg width="122" height="25" viewBox="0 0 122 25" fill="none" xmlns="http://www.w3.org/2000/svg">
<path d="M23.874 0.984103L17.894 18.2221C17.8247 18.4474 17.7033 18.6208 17.53 18.7421C17.3567 18.8634 17.14 18.9241 16.88 18.9241H14.124C13.864 18.9241 13.6473 18.8461 13.474 18.6901C13.3007 18.5341 13.2053 18.3348 13.188 18.0921L12.356 4.9621C12.356 4.5981 12.3387 4.25144 12.304 3.9221C12.2693 3.59277 12.2433 3.25477 12.226 2.9081H11.706C11.5847 3.25477 11.4633 3.61877 11.342 4.0001C11.238 4.3641 11.1253 4.71077 11.004 5.0401L6.55801 18.1961C6.48867 18.4388 6.35867 18.6208 6.16801 18.7421C5.99467 18.8634 5.77801 18.9241 5.51801 18.9241H2.78801C2.52801 18.9241 2.30267 18.8461 2.11201 18.6901C1.93867 18.5341 1.84334 18.3434 1.82601 18.1181L0.656006 0.984103H3.30801L3.98401 14.7121C4.01867 15.0761 4.02734 15.4488 4.01001 15.8301C4.01001 16.2114 4.01867 16.6101 4.03601 17.0261H4.63401C4.77267 16.6101 4.90267 16.2028 5.02401 15.8041C5.14534 15.3881 5.26667 14.9981 5.38801 14.6341L9.80801 1.7901C9.96401 1.25277 10.3107 0.984103 10.848 0.984103H13.448C13.6907 0.984103 13.89 1.07077 14.046 1.2441C14.202 1.41744 14.2887 1.62544 14.306 1.8681L15.294 14.7381C15.3113 15.1194 15.3287 15.5094 15.346 15.9081C15.3633 16.2894 15.372 16.6621 15.372 17.0261H15.996C16.1 16.6621 16.2127 16.2721 16.334 15.8561C16.4553 15.4401 16.5767 15.0501 16.698 14.6861L21.17 0.984103H23.874Z" fill="#FF6E83"/>
<path d="M33.7343 6.2361L31.9663 18.9241H29.4703L31.2383 6.2361H33.7343ZM33.7603 0.802104C34.0376 0.802104 34.237 0.880104 34.3583 1.0361C34.4796 1.17477 34.5143 1.36544 34.4623 1.6081L34.2803 3.0901C34.211 3.5581 33.9423 3.7921 33.4743 3.7921H32.3303C31.793 3.7921 31.5503 3.51477 31.6023 2.9601L31.8103 1.5301C31.8623 1.04477 32.131 0.802104 32.6163 0.802104H33.7603Z" fill="#FF6E83"/>
<path d="M47.2537 5.9241C47.8604 5.9241 48.493 5.9501 49.1517 6.0021C49.8104 6.03677 50.443 6.0801 51.0497 6.1321C51.6737 6.1841 52.2284 6.24477 52.7137 6.3141L52.4017 8.0561C51.6044 8.02144 50.7984 7.99544 49.9837 7.9781C49.1864 7.96077 48.3284 7.94344 47.4097 7.9261C46.699 7.9261 46.1184 7.9521 45.6677 8.0041C45.2344 8.03877 44.905 8.14277 44.6797 8.3161C44.4717 8.4721 44.3504 8.74944 44.3157 9.1481C44.2464 9.63344 44.3417 9.98877 44.6017 10.2141C44.879 10.4221 45.2864 10.6474 45.8237 10.8901L49.2817 12.3721C49.9404 12.6321 50.469 12.9181 50.8677 13.2301C51.2837 13.5421 51.5697 13.9148 51.7257 14.3481C51.899 14.7814 51.9424 15.3361 51.8557 16.0121C51.7344 16.9654 51.4224 17.6674 50.9197 18.1181C50.417 18.5688 49.741 18.8634 48.8917 19.0021C48.0597 19.1408 47.0457 19.2101 45.8497 19.2101C45.0697 19.2101 44.4284 19.1928 43.9257 19.1581C43.4404 19.1234 42.9637 19.0801 42.4957 19.0281C42.045 18.9761 41.499 18.9068 40.8577 18.8201L41.1177 17.0781C41.5164 17.1128 41.9497 17.1388 42.4177 17.1561C42.903 17.1561 43.3797 17.1648 43.8477 17.1821C44.333 17.1821 44.7924 17.1821 45.2257 17.1821C46.283 17.1648 47.0977 17.1214 47.6697 17.0521C48.2417 16.9828 48.6577 16.8528 48.9177 16.6621C49.1777 16.4541 49.3424 16.1681 49.4117 15.8041C49.4637 15.4748 49.429 15.2234 49.3077 15.0501C49.1864 14.8594 48.9957 14.7034 48.7357 14.5821C48.493 14.4608 48.181 14.3134 47.7997 14.1401L44.3157 12.6581C43.709 12.3808 43.2064 12.0861 42.8077 11.7741C42.409 11.4448 42.1317 11.0548 41.9757 10.6041C41.837 10.1361 41.8024 9.59011 41.8717 8.9661C41.9757 8.1341 42.2357 7.50144 42.6517 7.0681C43.085 6.61744 43.683 6.3141 44.4457 6.1581C45.2084 5.98477 46.1444 5.90677 47.2537 5.9241Z" fill="#FF6E83"/>
<path d="M69.4776 5.9241C70.5523 5.9241 71.3669 6.21877 71.9216 6.8081C72.4763 7.39744 72.6756 8.27277 72.5196 9.4341L71.1676 18.9241H68.6456L69.9196 10.0841C70.0063 9.3041 69.9543 8.76677 69.7636 8.47211C69.5729 8.17744 69.1916 8.0301 68.6196 8.0301C67.8223 8.0301 67.0076 8.28144 66.1756 8.7841C65.3609 9.28677 64.3816 9.98877 63.2376 10.8901L63.1856 9.2001C64.3643 8.1081 65.4649 7.29344 66.4876 6.7561C67.5103 6.20144 68.5069 5.9241 69.4776 5.9241ZM64.8756 0.724104L64.1736 5.7161C64.0869 6.42677 63.9656 7.1461 63.8096 7.8741C63.6536 8.58477 63.4976 9.1481 63.3416 9.5641L63.5496 9.90211L62.3016 18.9241H59.7796L62.3536 0.724104H64.8756Z" fill="#FF6E83"/>
<path d="M87.5484 0.256104C87.8431 0.256104 88.2157 0.264771 88.6664 0.282105C89.1171 0.299438 89.5764 0.325438 90.0444 0.360104C90.5124 0.377437 90.9111 0.412104 91.2404 0.464104L90.8504 2.2581H88.3544C87.5571 2.2581 86.9677 2.40544 86.5864 2.7001C86.2224 2.97744 85.9711 3.5321 85.8324 4.3641L83.5444 20.4061C83.3884 21.5848 82.9811 22.4948 82.3224 23.1361C81.6637 23.7948 80.7104 24.1241 79.4624 24.1241C79.0637 24.1241 78.6044 24.1068 78.0844 24.0721C77.5644 24.0548 76.9837 24.0028 76.3424 23.9161L76.7324 22.1221H78.6564C79.4364 22.1221 80.0084 21.9748 80.3724 21.6801C80.7537 21.4028 80.9964 20.8481 81.1004 20.0161L83.3624 3.9741C83.5357 2.79544 83.9604 1.88544 84.6364 1.2441C85.3124 0.585437 86.2831 0.256104 87.5484 0.256104ZM89.5244 6.2361L89.2384 8.1081H80.5284L80.7624 6.3661L83.1544 6.2361H89.5244Z" fill="#FF6E83"/>
<path d="M99.7128 6.2361L98.4388 15.0761C98.3348 15.8041 98.3954 16.3241 98.6208 16.6361C98.8461 16.9481 99.2621 17.1041 99.8688 17.1041C100.649 17.1041 101.403 16.8614 102.131 16.3761C102.876 15.8908 103.786 15.1628 104.861 14.1921L105.147 15.8301C104.02 16.9741 102.954 17.8321 101.949 18.4041C100.961 18.9761 99.9554 19.2621 98.9328 19.2621C97.7541 19.2621 96.9048 18.9501 96.3848 18.3261C95.8648 17.6848 95.6914 16.8094 95.8648 15.7001L97.1908 6.2361H99.7128ZM108.319 6.2361L106.525 18.9241H104.575L104.783 15.4401L104.601 15.0761L105.797 6.2361H108.319Z" fill="#FF6E83"/>
<path d="M120.78 0.724104L118.7 15.3881C118.614 15.9428 118.674 16.3414 118.882 16.5841C119.108 16.8268 119.515 16.9481 120.104 16.9481H121.352L121.456 18.8201C121.283 18.9068 121.04 18.9674 120.728 19.0021C120.416 19.0541 120.104 19.0888 119.792 19.1061C119.48 19.1408 119.22 19.1581 119.012 19.1581C118.007 19.1581 117.236 18.8721 116.698 18.3001C116.178 17.7108 115.988 16.8961 116.126 15.8561L118.258 0.724104H120.78Z" fill="#FF6E83"/>
</svg>
