<svg width="84" height="17" viewBox="0 0 84 17" fill="none" xmlns="http://www.w3.org/2000/svg">
<path d="M16.074 0.504L11.934 12.438C11.886 12.594 11.802 12.714 11.682 12.798C11.562 12.882 11.412 12.924 11.232 12.924H9.324C9.144 12.924 8.994 12.87 8.874 12.762C8.754 12.654 8.688 12.516 8.676 12.348L8.1 3.258C8.1 3.006 8.088 2.766 8.064 2.538C8.04 2.31 8.022 2.076 8.01 1.836H7.65C7.566 2.076 7.482 2.328 7.398 2.592C7.326 2.844 7.248 3.084 7.164 3.312L4.086 12.42C4.038 12.588 3.948 12.714 3.816 12.798C3.696 12.882 3.546 12.924 3.366 12.924H1.476C1.296 12.924 1.14 12.87 1.008 12.762C0.888 12.654 0.822 12.522 0.81 12.366L0 0.504H1.836L2.304 10.008C2.328 10.26 2.334 10.518 2.322 10.782C2.322 11.046 2.328 11.322 2.34 11.61H2.754C2.85 11.322 2.94 11.04 3.024 10.764C3.108 10.476 3.192 10.206 3.276 9.954L6.336 1.062C6.444 0.69 6.684 0.504 7.056 0.504H8.856C9.024 0.504 9.162 0.564 9.27 0.684001C9.378 0.804001 9.438 0.948001 9.45 1.116L10.134 10.026C10.146 10.29 10.158 10.56 10.17 10.836C10.182 11.1 10.188 11.358 10.188 11.61H10.62C10.692 11.358 10.77 11.088 10.854 10.8C10.938 10.512 11.022 10.242 11.106 9.99L14.202 0.504H16.074Z" fill="#FF6E83"/>
<path d="M22.9004 4.14L21.6764 12.924H19.9484L21.1724 4.14H22.9004ZM22.9184 0.378C23.1104 0.378 23.2484 0.432001 23.3324 0.540001C23.4164 0.636001 23.4404 0.768001 23.4044 0.936001L23.2784 1.962C23.2304 2.286 23.0444 2.448 22.7204 2.448H21.9284C21.5564 2.448 21.3884 2.256 21.4244 1.872L21.5684 0.882C21.6044 0.546 21.7904 0.378 22.1264 0.378H22.9184Z" fill="#FF6E83"/>
<path d="M32.2599 3.924C32.6799 3.924 33.1179 3.942 33.5739 3.978C34.0299 4.002 34.4679 4.032 34.8879 4.068C35.3199 4.104 35.7039 4.146 36.0399 4.194L35.8239 5.4C35.2719 5.376 34.7139 5.358 34.1499 5.346C33.5979 5.334 33.0039 5.322 32.3679 5.31C31.8759 5.31 31.4739 5.328 31.1619 5.364C30.8619 5.388 30.6339 5.46 30.4779 5.58C30.3339 5.688 30.2499 5.88 30.2259 6.156C30.1779 6.492 30.2439 6.738 30.4239 6.894C30.6159 7.038 30.8979 7.194 31.2699 7.362L33.6639 8.388C34.1199 8.568 34.4859 8.766 34.7619 8.982C35.0499 9.198 35.2479 9.456 35.3559 9.756C35.4759 10.056 35.5059 10.44 35.4459 10.908C35.3619 11.568 35.1459 12.054 34.7979 12.366C34.4499 12.678 33.9819 12.882 33.3939 12.978C32.8179 13.074 32.1159 13.122 31.2879 13.122C30.7479 13.122 30.3039 13.11 29.9559 13.086C29.6199 13.062 29.2899 13.032 28.9659 12.996C28.6539 12.96 28.2759 12.912 27.8319 12.852L28.0119 11.646C28.2879 11.67 28.5879 11.688 28.9119 11.7C29.2479 11.7 29.5779 11.706 29.9019 11.718C30.2379 11.718 30.5559 11.718 30.8559 11.718C31.5879 11.706 32.1519 11.676 32.5479 11.628C32.9439 11.58 33.2319 11.49 33.4119 11.358C33.5919 11.214 33.7059 11.016 33.7539 10.764C33.7899 10.536 33.7659 10.362 33.6819 10.242C33.5979 10.11 33.4659 10.002 33.2859 9.918C33.1179 9.834 32.9019 9.732 32.6379 9.612L30.2259 8.586C29.8059 8.394 29.4579 8.19 29.1819 7.974C28.9059 7.746 28.7139 7.476 28.6059 7.164C28.5099 6.84 28.4859 6.462 28.5339 6.03C28.6059 5.454 28.7859 5.016 29.0739 4.716C29.3739 4.404 29.7879 4.194 30.3159 4.086C30.8439 3.966 31.4919 3.912 32.2599 3.924Z" fill="#FF6E83"/>
<path d="M47.6457 3.924C48.3897 3.924 48.9537 4.128 49.3377 4.536C49.7217 4.944 49.8597 5.55 49.7517 6.354L48.8157 12.924H47.0697L47.9517 6.804C48.0117 6.264 47.9757 5.892 47.8437 5.688C47.7117 5.484 47.4477 5.382 47.0517 5.382C46.4997 5.382 45.9357 5.556 45.3597 5.904C44.7957 6.252 44.1177 6.738 43.3257 7.362L43.2897 6.192C44.1057 5.436 44.8677 4.872 45.5757 4.5C46.2837 4.116 46.9737 3.924 47.6457 3.924ZM44.4597 0.324L43.9737 3.78C43.9137 4.272 43.8297 4.77 43.7217 5.274C43.6137 5.766 43.5057 6.156 43.3977 6.444L43.5417 6.678L42.6777 12.924H40.9317L42.7137 0.324H44.4597Z" fill="#FF6E83"/>
<path d="M60.1563 0C60.3603 0 60.6183 0.00600028 60.9303 0.0180008C61.2423 0.0300007 61.5603 0.0480005 61.8843 0.0720001C62.2083 0.084 62.4843 0.108 62.7123 0.144L62.4423 1.386H60.7143C60.1623 1.386 59.7543 1.488 59.4903 1.692C59.2383 1.884 59.0643 2.268 58.9683 2.844L57.3843 13.95C57.2763 14.766 56.9943 15.396 56.5383 15.84C56.0823 16.296 55.4223 16.524 54.5583 16.524C54.2823 16.524 53.9643 16.512 53.6043 16.488C53.2443 16.476 52.8423 16.44 52.3983 16.38L52.6683 15.138H54.0003C54.5403 15.138 54.9363 15.036 55.1883 14.832C55.4523 14.64 55.6203 14.256 55.6923 13.68L57.2583 2.574C57.3783 1.758 57.6723 1.128 58.1403 0.684001C58.6083 0.228 59.2803 0 60.1563 0ZM61.5243 4.14L61.3263 5.436H55.2963L55.4583 4.23L57.1143 4.14H61.5243Z" fill="#FF6E83"/>
<path d="M68.5777 4.14L67.6957 10.26C67.6237 10.764 67.6657 11.124 67.8217 11.34C67.9777 11.556 68.2657 11.664 68.6857 11.664C69.2257 11.664 69.7477 11.496 70.2517 11.16C70.7677 10.824 71.3977 10.32 72.1417 9.648L72.3397 10.782C71.5597 11.574 70.8217 12.168 70.1257 12.564C69.4417 12.96 68.7458 13.158 68.0378 13.158C67.2217 13.158 66.6338 12.942 66.2738 12.51C65.9137 12.066 65.7937 11.46 65.9137 10.692L66.8317 4.14H68.5777ZM74.5357 4.14L73.2937 12.924H71.9437L72.0877 10.512L71.9617 10.26L72.7897 4.14H74.5357Z" fill="#FF6E83"/>
<path d="M83.163 0.324L81.723 10.476C81.663 10.86 81.705 11.136 81.849 11.304C82.005 11.472 82.287 11.556 82.695 11.556H83.559L83.631 12.852C83.5109 12.912 83.343 12.954 83.127 12.978C82.9109 13.014 82.695 13.038 82.479 13.05C82.2629 13.074 82.0829 13.086 81.9389 13.086C81.243 13.086 80.709 12.888 80.337 12.492C79.977 12.084 79.845 11.52 79.941 10.8L81.417 0.324H83.163Z" fill="#FF6E83"/>
</svg>
