<svg width="79" height="77" viewBox="0 0 79 77" fill="none" xmlns="http://www.w3.org/2000/svg">
<g clip-path="url(#clip0_159_3014)">
<path d="M60.0737 76.1451H6.1486C4.33854 76.1451 2.87109 74.6943 2.87109 72.9048V6.57473C2.87109 4.78524 4.33854 3.33447 6.1486 3.33447H60.0737C61.8838 3.33447 63.3512 4.78524 63.3512 6.57473V72.9048C63.3512 74.6943 61.8838 76.1451 60.0737 76.1451V76.1451Z" fill="#DCE2E2"/>
<path d="M51.1313 22.2652H12.3014C11.17 22.2652 10.2529 21.3585 10.2529 20.24C10.2529 19.1215 11.17 18.2148 12.3014 18.2148H51.1313C52.2627 18.2148 53.1798 19.1215 53.1798 20.24C53.1798 21.3585 52.2628 22.2652 51.1313 22.2652V22.2652ZM53.1798 29.4312C53.1798 28.3128 52.2627 27.4061 51.1313 27.4061H12.3014C11.17 27.4061 10.2529 28.3128 10.2529 29.4312C10.2529 30.5497 11.17 31.4564 12.3014 31.4564H51.1313C52.2628 31.4564 53.1798 30.5497 53.1798 29.4312V29.4312ZM26.958 38.6226C26.958 37.5041 26.0409 36.5975 24.9096 36.5975H12.3014C11.17 36.5975 10.2529 37.5041 10.2529 38.6226C10.2529 39.7411 11.17 40.6478 12.3014 40.6478H24.9096C26.0409 40.6478 26.958 39.7411 26.958 38.6226V38.6226ZM53.1798 47.8139C53.1798 46.6954 52.2627 45.7887 51.1313 45.7887H12.3014C11.17 45.7887 10.2529 46.6954 10.2529 47.8139C10.2529 48.9324 11.17 49.839 12.3014 49.839H51.1313C52.2628 49.839 53.1798 48.9324 53.1798 47.8139V47.8139ZM26.958 65.6202C26.958 64.5017 26.0409 63.595 24.9096 63.595H12.3014C11.17 63.595 10.2529 64.5017 10.2529 65.6202C10.2529 66.7387 11.17 67.6453 12.3014 67.6453H24.9096C26.0409 67.6453 26.958 66.7387 26.958 65.6202Z" fill="#96A9B2"/>
<path d="M71.9768 21.0795C69.0029 18.1395 65.6102 16.7269 64.3991 17.9245L56.2085 26.022L66.9777 36.6688L75.1683 28.5713C76.3796 27.3737 74.9507 24.0196 71.9768 21.0795V21.0795Z" fill="#FF6E83"/>
<path d="M66.785 26.2124C63.392 22.858 59.5212 21.2464 58.1393 22.6127L49.752 30.9048L62.0388 43.052L70.4262 34.7599C71.808 33.3936 70.1778 29.5667 66.785 26.2124V26.2124Z" fill="#BFBCAF"/>
<path d="M34.4408 63.697L27.0533 66.8736C26.9255 66.9286 26.788 66.9581 26.6486 66.9606C26.5092 66.963 26.3707 66.9383 26.241 66.8878C26.1113 66.8373 25.9929 66.762 25.8926 66.6663C25.7923 66.5705 25.712 66.4562 25.6564 66.3298C25.5987 66.1977 25.5688 66.0552 25.5688 65.9112C25.5688 65.7672 25.5987 65.6248 25.6564 65.4926L28.8696 58.1891C29.8022 56.0693 32.2966 55.0983 34.4408 56.0203C36.585 56.9422 37.5671 59.4083 36.6346 61.5281C36.1909 62.5365 35.3853 63.2886 34.4408 63.697Z" fill="#2B2622"/>
<path d="M65.5798 39.5253C65.5875 39.5142 65.5956 39.5033 65.6029 39.492C66.6685 37.9824 65.0381 34.3482 61.7967 31.1437C58.5553 27.9391 54.8795 26.3272 53.3526 27.3806C53.341 27.388 53.33 27.3958 53.3187 27.4036C53.3049 27.4136 53.2908 27.4231 53.2775 27.4336C53.2398 27.4622 53.2031 27.4925 53.1685 27.5266L33.6765 46.7971C33.6765 46.7971 28.1622 60.2879 30.2399 62.3418C32.3175 64.3958 45.9633 58.9444 45.9633 58.9444L65.4554 39.6738C65.4898 39.6398 65.5206 39.6035 65.5495 39.5661C65.5599 39.5531 65.5696 39.539 65.5798 39.5253V39.5253Z" fill="#FFD469"/>
<path d="M33.6766 46.7979L33.2437 49.4649C33.1799 49.8572 33.5236 50.1959 33.9201 50.1319L35.8534 49.8197C36.2352 49.758 36.5725 50.071 36.5345 50.4515L36.3192 52.609C36.3104 52.6974 36.3222 52.7867 36.3536 52.8699C36.3851 52.9531 36.4353 53.0281 36.5006 53.0892C36.5659 53.1503 36.6445 53.1957 36.7303 53.2222C36.8161 53.2486 36.9069 53.2552 36.9957 53.2416L38.9496 52.942C39.3491 52.8808 39.6908 53.2265 39.6196 53.62L39.2854 55.4681C39.2165 55.8487 39.5351 56.1888 39.9243 56.1499L42.1234 55.9306C42.2104 55.9219 42.2982 55.9325 42.3805 55.9615C42.4628 55.9905 42.5376 56.0373 42.5993 56.0984C42.6611 56.1596 42.7083 56.2336 42.7376 56.315C42.7668 56.3964 42.7774 56.4832 42.7685 56.5692L42.5418 58.7625C42.5028 59.1399 42.8334 59.4529 43.2131 59.3978L46.0115 58.9925L30.2402 65.5167C31.4984 64.2728 28.2406 61.0521 26.9824 62.2959L33.6766 46.7979V46.7979Z" fill="#E5AA6E"/>
<path d="M37.7236 47.502C37.5783 47.502 37.4364 47.4593 37.3156 47.3795C37.1949 47.2997 37.1008 47.1863 37.0452 47.0536C36.9896 46.921 36.975 46.775 37.0033 46.6341C37.0316 46.4933 37.1015 46.3639 37.2042 46.2623L53.468 30.1831C53.6068 30.0518 53.792 29.9794 53.9841 29.9815C54.1762 29.9836 54.3598 30.0599 54.4956 30.1942C54.6315 30.3285 54.7087 30.51 54.7108 30.6999C54.7129 30.8898 54.6397 31.0729 54.5068 31.2101L38.2428 47.2893C38.1747 47.3569 38.0938 47.4104 38.0047 47.4469C37.9156 47.4834 37.82 47.5022 37.7236 47.502V47.502ZM42.3977 51.3969L58.6617 35.3177C58.7945 35.1806 58.8677 34.9974 58.8656 34.8075C58.8635 34.6176 58.7863 34.4361 58.6505 34.3018C58.5147 34.1675 58.331 34.0912 58.139 34.0891C57.9469 34.0871 57.7616 34.1594 57.6229 34.2908L41.3589 50.37C41.226 50.5071 41.1528 50.6903 41.1549 50.8802C41.157 51.0701 41.2342 51.2516 41.3701 51.3859C41.5059 51.5202 41.6895 51.5965 41.8816 51.5986C42.0736 51.6007 42.2589 51.5283 42.3977 51.3969ZM46.5523 55.5044L62.8164 39.4252C62.9492 39.2881 63.0224 39.1049 63.0203 38.915C63.0182 38.7251 62.941 38.5436 62.8052 38.4093C62.6693 38.275 62.4857 38.1987 62.2937 38.1966C62.1016 38.1945 61.9163 38.2669 61.7776 38.3982L45.5136 54.4774C45.3807 54.6146 45.3075 54.7978 45.3096 54.9877C45.3117 55.1776 45.3889 55.3591 45.5247 55.4934C45.6606 55.6277 45.8442 55.704 46.0363 55.7061C46.2283 55.7081 46.4136 55.6358 46.5523 55.5044Z" fill="#FFB636"/>
<path d="M44.6881 8.29815H20.9822C19.7607 8.29815 18.7705 7.31917 18.7705 6.11157V2.74395C18.7705 1.53635 19.7607 0.557373 20.9822 0.557373H44.6881C45.9096 0.557373 46.8998 1.53635 46.8998 2.74395V6.11157C46.8998 7.31917 45.9096 8.29815 44.6881 8.29815Z" fill="#B9C5C6"/>
</g>
<defs>
<clipPath id="clip0_159_3014">
<rect width="77.689" height="76.8062" fill="white" transform="translate(0.441406)"/>
</clipPath>
</defs>
</svg>
