<svg width="23" height="23" viewBox="0 0 23 23" fill="none" xmlns="http://www.w3.org/2000/svg">
<path d="M13.3158 1.81579C13.3158 1.33421 13.1245 0.872359 12.784 0.531832C12.4434 0.191306 11.9816 0 11.5 0C11.0184 0 10.5566 0.191306 10.216 0.531832C9.87552 0.872359 9.68421 1.33421 9.68421 1.81579V9.68421H1.81579C1.33421 9.68421 0.872359 9.87552 0.531832 10.216C0.191306 10.5566 0 11.0184 0 11.5C0 11.9816 0.191306 12.4434 0.531832 12.784C0.872359 13.1245 1.33421 13.3158 1.81579 13.3158H9.68421V21.1842C9.68421 21.6658 9.87552 22.1276 10.216 22.4682C10.5566 22.8087 11.0184 23 11.5 23C11.9816 23 12.4434 22.8087 12.784 22.4682C13.1245 22.1276 13.3158 21.6658 13.3158 21.1842V13.3158H21.1842C21.6658 13.3158 22.1276 13.1245 22.4682 12.784C22.8087 12.4434 23 11.9816 23 11.5C23 11.0184 22.8087 10.5566 22.4682 10.216C22.1276 9.87552 21.6658 9.68421 21.1842 9.68421H13.3158V1.81579Z" fill="black"/>
</svg>
