<svg width="45" height="45" viewBox="0 0 45 45" fill="none" xmlns="http://www.w3.org/2000/svg">
<circle cx="22.5" cy="22.5" r="22.5" fill="url(#paint0_linear_97_1125)"/>
<path d="M34.8382 30.2818L23.9427 36.3291C23.42 36.6192 22.5647 36.6192 22.0421 36.3291L11.1465 30.2818C10.8852 30.1368 10.7545 29.9456 10.7545 29.7544H10.6388V16.2454H35.2303V29.7544C35.2303 29.9456 35.0996 30.1368 34.8382 30.2818Z" fill="#FF473E"/>
<path d="M35.2301 16.2454V29.7544C35.2301 29.9457 35.0995 30.1369 34.8381 30.2819L23.9426 36.3292C23.6708 36.48 23.3091 36.5519 22.951 36.5457C22.9595 29.7811 23.1517 23.008 22.9415 16.2454H35.2301V16.2454Z" fill="#FF6E83"/>
<path d="M22.0422 22.8202L11.1467 16.7729C10.624 16.4828 10.624 16.0081 11.1467 15.7179L22.0422 9.67071C22.5649 9.3806 23.4202 9.3806 23.9428 9.67071L34.8384 15.718C35.3611 16.0081 35.3611 16.4828 34.8384 16.7729L23.9429 22.8202C23.4202 23.1103 22.5649 23.1103 22.0422 22.8202Z" fill="#FFA9BA"/>
<path d="M30.3878 13.0537C30.3873 13.1176 30.3695 13.1802 30.3364 13.2348C30.3032 13.2895 30.256 13.3343 30.1996 13.3643L17.1449 20.323C17.1269 20.3326 17.1082 20.3407 17.0888 20.347L17.0447 20.3717V33.3583C17.0447 33.4202 17.0285 33.481 16.9978 33.5347C16.9671 33.5885 16.9229 33.6333 16.8696 33.6647C16.8162 33.6961 16.7556 33.713 16.6937 33.7138C16.6319 33.7146 16.5708 33.6992 16.5167 33.6691L14.3292 32.455C14.2738 32.4243 14.2276 32.3792 14.1954 32.3245C14.1632 32.2699 14.1462 32.2076 14.1462 32.1442V19.5067C14.1463 19.2899 14.195 19.0758 14.2889 18.8803C14.3827 18.6848 14.5192 18.5129 14.6884 18.3772L14.7013 18.3671C14.7299 18.3447 14.7571 18.3249 14.785 18.3061C14.8266 18.2779 14.8695 18.2518 14.9137 18.228L27.587 11.4725C27.6393 11.4446 27.6978 11.4302 27.7572 11.4308C27.8165 11.4313 27.8748 11.4466 27.9267 11.4754L30.2049 12.7399C30.2608 12.7709 30.3073 12.8164 30.3395 12.8716C30.3716 12.9269 30.3884 12.9897 30.3878 13.0537ZM31.5917 18.5514C31.5089 18.4571 31.4143 18.374 31.3101 18.3041C31.3033 18.2994 31.2965 18.2948 31.2884 18.2895C31.2546 18.2675 31.2198 18.2469 31.1842 18.2278L18.511 11.4725C18.4587 11.4445 18.4001 11.4302 18.3408 11.4307C18.2814 11.4312 18.2232 11.4466 18.1713 11.4754L15.8931 12.7398C15.8371 12.7708 15.7906 12.8163 15.7584 12.8716C15.7262 12.9268 15.7095 12.9897 15.71 13.0536C15.7106 13.1176 15.7284 13.1802 15.7615 13.2349C15.7946 13.2896 15.8419 13.3343 15.8984 13.3643L28.953 20.323C28.9712 20.3327 28.99 20.3407 29.0092 20.3471L29.0533 20.3717V33.3584C29.0533 33.4202 29.0694 33.4811 29.1001 33.5348C29.1309 33.5885 29.1751 33.6333 29.2284 33.6647C29.2817 33.6961 29.3423 33.713 29.4042 33.7138C29.4661 33.7146 29.5271 33.6992 29.5812 33.6692L31.7687 32.4551C31.8242 32.4243 31.8704 32.3792 31.9026 32.3246C31.9347 32.2699 31.9517 32.2077 31.9517 32.1442V19.5067C31.9516 19.1552 31.8236 18.8157 31.5917 18.5514Z" fill="#FFD4DE"/>
<path d="M27.3532 16.4965C27.3532 17.3885 26.2591 18.0359 24.7518 18.0359C24.137 18.0359 23.5912 17.9281 23.1602 17.7401C23.1051 17.7162 23.0455 17.7047 22.9855 17.7065C22.9255 17.7083 22.8667 17.7233 22.8132 17.7504C22.3639 17.9772 21.7682 18.1093 21.0879 18.1093C19.5805 18.1093 18.4865 17.4619 18.4865 16.5699C18.4865 16.1208 18.7638 15.7338 19.2316 15.4601C19.4159 15.3523 19.4933 15.1222 19.402 14.9292C19.0686 14.2241 19.0793 13.5625 19.4883 13.1536C19.7001 12.9418 19.9901 12.8298 20.3272 12.8298C20.564 12.8298 20.8211 12.8858 21.0853 12.9908C21.1868 13.0313 21.3002 13.0302 21.4009 12.9879C21.5016 12.9455 21.5816 12.8652 21.6237 12.7643C21.8952 12.1162 22.3444 11.717 22.8831 11.717C23.4126 11.717 23.8558 12.1026 24.1287 12.7313C24.2192 12.94 24.4583 13.0396 24.6685 12.9528C24.9446 12.8389 25.2136 12.778 25.4605 12.778C25.8863 12.778 26.1517 12.954 26.2994 13.1017C26.7014 13.5037 26.7187 14.1498 26.4025 14.8414C26.3138 15.0354 26.3925 15.265 26.5782 15.3699C27.0639 15.6444 27.3532 16.0381 27.3532 16.4965Z" fill="#FF6E83"/>
<defs>
<linearGradient id="paint0_linear_97_1125" x1="23" y1="-15.5" x2="23" y2="31.5" gradientUnits="userSpaceOnUse">
<stop stop-color="#FFF9D9"/>
<stop offset="1" stop-color="#FFE769"/>
</linearGradient>
</defs>
</svg>
