<?xml version="1.0" standalone="no"?>
<!DOCTYPE svg PUBLIC "-//W3C//DTD SVG 20010904//EN"
 "http://www.w3.org/TR/2001/REC-SVG-20010904/DTD/svg10.dtd">
<svg version="1.0" xmlns="http://www.w3.org/2000/svg"
 width="704.000000pt" height="704.000000pt" viewBox="0 0 704.000000 704.000000"
 preserveAspectRatio="xMidYMid meet">
<metadata>
Created by potrace 1.14, written by Peter Selinger 2001-2017
</metadata>
<g transform="translate(0.000000,704.000000) scale(0.100000,-0.100000)"
fill="#000000" stroke="none">
<path d="M275 6030 c-3 -5 -3 -53 0 -107 3 -54 8 -141 10 -193 3 -52 7 -133
10 -180 11 -175 18 -328 19 -412 0 -49 3 -88 6 -88 3 0 5 -24 6 -53 1 -45 6
-151 19 -382 2 -33 6 -112 9 -175 4 -63 8 -153 11 -200 7 -130 15 -266 20
-365 3 -49 7 -133 10 -185 3 -52 8 -138 10 -190 3 -52 7 -140 10 -195 3 -55 8
-138 10 -185 2 -47 7 -125 10 -175 3 -49 8 -137 10 -195 2 -58 7 -139 10 -180
4 -69 11 -198 20 -390 2 -41 6 -115 9 -165 3 -49 8 -135 11 -190 3 -55 8 -143
11 -195 3 -52 7 -133 9 -180 11 -233 15 -262 40 -315 32 -69 100 -128 176
-154 58 -19 85 -20 574 -21 501 0 515 0 580 21 75 25 142 78 180 144 20 34
104 268 120 335 2 8 4 16 5 18 2 1 3 5 4 10 1 4 17 52 35 107 18 55 34 105 36
110 1 6 5 17 8 25 7 19 210 641 213 655 1 6 19 60 39 120 21 61 38 115 40 120
2 11 12 39 26 73 5 13 9 32 9 42 0 11 4 20 8 20 5 0 9 6 10 13 1 20 8 45 50
172 22 66 88 269 147 450 59 182 131 402 160 490 81 246 167 509 169 520 2 6
6 18 10 27 4 9 9 22 10 30 1 7 33 105 70 218 55 169 139 456 151 520 2 8 4 15
5 15 1 0 3 7 5 15 2 8 12 43 22 77 l17 62 76 0 75 -1 1 -61 c1 -111 14 -370
18 -374 2 -2 0 -19 -4 -38 -4 -19 -5 -36 -3 -39 3 -3 7 -58 9 -123 1 -65 5
-163 8 -218 16 -302 19 -355 21 -410 1 -33 6 -118 9 -190 9 -163 14 -248 21
-405 3 -69 8 -163 11 -210 2 -47 6 -130 9 -185 6 -132 13 -267 20 -390 3 -55
8 -147 10 -205 3 -58 7 -143 9 -190 3 -47 8 -139 11 -205 4 -66 8 -154 10
-195 3 -41 7 -133 11 -205 3 -71 7 -161 9 -200 2 -38 6 -126 10 -195 3 -69 13
-149 22 -177 24 -80 104 -153 198 -181 62 -18 1054 -16 1116 2 67 21 103 41
143 82 39 40 91 141 101 194 0 3 34 104 75 225 41 121 74 222 75 225 0 3 4 11
8 18 5 6 6 12 3 12 -3 0 6 30 21 68 14 37 26 72 27 77 1 6 5 16 9 23 5 6 6 12
2 12 -3 0 -1 9 5 21 6 11 13 28 15 37 2 9 17 58 35 107 17 50 33 97 35 105 2
8 45 139 95 290 51 151 93 280 94 285 2 6 6 17 9 25 7 16 137 408 141 425 2 6
6 17 9 25 3 8 27 80 52 160 26 80 49 152 52 160 4 8 7 17 8 20 1 3 4 12 8 20
3 8 40 121 82 250 42 129 80 244 85 255 5 11 21 60 36 110 15 49 30 96 34 105
10 19 563 1689 567 1711 2 15 -37 17 -462 17 l-465 0 -44 -142 c-25 -77 -63
-202 -86 -276 -23 -74 -53 -171 -67 -215 -13 -44 -39 -129 -58 -190 -18 -60
-38 -122 -44 -137 -6 -16 -8 -28 -5 -28 2 0 0 -9 -6 -21 -6 -11 -13 -28 -15
-37 -3 -17 -27 -91 -106 -342 -22 -69 -42 -134 -45 -145 -3 -11 -6 -24 -8 -30
-1 -5 -13 -44 -26 -85 -14 -41 -25 -78 -26 -82 -1 -5 -2 -9 -4 -10 -1 -2 -3
-10 -5 -18 -2 -8 -15 -51 -29 -95 -13 -44 -59 -192 -101 -330 -42 -137 -79
-257 -81 -265 -3 -8 -4 -15 -2 -16 2 0 -3 -8 -11 -17 -7 -10 -11 -17 -7 -17 3
0 0 -16 -8 -35 -8 -19 -12 -35 -9 -35 3 0 1 -6 -5 -12 -5 -7 -13 -29 -18 -48
-10 -43 -9 -42 -17 -60 -3 -8 -10 -31 -15 -50 -6 -19 -33 -109 -61 -200 -28
-91 -67 -217 -87 -280 -19 -63 -39 -126 -44 -140 -26 -71 -126 -412 -180 -613
-62 -230 -67 -251 -76 -298 -3 -14 -12 -55 -22 -90 l-17 -64 -78 0 c-43 0 -81
3 -84 8 -3 5 -7 100 -9 210 -4 243 -13 530 -19 612 -2 33 -7 98 -9 145 -3 47
-8 121 -11 165 -3 44 -8 123 -11 175 -7 123 -12 208 -18 295 -5 71 -11 160
-21 340 -3 55 -8 132 -10 170 -5 75 -12 177 -20 315 -3 47 -8 121 -10 165 -3
44 -7 114 -10 155 -2 41 -7 107 -9 145 -3 39 -8 111 -10 160 -3 50 -8 128 -11
175 -4 47 -8 114 -10 150 -6 116 -15 263 -20 335 -3 39 -8 117 -11 175 -10
162 -12 195 -14 195 0 0 -3 23 -5 52 -4 65 -42 149 -88 197 -19 20 -38 36 -42
36 -3 0 -17 8 -32 17 -14 10 -33 19 -42 22 -9 2 -234 5 -501 6 -442 2 -489 1
-536 -15 -77 -27 -116 -55 -171 -125 -18 -22 -145 -375 -168 -465 -2 -8 -4
-15 -5 -15 -1 0 -3 -7 -5 -15 -3 -19 -214 -657 -225 -685 -5 -11 -79 -234
-165 -495 -85 -261 -157 -479 -159 -485 -2 -5 -5 -14 -6 -20 -2 -5 -12 -35
-22 -65 -11 -30 -21 -59 -22 -65 -2 -5 -6 -17 -9 -25 -3 -8 -62 -188 -132
-400 -70 -212 -129 -392 -132 -400 -3 -8 -7 -19 -9 -25 -1 -5 -21 -64 -43
-130 -23 -66 -43 -128 -46 -138 -2 -10 -15 -50 -29 -90 -14 -40 -30 -92 -37
-117 -7 -25 -14 -49 -15 -55 -2 -5 -20 -66 -39 -135 -20 -69 -39 -133 -41
-143 -7 -28 -12 -47 -39 -142 -14 -49 -27 -100 -29 -112 -10 -51 -20 -57 -100
-58 -63 -1 -76 1 -77 14 0 9 -2 225 -4 481 -3 256 -6 519 -9 585 -3 66 -7 212
-11 325 -3 113 -8 275 -10 360 -3 85 -7 232 -10 325 -2 94 -7 249 -10 345 -3
96 -7 252 -10 345 -3 94 -7 244 -10 335 -5 164 -11 367 -20 675 -3 88 -7 248
-11 355 -3 107 -6 213 -7 235 l-2 40 -457 2 c-252 0 -460 -3 -463 -7z"/>
</g>
</svg>
