<svg width="45" height="45" viewBox="0 0 45 45" fill="none" xmlns="http://www.w3.org/2000/svg">
<circle cx="22.5" cy="22.5" r="22.5" fill="url(#paint0_linear_97_1128)"/>
<g clip-path="url(#clip0_97_1128)">
<path d="M33.8864 19.46H11.6528C11.2653 19.46 10.9512 19.7741 10.9512 20.1616V22.8367C10.9512 23.2243 11.2653 23.5384 11.6528 23.5384H33.8864C34.274 23.5384 34.5881 23.2243 34.5881 22.8367V20.1616C34.5881 19.7741 34.274 19.46 33.8864 19.46Z" fill="#FF473E"/>
<path d="M24.7901 23.5385V16.7535H23.7782L20.5284 14.5803C20.5063 14.5692 20.4818 14.5635 20.457 14.5635C20.4323 14.5635 20.4078 14.5692 20.3856 14.5803L16.3874 16.5744C16.3018 16.6171 16.245 16.6813 16.2137 16.7536H15.7107V23.5386H11.6781V33.3204H33.861V23.5386H24.7901V23.5385Z" fill="#FFA9BA"/>
<path d="M19.2417 12.8411L19.7249 6.96226C19.7356 6.83001 19.7958 6.70664 19.8933 6.6167C19.9909 6.52675 20.1187 6.47681 20.2514 6.47681C20.3841 6.47681 20.5119 6.52675 20.6094 6.6167C20.707 6.70664 20.7671 6.83001 20.7778 6.96226L21.261 12.8411C21.3068 13.3987 20.8919 13.8878 20.3343 13.9337C19.7767 13.9795 19.2875 13.5646 19.2417 13.007C19.2376 12.9518 19.2376 12.8963 19.2417 12.8411ZM34.8792 35.33H10.6597C10.2604 35.33 10.0134 34.8948 10.218 34.552L11.3447 32.6636C11.3903 32.5872 11.455 32.5238 11.5324 32.4799C11.6099 32.4359 11.6974 32.4128 11.7864 32.4128H33.7525C33.8416 32.4128 33.9291 32.4359 34.0065 32.4799C34.0839 32.5238 34.1486 32.5871 34.1943 32.6636L35.3209 34.552C35.5256 34.8948 35.2785 35.33 34.8792 35.33Z" fill="#899296"/>
<path d="M16.2606 32.4096L24.2381 32.3992L24.2405 34.3074L16.2631 34.3178L16.2606 32.4096Z" fill="#C8CACB"/>
<path d="M25.2837 35.3299H15.2169V34.3285C15.2169 34.2183 15.2607 34.1127 15.3386 34.0348C15.4165 33.9568 15.5221 33.9131 15.6323 33.9131H24.8683C24.9785 33.9131 25.0841 33.9568 25.162 34.0348C25.2399 34.1127 25.2837 34.2183 25.2837 34.3285V35.3299Z" fill="#EBECED"/>
<path d="M34.3124 11.0124C34.153 11.2458 33.9499 11.4461 33.7142 11.6021L30.93 13.8732C30.8815 13.9128 30.8209 13.9344 30.7584 13.9345C30.6959 13.9346 30.6352 13.9132 30.5866 13.8739L27.7849 11.6061C27.5514 11.4542 27.3395 11.2556 27.168 11.001C26.5992 10.157 26.6887 9.01352 27.3889 8.27488C28.2382 7.37897 29.653 7.36581 30.5189 8.23421L30.5221 8.23738C30.6458 8.36211 30.8406 8.36234 30.9648 8.23801L30.9673 8.23548C31.8641 7.34135 33.3434 7.38872 34.1792 8.37682C34.8078 9.11997 34.8621 10.2089 34.3124 11.0124ZM14.7317 11.2199C14.2453 10.6448 13.3843 10.6173 12.8625 11.1376L12.861 11.139C12.8442 11.1562 12.8242 11.1699 12.802 11.1792C12.7799 11.1885 12.7561 11.1932 12.7321 11.1932C12.7081 11.1932 12.6843 11.1883 12.6622 11.179C12.6401 11.1696 12.6201 11.1559 12.6034 11.1386L12.6015 11.1368C12.0976 10.6314 11.2742 10.6391 10.7799 11.1605C10.3724 11.5903 10.3203 12.2558 10.6514 12.747C10.746 12.8874 10.8682 13.0072 11.0104 13.0991L12.6409 14.4189C12.6692 14.4418 12.7045 14.4543 12.7409 14.4542C12.7773 14.4541 12.8126 14.4415 12.8408 14.4185L14.4611 13.0968C14.5982 13.006 14.7165 12.8894 14.8092 12.7536C15.1291 12.2862 15.0976 11.6524 14.7317 11.2199Z" fill="#FF6E83"/>
<path d="M21.22 14.393H19.2813C18.9596 14.393 18.6989 14.1322 18.6989 13.8106V12.1837C18.6989 11.862 18.9596 11.6013 19.2813 11.6013H21.22C21.5417 11.6013 21.8024 11.8621 21.8024 12.1837V13.8106C21.8024 14.1322 21.5416 14.393 21.22 14.393Z" fill="#C8CACB"/>
<path d="M25.2161 16.2892L20.7212 12.9963C20.5832 12.8952 20.4166 12.8407 20.2455 12.8408C20.0744 12.8409 19.9077 12.8955 19.7698 12.9968L15.284 16.2896C14.6574 16.7496 14.9827 17.7426 15.76 17.7426H15.975C16.1422 17.7426 16.3052 17.6905 16.4413 17.5936L19.7894 15.2116C19.9248 15.1153 20.0867 15.0633 20.2529 15.0627C20.4191 15.0621 20.5814 15.113 20.7175 15.2084L24.1243 17.5968C24.2596 17.6916 24.4208 17.7425 24.586 17.7425H24.7406C25.5184 17.7425 25.8434 16.7487 25.2161 16.2892Z" fill="#FF473E"/>
<path d="M27.2132 32.3986H24.7901V28.0566C24.7901 27.3126 25.3325 26.7095 26.0017 26.7095C26.6708 26.7095 27.2132 27.3126 27.2132 28.0566V32.3986ZM31.9543 28.0566C31.9543 27.3127 31.4119 26.7096 30.7427 26.7096C30.0736 26.7096 29.5312 27.3127 29.5312 28.0566V32.3986H31.9543V28.0566ZM15.7037 28.0566C15.7037 27.3127 15.1613 26.7096 14.4922 26.7096C13.8231 26.7096 13.2806 27.3127 13.2806 28.0566V32.3986H15.7037V28.0566ZM22.4914 25.1992C22.4914 23.8231 21.4881 22.7075 20.2505 22.7075C19.0128 22.7075 18.0095 23.8231 18.0095 25.1992V32.3986H22.4915V25.1992H22.4914Z" fill="#442A2A"/>
</g>
<defs>
<linearGradient id="paint0_linear_97_1128" x1="22.5" y1="-6.51316" x2="22.5" y2="32.5658" gradientUnits="userSpaceOnUse">
<stop stop-color="#F1D3FF"/>
<stop offset="1" stop-color="#D495F1"/>
</linearGradient>
<clipPath id="clip0_97_1128">
<rect width="29.5388" height="29.5388" fill="white" transform="translate(8 6)"/>
</clipPath>
</defs>
</svg>
