<svg width="79" height="79" viewBox="0 0 79 79" fill="none" xmlns="http://www.w3.org/2000/svg">
<g clip-path="url(#clip0_159_3008)">
<path d="M71.6569 67.7815C71.6569 72.5291 67.7724 76.4136 63.0248 76.4136H15.5481C10.8005 76.4136 6.91602 72.5291 6.91602 67.7815V31.095C6.91602 26.3473 10.8005 22.4629 15.5481 22.4629H63.0248C67.7724 22.4629 71.6569 26.3473 71.6569 31.095V67.7815Z" fill="#F58797"/>
<path d="M78.1304 24.6211C78.1304 29.3688 74.246 33.2532 69.4983 33.2532H9.07352C4.32586 33.2532 0.441406 29.3688 0.441406 24.6211C0.441406 19.8735 4.32586 15.989 9.07352 15.989H69.4983C74.246 15.989 78.1304 19.8735 78.1304 24.6211Z" fill="#F58797"/>
<path d="M6.91602 33.2532H71.6569V37.5692H6.91602V33.2532Z" fill="#FF6E83"/>
<path d="M41.444 7.35669H37.1279C35.4109 7.35669 33.7642 8.03878 32.55 9.25291C31.3359 10.467 30.6538 12.1137 30.6538 13.8308V76.4136H47.918V13.8308C47.918 12.1137 47.2359 10.467 46.0218 9.25291C44.8077 8.03878 43.161 7.35669 41.444 7.35669Z" fill="#E6475E"/>
<path d="M34.9702 15.9891C37.344 15.9891 37.6958 14.8755 35.7493 13.5138L21.243 3.35812C20.7979 3.03404 20.2888 2.80857 19.7497 2.69673C19.2106 2.58489 18.6539 2.58925 18.1166 2.70953C17.5793 2.82981 17.0739 3.06324 16.6339 3.39426C16.194 3.72528 15.8296 4.14628 15.5652 4.6292L11.2146 12.2427C10.0363 14.3036 11.0161 15.9891 13.3899 15.9891H34.9702ZM43.6023 15.9891C41.2285 15.9891 40.8767 14.8755 42.8233 13.5138L57.3317 3.35812C57.7769 3.03439 58.286 2.8092 58.825 2.69755C59.364 2.58591 59.9206 2.59036 60.4578 2.71062C60.995 2.83087 61.5004 3.06417 61.9403 3.39499C62.3803 3.7258 62.7448 4.14654 63.0095 4.6292L67.3601 12.2406C68.5362 14.3036 67.5564 15.9891 65.1826 15.9891H43.6023Z" fill="#E6475E"/>
</g>
<defs>
<clipPath id="clip0_159_3008">
<rect width="77.689" height="77.689" fill="white" transform="translate(0.441406 0.882812)"/>
</clipPath>
</defs>
</svg>
